<svg width="526" height="385" viewBox="0 0 526 385" fill="none" xmlns="http://www.w3.org/2000/svg">
<circle cx="289.5" cy="236.5" r="236" stroke="white" stroke-linecap="round" stroke-linejoin="round" stroke-dasharray="10 10"/>
<circle opacity="0.4" cx="289.5" cy="236.5" r="172.5" fill="white"/>
<path d="M129.234 226.194H160.664C160.664 225.53 160.4 224.894 159.93 224.425C159.461 223.956 158.824 223.692 158.159 223.692H129.234V226.194Z" fill="#ED7D2B"/>
<path d="M129.317 192H80.7157L92.3724 226.194H141.291L129.317 192Z" fill="#ED7D2B"/>
<path d="M79.9989 192L91.6556 226.194H140.574L128.6 192H79.9989Z" fill="#F99746"/>
<path d="M106.204 208.78C106.505 210.087 107.811 211.146 109.126 211.146C110.441 211.146 111.251 210.087 110.948 208.78C110.646 207.473 109.341 206.414 108.026 206.414C106.711 206.414 105.902 207.475 106.204 208.78Z" fill="white"/>
<path d="M8.30785 226.127H259.432C260.488 226.127 261.344 226.982 261.344 228.037V233.286C261.344 234.341 260.488 235.196 259.432 235.196H8.30785C7.25185 235.196 6.39578 234.341 6.39578 233.286V228.037C6.39578 226.982 7.25185 226.127 8.30785 226.127Z" fill="#182D4F"/>
<path d="M2.15933 384.6H2.05104C1.74858 384.566 1.45578 384.473 1.18948 384.326C0.923192 384.179 0.688668 383.981 0.499482 383.743C0.310297 383.505 0.170185 383.232 0.0871934 382.939C0.00420207 382.647 -0.0200217 382.341 0.0159402 382.039L22.3946 230.753L30.5867 230.998L4.25592 383.101C4.16418 383.571 3.89589 383.988 3.50605 384.267C3.11622 384.545 2.63439 384.665 2.15933 384.6V384.6Z" fill="#182D4F"/>
<path d="M267.84 384.6H267.949C268.251 384.566 268.544 384.473 268.81 384.326C269.077 384.179 269.311 383.981 269.5 383.743C269.689 383.505 269.83 383.232 269.913 382.939C269.996 382.647 270.02 382.341 269.984 382.039L247.605 230.753L239.413 230.998L265.744 383.101C265.836 383.57 266.105 383.987 266.494 384.266C266.884 384.545 267.365 384.664 267.84 384.6V384.6Z" fill="#182D4F"/>
<path d="M456.713 319.309C456.713 319.309 442.857 317.371 446.093 300.656C446.093 300.656 461.577 304.118 456.713 319.309Z" fill="#92E6B8"/>
<path opacity="0.1" d="M456.713 319.309C456.713 319.309 442.857 317.371 446.093 300.656C446.093 300.656 461.577 304.118 456.713 319.309Z" fill="#92E6B8"/>
<path opacity="0.06" d="M456.777 319.193C456.777 319.193 451.928 318.948 448.352 314.213C444.262 308.798 445.756 303.404 446.188 301.674L446.19 300.809C446.19 300.809 448.919 305.12 451.811 309.889C454.703 314.658 456.777 319.193 456.777 319.193Z" fill="black"/>
<path d="M457.16 345.867C457.16 344.321 457.119 342.806 457.103 341.276C457.072 336.19 457.031 331.104 456.938 326.018C456.866 321.978 456.772 317.942 456.655 313.909C456.654 313.899 456.651 313.888 456.646 313.879C456.641 313.87 456.633 313.863 456.624 313.858C456.624 312.755 456.624 311.652 456.624 310.55C456.624 310.55 456.593 310.508 456.557 310.508C456.521 310.508 456.49 310.508 456.49 310.55V313.863C456.49 313.863 456.454 313.889 456.454 313.914C456.253 321.097 456.073 328.28 456.026 335.469C456.026 336.932 456.026 338.39 456.026 339.854C455.975 344.536 455.956 349.221 455.969 353.91C455.969 354.652 455.969 355.4 455.969 356.147C455.969 360.434 456.011 364.721 456.016 369.029C456.016 369.261 456.273 369.374 456.531 369.384C456.789 369.395 457.175 369.271 457.175 369.008C457.175 364.283 457.206 359.553 457.206 354.828C457.17 351.829 457.18 348.845 457.16 345.867Z" fill="#263238"/>
<path d="M456.038 341.03C456.038 341.03 451.454 334.115 444.373 335.092C437.293 336.07 431.971 347.804 431.971 347.804C431.971 347.804 440.236 352.218 447.647 348.987C454.77 345.882 456.038 341.03 456.038 341.03Z" fill="#92E6B8"/>
<path opacity="0.06" d="M456.137 341.02C456.137 341.02 452.51 347.807 445.76 349.668C440.619 351.082 436.718 349.021 434.153 348.524L431.924 347.938C431.924 347.938 436.602 344.922 443.13 342.575C449.659 340.228 456.137 341.02 456.137 341.02Z" fill="black"/>
<path d="M456.08 330.068C456.08 330.068 449.107 334.311 443.255 331.325C437.404 328.339 434.59 321.139 434.59 321.139C434.59 321.139 442.647 318.073 447.453 319.92C452.258 321.768 456.08 330.068 456.08 330.068Z" fill="#92E6B8"/>
<path opacity="0.06" d="M456.136 330.211C456.136 330.211 448.174 334.454 442.3 330.643C437.829 327.739 436.281 323.811 434.949 321.563L434.519 321.131C434.519 321.131 439.268 321.002 445.359 324.325C451.449 327.647 456.136 330.211 456.136 330.211Z" fill="black"/>
<path d="M457 327.643C457 327.643 461.952 318.435 469.429 316.987C476.906 315.539 481.533 323.299 481.533 323.299C481.533 323.299 476.061 330.287 469.166 331.508C462.272 332.729 457 327.643 457 327.643Z" fill="#92E6B8"/>
<path opacity="0.06" d="M481.532 323.3C481.532 323.3 476.06 330.287 469.165 331.508C463.915 332.436 459.597 329.7 457.829 328.349L457.453 327.731C457.453 327.731 461.003 324.737 467.723 323.011C474.442 321.285 481.532 323.3 481.532 323.3Z" fill="black"/>
<path d="M457.002 339.232C457.002 339.232 458.301 348.368 465.19 351.562C472.079 354.757 480.432 351.562 480.432 351.562C480.432 351.562 477.139 331.801 457.002 339.232Z" fill="#92E6B8"/>
<path opacity="0.06" d="M480.35 351.397C480.35 351.397 472.568 355.289 464.785 350.965C459.774 349.143 458.127 342.436 457.271 340.383L457.255 339.66C457.255 339.66 461.826 338.842 468.508 340.707C475.19 342.572 480.35 351.397 480.35 351.397Z" fill="black"/>
<path d="M456.703 315.908C456.703 315.908 452.499 297.466 472.311 290C472.311 290 477.804 314.275 456.703 315.908Z" fill="#92E6B8"/>
<path opacity="0.06" d="M472.134 290C472.134 290 474.296 299.192 471.27 305.998C467.81 313.781 461.799 315.215 459.595 315.51L457.865 315.51C457.865 315.51 461.254 306.781 464.784 300.809C468.315 294.838 472.134 290 472.134 290Z" fill="black"/>
<path d="M470.391 355.786H441.818V385.904H470.391V355.786Z" fill="#33444D"/>
<g clip-path="url(#clip0_1139_8971)">
<path d="M349.001 377.37H340.981L339.99 358.782H348.02L349.001 377.37Z" fill="#7F3E3B"/>
<path d="M389.478 377.37H381.458L378.307 358.782H386.336L389.478 377.37Z" fill="#7F3E3B"/>
<path d="M380.931 376.436H389.998C390.154 376.436 390.304 376.491 390.423 376.591C390.542 376.691 390.622 376.83 390.649 376.983L391.885 384.088C391.913 384.266 391.901 384.448 391.851 384.622C391.8 384.795 391.713 384.955 391.594 385.091C391.476 385.226 391.329 385.335 391.164 385.408C390.999 385.48 390.82 385.516 390.64 385.513C387.498 385.466 385.979 385.277 382.016 385.277C379.572 385.277 372.995 385.532 369.627 385.532C366.258 385.532 365.938 382.201 367.353 381.927C373.599 380.578 377.562 378.71 379.619 376.927C379.983 376.611 380.449 376.437 380.931 376.436V376.436Z" fill="#263238"/>
<path d="M340.772 376.436H349.538C349.694 376.432 349.847 376.485 349.967 376.586C350.087 376.687 350.166 376.828 350.189 376.983L351.434 384.116C351.463 384.292 351.453 384.473 351.405 384.644C351.357 384.816 351.272 384.975 351.156 385.111C351.041 385.247 350.897 385.355 350.734 385.43C350.572 385.504 350.396 385.542 350.217 385.541C347.056 385.494 342.499 385.305 338.527 385.305C333.875 385.305 332.696 385.56 327.251 385.56C323.958 385.56 323.203 382.229 324.59 381.927C330.941 380.55 333.224 380.408 338.81 377.058C339.397 376.68 340.074 376.465 340.772 376.436V376.436Z" fill="#263238"/>
<path d="M340.527 127.443L329.554 124.235C329.554 124.235 318.382 150.777 314.599 152.542C309.456 154.91 295.728 162.147 289.916 165.563C289.519 166.874 289.519 170.46 290.151 171.507C299.672 170.714 319.232 164.242 323.006 160.647C331.498 152.438 340.527 127.443 340.527 127.443Z" fill="#7F3E3B"/>
<path d="M340.527 127.443L329.554 124.235C329.554 124.235 318.382 150.777 314.599 152.542C309.456 154.91 295.728 162.147 289.916 165.563C289.519 166.874 289.519 170.46 290.151 171.507C299.672 170.714 319.232 164.242 323.006 160.647C331.498 152.438 340.527 127.443 340.527 127.443Z" fill="url(#paint0_linear_1139_8971)"/>
<path d="M343.84 122.433C346.963 129.368 325.582 159.826 325.582 159.826L315.203 149.06C315.203 149.06 324.384 126.009 329.356 117.159C334.423 108.073 340.424 114.819 343.84 122.433Z" fill="#407BFF"/>
<path d="M343.84 122.433C346.963 129.368 325.582 159.826 325.582 159.826L315.203 149.06C315.203 149.06 324.384 126.009 329.356 117.159C334.423 108.073 340.424 114.819 343.84 122.433Z" fill="#72D69F"/>
<path d="M314.438 148.107C313.787 148.494 312.4 151.032 312.079 152.287C311.758 153.542 319.08 163.308 321.92 162.911C324.76 162.515 328.006 159.76 328.581 158.269C329.157 156.778 315.815 147.258 314.438 148.107Z" fill="#31A064"/>
<path d="M291.132 164.931L284.48 163.732L284.886 173.168C284.886 173.168 287.207 174.111 292.208 171.007L291.132 164.931Z" fill="#7F3E3B"/>
<path d="M291.132 164.931L284.48 163.732L284.886 173.168C284.886 173.168 287.207 174.111 292.208 171.007L291.132 164.931Z" fill="url(#paint1_linear_1139_8971)"/>
<path d="M276.555 166.874L277.753 172.677L284.886 173.206L284.48 163.732L276.555 166.874Z" fill="#7F3E3B"/>
<path d="M276.555 166.874L277.753 172.677L284.886 173.206L284.48 163.732L276.555 166.874Z" fill="url(#paint2_linear_1139_8971)"/>
<path opacity="0.2" d="M339.988 358.782L340.498 368.369H348.527L348.018 358.782H339.988Z" fill="black"/>
<path opacity="0.2" d="M386.334 358.782H378.305L379.937 368.369H387.957L386.334 358.782Z" fill="black"/>
<path d="M333.64 112.951C333.64 112.951 322.94 140.531 329.781 185.66H372.703C373.316 179.056 370.816 143.588 378.619 112.536C373.905 111.622 369.136 111.017 364.343 110.724C358.265 110.375 352.173 110.375 346.095 110.724C341.893 111.15 337.729 111.894 333.64 112.951V112.951Z" fill="#7CE1AA"/>
<path d="M333.144 112.489C333.144 112.489 322.444 140.069 329.285 185.198H372.207C372.82 178.594 370.32 143.126 378.123 112.074C373.409 111.16 368.64 110.555 363.847 110.262C357.769 109.913 351.677 109.913 345.599 110.262C341.397 110.688 337.233 111.433 333.144 112.489V112.489Z" fill="#7CE1AA"/>
<path d="M368.938 120.207C367.994 125.311 369.004 137.54 373.193 151.664C373.709 139.538 375.288 127.481 377.911 115.63V115.564C375.071 115.281 369.843 115.413 368.938 120.207Z" fill="#51D78D"/>
<path d="M362.766 93.6646C361.342 99.5334 360.417 106.808 364.342 110.724C364.342 110.724 361.7 116.678 350.783 116.678C340.819 116.678 346.066 110.724 346.066 110.724C352.67 109.158 352.727 101.062 351.812 96.5046L362.766 93.6646Z" fill="#7F3E3B"/>
<path d="M362.766 93.6646C361.342 99.5334 360.417 106.808 364.342 110.724C364.342 110.724 361.7 116.678 350.783 116.678C340.819 116.678 346.066 110.724 346.066 110.724C352.67 109.158 352.727 101.062 351.812 96.5046L362.766 93.6646Z" fill="url(#paint3_linear_1139_8971)"/>
<path d="M350.793 116.678C357.228 118.688 358.502 120.754 358.502 120.754C358.502 120.754 366.503 117.499 366.201 110.441C365.228 109.722 364.177 109.114 363.069 108.629C363.069 108.629 362.427 113.857 350.793 116.678Z" fill="#31A064"/>
<path d="M350.793 116.678C347.189 117.027 344.188 120.112 344.188 120.112C344.188 120.112 341.905 117.706 344.094 110.724C344.094 110.724 346.245 109.997 348.01 109.61C347.972 109.61 346.594 115.177 350.793 116.678Z" fill="#31A064"/>
<path opacity="0.2" d="M351.83 96.5047C352.387 99.1844 352.594 103.11 351.33 106.148C352.359 105.98 353.357 105.662 354.293 105.204C358.067 103.459 360.02 100.722 362.105 96.6557C362.304 95.6178 362.521 94.5987 362.766 93.6174L351.83 96.5047Z" fill="black"/>
<path d="M350.566 74.9068C347.999 75.7466 342.262 80.6625 347.688 83.1534C353.113 85.6444 355.029 73.4443 350.566 74.9068Z" fill="#263238"/>
<path d="M367.871 86.503C365.37 94.2023 364.295 98.7691 359.379 101.968C351.991 106.685 343.452 101.081 343.65 92.8908C343.829 85.5311 347.886 74.1802 356.199 72.7177C364.512 71.2552 370.371 78.8036 367.871 86.503Z" fill="#7F3E3B"/>
<path d="M367.871 86.503C365.37 94.2023 364.295 98.7691 359.379 101.968C351.991 106.685 343.452 101.081 343.65 92.8908C343.829 85.5311 347.886 74.1802 356.199 72.7177C364.512 71.2552 370.371 78.8036 367.871 86.503Z" fill="url(#paint4_linear_1139_8971)"/>
<path d="M355.822 78.0489C351.576 78.766 348.028 78.549 346.745 75.0201C345.462 71.4912 351.302 67.7925 355.331 69.4437C358.313 66.3583 366.418 68.7361 367.465 71.7083C372.183 71.4063 376.646 76.8317 373.447 79.6246C374.171 80.0741 374.782 80.6825 375.235 81.4037C375.688 82.1249 375.971 82.9398 376.062 83.7866C376.153 84.6335 376.05 85.4899 375.76 86.2908C375.471 87.0918 375.002 87.8162 374.391 88.409C375.768 92.504 370.805 96.5801 366.843 94.9289C362.993 93.7684 360.889 94.7214 360.351 92.221C359.841 89.881 361.172 87.3334 364.446 86.8522C362.795 84.8613 362.38 81.7287 363.502 80.3889C359.577 82.1533 356.322 79.9265 355.822 78.0489Z" fill="#452F2F"/>
<path d="M347.899 94.6588C348.652 94.7263 349.41 94.6425 350.129 94.4124C350.849 94.1823 351.515 93.8105 352.089 93.319C352.123 93.2837 352.142 93.2363 352.142 93.1869C352.142 93.1375 352.123 93.0901 352.089 93.0548C352.052 93.0196 352.003 93 351.952 93C351.901 93 351.852 93.0196 351.815 93.0548C351.184 93.5752 350.445 93.9471 349.651 94.1431C348.857 94.3391 348.03 94.3541 347.229 94.1871C347.204 94.1816 347.179 94.1812 347.154 94.1859C347.129 94.1905 347.105 94.2002 347.084 94.2143C347.063 94.2284 347.045 94.2466 347.031 94.2679C347.017 94.2892 347.007 94.313 347.003 94.338C346.995 94.3868 347.006 94.4368 347.034 94.4774C347.062 94.518 347.105 94.5459 347.154 94.5551C347.399 94.6073 347.649 94.6419 347.899 94.6588V94.6588Z" fill="#9F2E00"/>
<path d="M368.295 97.1085C366.692 98.3694 364.662 98.9581 362.634 98.7502C360.011 98.4577 359.803 95.863 361.464 93.891C362.954 92.1266 366.125 90.1168 368.314 91.4283C370.503 92.7399 370.286 95.5516 368.295 97.1085Z" fill="#7F3E3B"/>
<path d="M368.295 97.1085C366.692 98.3694 364.662 98.9581 362.634 98.7502C360.011 98.4577 359.803 95.863 361.464 93.891C362.954 92.1266 366.125 90.1168 368.314 91.4283C370.503 92.7399 370.286 95.5516 368.295 97.1085Z" fill="url(#paint5_linear_1139_8971)"/>
<path d="M357.993 185.66C357.993 185.66 356.908 195.747 355.502 209.428C353.907 224.931 351.916 245.047 350.652 260.38C350.652 260.465 350.652 260.531 350.652 260.597C350.416 263.503 350.199 266.258 350.02 268.73C348.218 293.734 351.426 366.51 351.426 366.51H337.81C337.81 366.51 325.289 292.253 325.591 266.796C325.884 242.32 329.781 185.651 329.781 185.651L357.993 185.66Z" fill="#2B1615"/>
<path d="M352.529 361.188C352.595 361.188 352.294 366.784 352.294 366.784H336.621L336.234 360.641L352.529 361.188Z" fill="#263238"/>
<path opacity="0.2" d="M355.5 209.428C353.905 224.931 351.915 245.047 350.65 260.38C350.65 260.465 350.65 260.531 350.65 260.597C347.659 246.057 346.734 227.979 347.895 198.2L355.5 209.428Z" fill="black"/>
<path d="M345.01 185.66C345.01 185.66 351.265 243.651 355.172 266.626C359.446 291.791 376.288 366.51 376.288 366.51H390.942C390.942 366.51 381.034 293.857 379.1 268.91C376.996 241.867 372.665 185.66 372.665 185.66H345.01Z" fill="#2B1615"/>
<path d="M391.196 361.528C391.253 361.528 391.706 366.783 391.706 366.783H375.543L374.363 360.915L391.196 361.528Z" fill="#263238"/>
<path d="M354.538 86.1445C354.378 86.7767 353.915 87.2202 353.5 87.1353C353.085 87.0503 352.896 86.4559 353.066 85.8237C353.236 85.1916 353.689 84.7386 354.104 84.833C354.519 84.9274 354.708 85.5029 354.538 86.1445Z" fill="#263238"/>
<path d="M347.481 84.5971C347.321 85.2387 346.859 85.6822 346.444 85.5878C346.028 85.4935 345.84 84.9085 346.009 84.2763C346.179 83.6441 346.642 83.2006 347.047 83.2856C347.453 83.3705 347.651 83.9649 347.481 84.5971Z" fill="#263238"/>
<path d="M358.407 84.2952C358.35 84.2817 358.297 84.255 358.253 84.2173C358.209 84.1796 358.174 84.1319 358.152 84.0781C357.985 83.6407 357.713 83.2514 357.359 82.9451C357.005 82.6388 356.58 82.4251 356.123 82.3231C356.075 82.3152 356.028 82.2976 355.986 82.2713C355.945 82.245 355.909 82.2106 355.88 82.1701C355.852 82.1296 355.832 82.0839 355.822 82.0356C355.812 81.9873 355.812 81.9375 355.821 81.8891C355.842 81.7899 355.899 81.702 355.981 81.6427C356.063 81.5833 356.164 81.5568 356.265 81.5683C356.847 81.684 357.391 81.9454 357.844 82.3283C358.298 82.7111 358.647 83.2028 358.86 83.7573C358.898 83.8526 358.897 83.959 358.859 84.054C358.82 84.149 358.746 84.2253 358.652 84.2669C358.575 84.3016 358.489 84.3114 358.407 84.2952Z" fill="#9F2E00"/>
<path d="M346.112 81.3608C346.058 81.3509 346.009 81.3245 345.971 81.2853C345.935 81.2494 345.906 81.2067 345.887 81.1597C345.867 81.1128 345.857 81.0625 345.857 81.0117C345.857 80.9608 345.867 80.9105 345.887 80.8636C345.906 80.8166 345.935 80.7739 345.971 80.738C346.372 80.2778 346.875 79.9183 347.441 79.6889C348.006 79.4594 348.618 79.3663 349.226 79.4171C349.275 79.425 349.321 79.4426 349.363 79.4689C349.405 79.4952 349.441 79.5296 349.469 79.5701C349.497 79.6106 349.517 79.6563 349.527 79.7046C349.537 79.7529 349.537 79.8027 349.528 79.8511C349.51 79.9513 349.453 80.0406 349.371 80.1003C349.288 80.1601 349.185 80.1857 349.085 80.1719V80.1719C348.603 80.1337 348.119 80.2076 347.67 80.3876C347.222 80.5677 346.821 80.8491 346.499 81.2098C346.456 81.2691 346.396 81.3148 346.328 81.3416C346.259 81.3683 346.185 81.375 346.112 81.3608V81.3608Z" fill="#9F2E00"/>
<path d="M383.393 123.5L373.25 129.633C373.25 129.633 384.572 154.165 384.506 158.288C384.318 165.987 387.639 182.679 386.742 191.473C387.988 191.916 391.46 192.02 392.545 191.407C394.564 183.443 397.348 162.553 396.536 157.316C394.781 145.956 383.393 123.5 383.393 123.5Z" fill="#7F3E3B"/>
<path d="M383.393 123.5L373.25 129.633C373.25 129.633 384.572 154.165 384.506 158.288C384.318 165.987 387.639 182.679 386.742 191.473C387.988 191.916 391.46 192.02 392.545 191.407C394.564 183.443 397.348 162.553 396.536 157.316C394.781 145.956 383.393 123.5 383.393 123.5Z" fill="url(#paint6_linear_1139_8971)"/>
<path d="M378.618 112.536C386.166 113.64 396.932 151.957 396.932 151.957L382.958 157.222C382.958 157.222 370.796 136.464 367.777 127.151C364.616 117.423 370.532 111.403 378.618 112.536Z" fill="#407BFF"/>
<path d="M378.618 112.536C386.166 113.64 396.932 151.957 396.932 151.957L382.958 157.222C382.958 157.222 370.796 136.464 367.777 127.151C364.616 117.423 370.532 111.403 378.618 112.536Z" fill="#72D69F"/>
<path d="M378.214 377.832C377.673 377.876 377.133 377.733 376.685 377.427C376.547 377.304 376.442 377.147 376.383 376.972C376.323 376.796 376.31 376.608 376.346 376.426C376.348 376.313 376.383 376.203 376.444 376.108C376.506 376.013 376.592 375.937 376.695 375.889C377.591 375.436 380.11 377.021 380.393 377.2C380.424 377.222 380.449 377.252 380.464 377.287C380.479 377.322 380.484 377.361 380.478 377.398C380.469 377.435 380.45 377.468 380.424 377.495C380.397 377.521 380.364 377.54 380.327 377.549C379.635 377.72 378.926 377.815 378.214 377.832ZM377.1 376.181C377.013 376.175 376.925 376.191 376.846 376.228C376.806 376.249 376.774 376.28 376.752 376.318C376.73 376.357 376.72 376.401 376.723 376.445C376.697 376.569 376.703 376.698 376.741 376.818C376.779 376.939 376.848 377.048 376.94 377.134C377.365 377.512 378.412 377.559 379.771 377.285C378.963 376.743 378.055 376.367 377.1 376.181V376.181Z" fill="#89D8AD"/>
<path d="M380.28 377.559C380.252 377.568 380.223 377.568 380.195 377.559C379.384 377.106 377.864 375.351 378.072 374.455C378.107 374.313 378.189 374.188 378.303 374.097C378.417 374.007 378.558 373.957 378.704 373.955C378.846 373.932 378.992 373.943 379.129 373.986C379.266 374.028 379.392 374.101 379.497 374.2C380.393 374.964 380.44 377.276 380.44 377.38C380.44 377.414 380.431 377.447 380.414 377.476C380.398 377.506 380.374 377.531 380.346 377.55C380.325 377.556 380.302 377.56 380.28 377.559V377.559ZM378.817 374.304H378.732C378.478 374.304 378.449 374.455 378.44 374.502C378.317 375.03 379.28 376.389 380.072 376.983C380.06 376.079 379.77 375.199 379.242 374.464C379.123 374.364 378.973 374.307 378.817 374.304V374.304Z" fill="#89D8AD"/>
<path d="M337.366 377.842C336.698 377.899 336.031 377.723 335.479 377.342C335.35 377.225 335.254 377.076 335.199 376.911C335.145 376.746 335.134 376.569 335.168 376.398C335.177 376.293 335.213 376.192 335.273 376.104C335.332 376.017 335.413 375.946 335.508 375.898C336.508 375.351 339.65 376.993 340.008 377.172C340.043 377.191 340.07 377.22 340.087 377.256C340.104 377.292 340.109 377.331 340.103 377.37C340.095 377.41 340.076 377.447 340.048 377.476C340.019 377.504 339.982 377.523 339.942 377.531C339.096 377.718 338.233 377.822 337.366 377.842V377.842ZM335.998 376.181C335.875 376.174 335.752 376.197 335.64 376.247C335.601 376.264 335.567 376.292 335.544 376.327C335.52 376.362 335.508 376.403 335.508 376.446C335.488 376.556 335.496 376.67 335.53 376.777C335.565 376.884 335.625 376.981 335.706 377.059C336.177 377.502 337.498 377.578 339.282 377.276C338.259 376.723 337.148 376.353 335.998 376.181Z" fill="#89D8AD"/>
<path d="M339.867 377.559H339.792C338.848 377.125 337.008 375.389 337.197 374.483C337.244 374.266 337.405 374.002 337.933 373.945C338.12 373.924 338.308 373.942 338.487 373.999C338.666 374.056 338.831 374.15 338.971 374.275C339.914 375.115 340.065 377.276 340.065 377.37C340.067 377.403 340.06 377.436 340.045 377.466C340.03 377.496 340.008 377.521 339.981 377.54C339.945 377.555 339.906 377.561 339.867 377.559ZM338.103 374.304H337.99C337.641 374.304 337.612 374.473 337.603 374.521C337.49 375.068 338.735 376.408 339.688 377.021C339.648 376.117 339.317 375.25 338.744 374.549C338.569 374.39 338.34 374.302 338.103 374.304Z" fill="#89D8AD"/>
<path d="M410.894 199.212L362.663 205.502C360.549 205.778 359.059 207.714 359.335 209.828L363.442 241.321C363.718 243.434 365.654 244.924 367.768 244.649L415.999 238.359C418.113 238.083 419.602 236.147 419.327 234.033L415.22 202.54C414.944 200.427 413.007 198.937 410.894 199.212Z" fill="#263238"/>
<path opacity="0.3" d="M410.894 199.212L362.663 205.502C360.549 205.778 359.059 207.714 359.335 209.828L363.442 241.321C363.718 243.434 365.654 244.924 367.768 244.649L415.999 238.359C418.113 238.083 419.602 236.147 419.327 234.033L415.22 202.54C414.944 200.427 413.007 198.937 410.894 199.212Z" fill="#4F6570"/>
<path d="M384.516 209.627C383.628 209.621 382.772 209.296 382.104 208.71C381.437 208.124 381.004 207.317 380.883 206.437L380.025 199.889C379.904 198.924 380.169 197.95 380.763 197.18C381.357 196.409 382.231 195.905 383.195 195.775L394.093 194.36C394.57 194.296 395.055 194.327 395.52 194.451C395.985 194.576 396.42 194.792 396.801 195.087C397.572 195.681 398.077 196.556 398.207 197.521L399.056 204.069C399.118 204.546 399.086 205.031 398.961 205.495C398.835 205.96 398.62 206.395 398.326 206.776C398.033 207.158 397.667 207.477 397.25 207.717C396.833 207.957 396.372 208.112 395.895 208.174V208.174L384.997 209.598C384.837 209.617 384.677 209.627 384.516 209.627V209.627ZM394.565 196.417H394.366L383.469 197.832C383.065 197.889 382.699 198.101 382.451 198.424C382.202 198.747 382.09 199.154 382.138 199.559L382.997 206.107C383.053 206.508 383.265 206.871 383.586 207.118C383.907 207.365 384.312 207.477 384.714 207.428L395.659 206.06C395.859 206.034 396.051 205.97 396.226 205.869C396.401 205.769 396.554 205.635 396.676 205.476C396.799 205.316 396.889 205.134 396.941 204.94C396.993 204.745 397.007 204.542 396.98 204.343L396.131 197.795C396.079 197.425 395.896 197.087 395.615 196.841C395.335 196.595 394.975 196.458 394.602 196.455L394.565 196.417Z" fill="#263238"/>
<path d="M415.486 198.615L367.254 204.905C365.141 205.18 363.651 207.117 363.927 209.231L368.034 240.724C368.309 242.837 370.246 244.327 372.359 244.051L420.591 237.761C422.704 237.486 424.194 235.549 423.918 233.436L419.811 201.943C419.536 199.829 417.599 198.339 415.486 198.615Z" fill="#4F6570"/>
<path d="M387.168 190.142L384.082 196.143L393.112 196.558C393.763 195.25 393.999 193.774 393.79 192.328C393.581 190.882 392.937 189.533 391.942 188.463L387.168 190.142Z" fill="#7F3E3B"/>
<path d="M387.168 190.142L384.082 196.143L393.112 196.558C393.763 195.25 393.999 193.774 393.79 192.328C393.581 190.882 392.937 189.533 391.942 188.463L387.168 190.142Z" fill="url(#paint7_linear_1139_8971)"/>
<path d="M387.553 200.776L392.922 200.04L393.129 196.558L384.1 196.143L384.241 198.096C384.27 198.495 384.38 198.883 384.564 199.237C384.749 199.592 385.005 199.904 385.315 200.155C385.626 200.406 385.985 200.591 386.37 200.698C386.755 200.805 387.157 200.831 387.553 200.776V200.776Z" fill="#7F3E3B"/>
<path d="M387.553 200.776L392.922 200.04L393.129 196.558L384.1 196.143L384.241 198.096C384.27 198.495 384.38 198.883 384.564 199.237C384.749 199.592 385.005 199.904 385.315 200.155C385.626 200.406 385.985 200.591 386.37 200.698C386.755 200.805 387.157 200.831 387.553 200.776V200.776Z" fill="url(#paint8_linear_1139_8971)"/>
<path d="M380.854 155.061C380.722 155.807 381.712 158.524 382.458 159.59C383.203 160.656 395.356 161.572 396.932 159.175C398.508 156.778 398.555 152.57 397.819 151.098C397.083 149.626 381.156 153.495 380.854 155.061Z" fill="#31A064"/>
<path d="M203.061 125.622C201.542 127.604 199.881 129.783 198.343 131.925C196.805 134.067 195.296 136.256 193.871 138.464C191.012 142.7 188.545 147.188 186.502 151.872C186.275 152.428 186.049 152.985 185.86 153.542C185.756 153.815 185.671 154.089 185.587 154.363L185.454 154.768L185.388 154.967V155.023C185.21 155.749 185.175 156.502 185.285 157.24C185.61 159.625 186.176 161.971 186.974 164.242C188.587 169.11 190.748 174.149 192.871 179.027L188.078 182.056C184.457 177.596 181.323 172.763 178.727 167.638C177.302 164.869 176.215 161.939 175.491 158.911C175.019 156.949 174.929 154.915 175.226 152.919L175.311 152.476L175.377 152.174L175.519 151.589C175.613 151.202 175.708 150.805 175.821 150.438C176.019 149.673 176.255 148.937 176.491 148.201C178.467 142.649 181.046 137.331 184.181 132.34C185.681 129.896 187.238 127.5 188.898 125.188C190.559 122.877 192.201 120.621 194.126 118.329L203.061 125.622Z" fill="#263238"/>
<path fill-rule="evenodd" clip-rule="evenodd" d="M196.57 179.886L191.579 177.253L187.078 180.48C187.279 184.037 190.618 186.413 190.841 186.567L190.834 186.575L197.109 188.868L203.232 184.009L196.564 179.893L196.57 179.886Z" fill="#7F3E3B"/>
<path fill-rule="evenodd" clip-rule="evenodd" d="M196.57 179.886L191.579 177.253L187.078 180.48C187.279 184.037 190.618 186.413 190.841 186.567L190.834 186.575L197.109 188.868L203.232 184.009L196.564 179.893L196.57 179.886Z" fill="url(#paint9_linear_1139_8971)"/>
<path fill-rule="evenodd" clip-rule="evenodd" d="M283.273 165.959L283.264 165.955L283.274 165.959L284.784 164.591L287.086 164.204L283.632 162.732L278.774 163.637L277.404 162.93L274.724 166.468C274.642 170.038 277.829 172.619 278.035 172.782L278.018 172.799L281.518 174.498C282.078 174.769 282.711 174.849 283.32 174.724L289.161 173.469C289.348 173.419 289.519 173.324 289.659 173.191C289.799 173.058 289.904 172.892 289.964 172.708C290.024 172.525 290.037 172.329 290.003 172.139C289.968 171.949 289.886 171.77 289.765 171.62L285.849 167.138L282.762 168.074L282.763 168.073L283.273 165.959Z" fill="#7F3E3B"/>
<path fill-rule="evenodd" clip-rule="evenodd" d="M283.273 165.959L283.264 165.955L283.274 165.959L284.784 164.591L287.086 164.204L283.632 162.732L278.774 163.637L277.404 162.93L274.724 166.468C274.642 170.038 277.829 172.619 278.035 172.782L278.018 172.799L281.518 174.498C282.078 174.769 282.711 174.849 283.32 174.724L289.161 173.469C289.348 173.419 289.519 173.324 289.659 173.191C289.799 173.058 289.904 172.892 289.964 172.708C290.024 172.525 290.037 172.329 290.003 172.139C289.968 171.949 289.886 171.77 289.765 171.62L285.849 167.138L282.762 168.074L282.763 168.073L283.273 165.959Z" fill="url(#paint10_linear_1139_8971)"/>
<path d="M224.556 87.3614C224.688 88.003 225.132 88.4465 225.5 88.3616C225.868 88.2767 226.142 87.6917 226.009 87.0595C225.877 86.4273 225.443 85.9838 225.066 86.0688C224.688 86.1537 224.434 86.7293 224.556 87.3614Z" fill="#263238"/>
<path d="M221.528 84.3233C221.432 84.3229 221.341 84.2857 221.273 84.2195C221.237 84.1844 221.209 84.1425 221.19 84.0963C221.17 84.0502 221.16 84.0006 221.16 83.9506C221.16 83.9005 221.17 83.851 221.19 83.8048C221.209 83.7586 221.237 83.7168 221.273 83.6817C221.672 83.2288 222.175 82.8784 222.738 82.6601C223.301 82.4417 223.909 82.3617 224.509 82.4267C224.606 82.4451 224.692 82.5009 224.749 82.5821C224.805 82.6632 224.828 82.7633 224.811 82.8608C224.804 82.9103 224.788 82.9579 224.762 83.0007C224.736 83.0435 224.702 83.0806 224.661 83.1098C224.62 83.1389 224.574 83.1595 224.525 83.1702C224.477 83.1809 224.426 83.1816 224.377 83.1721V83.1721C223.901 83.1291 223.422 83.1999 222.979 83.3788C222.536 83.5576 222.142 83.8393 221.83 84.2006C221.791 84.2418 221.744 84.2741 221.692 84.2953C221.64 84.3165 221.584 84.326 221.528 84.3233V84.3233Z" fill="#263238"/>
<path d="M207.421 98.552C208.516 104.119 209.176 111.828 205.279 115.536C205.279 115.536 206.798 121.197 217.149 121.197C228.472 121.197 222.622 116.243 222.622 116.243C217.904 114.781 217.904 109.393 219.017 105.062L207.421 98.552Z" fill="#7F3E3B"/>
<path d="M207.421 98.552C208.516 104.119 209.176 111.828 205.279 115.536C205.279 115.536 206.798 121.197 217.149 121.197C228.472 121.197 222.622 116.243 222.622 116.243C217.904 114.781 217.904 109.393 219.017 105.062L207.421 98.552Z" fill="url(#paint11_linear_1139_8971)"/>
<path d="M203.6 119.348C202.656 117.857 202.977 113.337 204.1 112.601C205.921 111.412 213.394 111.545 223.301 114.441C221.971 118.763 224.15 121.188 224.15 121.188L203.6 119.348Z" fill="#31A064"/>
<path opacity="0.2" d="M195.334 127.358C191.853 130.84 190.768 138.002 191.154 142.88C192.032 141.398 192.957 139.917 193.91 138.473C195.325 136.256 196.844 134.095 198.372 131.925L199.675 130.123C199.769 129.736 199.844 129.349 199.91 128.972L195.334 127.358Z" fill="black"/>
<path d="M170.283 376.125C170.901 376.34 171.58 376.303 172.17 376.021C172.283 375.916 172.36 375.779 172.39 375.628C172.421 375.478 172.403 375.321 172.34 375.181C172.306 375.065 172.248 374.957 172.168 374.866C172.088 374.774 171.989 374.702 171.878 374.653C170.849 374.162 168.491 375.125 168.387 375.162C168.356 375.177 168.329 375.199 168.309 375.227C168.289 375.256 168.277 375.288 168.274 375.323C168.272 375.358 168.281 375.393 168.3 375.423C168.318 375.454 168.345 375.478 168.377 375.492C168.991 375.764 169.629 375.976 170.283 376.125V376.125ZM171.519 374.907C171.594 374.919 171.667 374.942 171.736 374.974C171.802 375.003 171.86 375.046 171.907 375.1C171.954 375.153 171.989 375.216 172.01 375.285C172.104 375.606 172.01 375.709 171.944 375.738C171.538 376.087 170.057 375.738 168.943 375.342C169.759 375.006 170.639 374.857 171.519 374.907Z" fill="#407BFF"/>
<path d="M168.434 375.502C168.462 375.511 168.491 375.511 168.519 375.502C169.378 375.247 171.217 373.945 171.246 373.077C171.244 372.942 171.197 372.812 171.114 372.706C171.03 372.6 170.914 372.525 170.783 372.492C170.652 372.449 170.513 372.433 170.376 372.444C170.238 372.455 170.104 372.494 169.981 372.558C168.962 373.077 168.321 375.19 168.292 375.275C168.283 375.307 168.283 375.34 168.291 375.371C168.299 375.403 168.316 375.432 168.34 375.455C168.351 375.468 168.366 375.48 168.382 375.488C168.398 375.496 168.416 375.501 168.434 375.502V375.502ZM170.585 372.813H170.661C170.887 372.888 170.878 372.992 170.878 373.039C170.878 373.549 169.651 374.577 168.764 374.992C169.007 374.166 169.49 373.43 170.151 372.879C170.284 372.809 170.437 372.785 170.585 372.813V372.813Z" fill="#407BFF"/>
<path d="M226.472 377.398C227.416 377.398 228.359 377.266 228.708 376.823C228.789 376.708 228.832 376.571 228.832 376.431C228.832 376.291 228.789 376.154 228.708 376.04C228.649 375.933 228.568 375.84 228.47 375.767C228.373 375.694 228.261 375.642 228.142 375.615C226.868 375.266 224.208 376.785 224.094 376.851C224.064 376.872 224.04 376.9 224.025 376.933C224.01 376.967 224.005 377.004 224.009 377.04C224.015 377.075 224.032 377.108 224.057 377.134C224.083 377.159 224.115 377.176 224.151 377.181C224.916 377.325 225.693 377.397 226.472 377.398ZM227.708 375.917C227.823 375.917 227.937 375.933 228.048 375.964C228.122 375.98 228.192 376.01 228.254 376.054C228.315 376.098 228.367 376.154 228.406 376.219C228.529 376.436 228.482 376.549 228.406 376.615C228.048 377.106 226.123 377.115 224.708 376.917C225.634 376.393 226.653 376.053 227.708 375.917Z" fill="#407BFF"/>
<path d="M224.169 377.191H224.244C225.188 376.776 226.98 375.134 226.839 374.275C226.839 374.068 226.669 373.822 226.169 373.766C225.99 373.746 225.808 373.764 225.636 373.817C225.464 373.871 225.305 373.959 225.169 374.077C224.225 374.87 223.999 376.908 223.989 377.011C223.986 377.042 223.991 377.074 224.004 377.102C224.018 377.131 224.039 377.155 224.065 377.172C224.097 377.187 224.133 377.194 224.169 377.191V377.191ZM226.056 374.105H226.159C226.49 374.105 226.509 374.266 226.518 374.313C226.593 374.822 225.357 376.124 224.423 376.681C224.509 375.814 224.858 374.994 225.423 374.332C225.595 374.193 225.807 374.113 226.027 374.105H226.056Z" fill="#407BFF"/>
<path d="M215.801 377.011H223.415L224.17 359.386H216.565L215.801 377.011Z" fill="#FFC3BD"/>
<path d="M160.084 373.756L167.425 375.313L174.077 358.442L166.736 356.895L160.084 373.756Z" fill="#FFC3BD"/>
<path d="M168.104 374.351L159.773 372.539C159.625 372.507 159.471 372.527 159.336 372.593C159.201 372.66 159.092 372.771 159.027 372.907L156.102 379.2C156.032 379.356 155.999 379.526 156.005 379.697C156.011 379.868 156.056 380.036 156.137 380.186C156.219 380.337 156.333 380.467 156.473 380.566C156.613 380.665 156.773 380.73 156.942 380.757C159.867 381.342 161.32 381.474 165 382.276C167.255 382.767 172.359 384.003 175.483 384.682C178.606 385.362 179.681 382.361 178.464 381.805C173.001 379.304 170.727 377.087 169.246 375.068C168.97 374.692 168.562 374.436 168.104 374.351V374.351Z" fill="#263238"/>
<path d="M223.359 376.125H215.056C214.905 376.125 214.758 376.176 214.64 376.271C214.522 376.365 214.439 376.496 214.405 376.643L212.905 383.409C212.866 383.573 212.865 383.743 212.902 383.907C212.939 384.071 213.014 384.225 213.119 384.356C213.225 384.487 213.359 384.593 213.512 384.664C213.664 384.735 213.831 384.771 213.999 384.767C216.99 384.711 221.321 384.541 225.095 384.541C229.502 384.541 231.059 384.777 236.229 384.777C239.352 384.777 240.221 381.616 238.909 381.333C232.955 380.031 230.342 379.889 225.199 376.719C224.653 376.353 224.016 376.147 223.359 376.125Z" fill="#263238"/>
<path opacity="0.2" d="M224.171 359.386L223.784 368.473H216.17L216.557 359.386H224.171Z" fill="black"/>
<path opacity="0.2" d="M166.737 356.895L174.078 358.452L170.644 367.142L163.303 365.585L166.737 356.895Z" fill="black"/>
<path d="M221.245 183.433C221.245 183.433 212.612 241.612 207.894 263.38C202.705 287.233 174.87 366.227 174.87 366.227L161.217 363.226C161.217 363.226 180.682 298.895 185.041 265.541C188.391 239.923 194.986 183.452 194.986 183.452L221.245 183.433Z" fill="#263238"/>
<path opacity="0.7" d="M221.245 183.433C221.245 183.433 212.612 241.612 207.894 263.38C202.705 287.233 174.87 366.227 174.87 366.227L161.217 363.226C161.217 363.226 180.682 298.895 185.041 265.541C188.391 239.923 194.986 183.452 194.986 183.452L221.245 183.433Z" fill="#2A1615"/>
<path d="M178.096 361.632C178.162 361.632 175.558 366.557 175.558 366.557L160.234 363.236L161.527 358.612L178.096 361.632Z" fill="#263238"/>
<path opacity="0.3" d="M215.79 204.154C205.798 206.116 206.855 243.349 208.063 262.503C210.893 248.963 215.158 222.874 218.036 204.427C217.342 204.077 216.548 203.98 215.79 204.154V204.154Z" fill="black"/>
<path d="M235.692 183.433C235.692 183.433 236.739 240.329 235.909 263.54C235.05 287.676 226.615 366.717 226.615 366.717H213.726C213.726 366.717 213.254 289.082 212.678 265.38C212.056 239.537 208.904 183.433 208.904 183.433H235.692Z" fill="#263238"/>
<path opacity="0.7" d="M235.692 183.433C235.692 183.433 236.739 240.329 235.909 263.54C235.05 287.676 226.615 366.717 226.615 366.717H213.726C213.726 366.717 213.254 289.082 212.678 265.38C212.056 239.537 208.904 183.433 208.904 183.433H235.692Z" fill="#2A1615"/>
<path d="M229.097 361.575C229.153 361.575 228.37 366.935 228.37 366.935H212.688L212.264 362.151L229.097 361.575Z" fill="#263238"/>
<path d="M236.729 124.896C238.286 133.114 241.173 156.108 236.654 189.548L192.618 188.868C192.354 183.028 196.996 151.325 192.703 123.179C192.586 122.38 192.629 121.566 192.828 120.784C193.027 120.002 193.38 119.267 193.865 118.622C194.35 117.977 194.959 117.435 195.655 117.027C196.351 116.619 197.121 116.352 197.921 116.244C200.148 115.951 202.743 115.668 205.281 115.545C211.044 115.21 216.822 115.21 222.585 115.545C224.473 115.715 226.36 115.998 228.039 116.291C230.19 116.673 232.174 117.701 233.726 119.238C235.278 120.775 236.326 122.749 236.729 124.896Z" fill="#263238"/>
<path opacity="0.2" d="M237.927 133.105L230.511 134.992C229.945 141.917 234.521 149.758 239.078 155.75C239.131 148.186 238.747 140.625 237.927 133.105V133.105Z" fill="black"/>
<path d="M234.88 121.188C236.135 123.443 237.503 125.905 238.89 128.198C240.277 130.491 241.72 132.85 243.174 135.105C245.952 139.56 249.109 143.768 252.609 147.682C253.034 148.126 253.458 148.626 253.902 148.984L254.222 149.305L254.468 149.532C254.609 149.673 254.855 149.852 255.043 150.013C255.902 150.683 256.93 151.409 258.053 152.098C260.271 153.466 262.639 154.806 265.054 156.099C269.885 158.693 274.886 161.241 279.83 163.817L277.868 169.176C272.288 167.837 266.794 166.167 261.412 164.175C258.704 163.156 256.006 162.071 253.288 160.741C251.851 160.055 250.458 159.28 249.118 158.42C248.74 158.156 248.401 157.948 248.004 157.637L247.429 157.203L246.967 156.816C246.344 156.306 245.759 155.778 245.174 155.25C242.95 153.166 240.869 150.934 238.946 148.569C237.059 146.276 235.304 143.851 233.625 141.502C231.945 139.153 230.379 136.662 228.907 134.161C227.435 131.661 226.001 129.208 224.633 126.5L234.88 121.188Z" fill="#263238"/>
<path d="M203.175 90.3148C205.232 97.9953 206.006 102.581 210.79 105.789C217.913 110.592 226.83 105.081 227.066 96.9385C227.311 89.6166 223.933 78.2846 215.658 76.7372C213.844 76.3885 211.97 76.5095 210.215 77.0887C208.46 77.6678 206.883 78.6859 205.632 80.0463C204.381 81.4066 203.499 83.0641 203.069 84.8613C202.639 86.6585 202.676 88.5357 203.175 90.3148V90.3148Z" fill="#7F3E3B"/>
<path d="M203.175 90.3148C205.232 97.9953 206.006 102.581 210.79 105.789C217.913 110.592 226.83 105.081 227.066 96.9385C227.311 89.6166 223.933 78.2846 215.658 76.7372C213.844 76.3885 211.97 76.5095 210.215 77.0887C208.46 77.6678 206.883 78.6859 205.632 80.0463C204.381 81.4066 203.499 83.0641 203.069 84.8613C202.639 86.6585 202.676 88.5357 203.175 90.3148V90.3148Z" fill="url(#paint12_linear_1139_8971)"/>
<path d="M219.122 90.4092C220.943 87.7201 221.641 83.5779 220.358 81.5965C221.556 82.0965 230.208 82.6815 226.812 76.539C223.415 70.3966 216.64 68.6887 210.724 70.3871L213.555 71.2174C213.555 71.2174 205.459 70.6324 201.534 73.9065C202.732 73.9726 203.77 73.9065 203.77 73.9065C203.77 73.9065 195.108 77.9544 198.826 81.0586C192.797 85.7292 196.911 92.1453 206.95 101.713C208.686 103.289 213.63 102.713 214.725 101.769C214.074 97.599 218.084 91.9283 219.122 90.4092Z" fill="#473132"/>
<path d="M220.16 85.1726C221.962 86.4747 224.17 90.3432 225.208 92.2681C226.246 94.1929 227.321 93.9476 227.831 94.7119C228.34 95.4761 230.482 108.403 228.208 110.469C225.934 112.535 219.084 109.271 218.197 106.893C217.31 104.515 218.943 98.6842 219.386 97.3538C219.844 95.0547 219.704 92.6767 218.98 90.447C218.169 88.192 220.16 85.1726 220.16 85.1726Z" fill="#473132"/>
<path d="M216.092 90.7678C216.339 91.7087 216.772 92.5907 217.365 93.3619C217.958 94.1332 218.7 94.7782 219.545 95.2591C221.631 96.2026 221.885 93.7683 221.48 91.4849C221.112 89.3902 220.536 87.7107 218.838 86.8992C216.884 85.8708 215.441 88.4844 216.092 90.7678Z" fill="#7F3E3B"/>
<path d="M216.092 90.7678C216.339 91.7087 216.772 92.5907 217.365 93.3619C217.958 94.1332 218.7 94.7782 219.545 95.2591C221.631 96.2026 221.885 93.7683 221.48 91.4849C221.112 89.3902 220.536 87.7107 218.838 86.8992C216.884 85.8708 215.441 88.4844 216.092 90.7678Z" fill="url(#paint13_linear_1139_8971)"/>
</g>
<defs>
<linearGradient id="paint0_linear_1139_8971" x1="285.547" y1="160.005" x2="320.541" y2="179.703" gradientUnits="userSpaceOnUse">
<stop stop-color="#FF7154"/>
<stop offset="1" stop-color="#FFAF50"/>
</linearGradient>
<linearGradient id="paint1_linear_1139_8971" x1="294" y1="169.5" x2="290.723" y2="173.953" gradientUnits="userSpaceOnUse">
<stop stop-color="#FF7154"/>
<stop offset="1" stop-color="#FFAF50"/>
</linearGradient>
<linearGradient id="paint2_linear_1139_8971" x1="278.5" y1="165.5" x2="283.239" y2="173.104" gradientUnits="userSpaceOnUse">
<stop stop-color="#FF7154"/>
<stop offset="1" stop-color="#FFAF50"/>
</linearGradient>
<linearGradient id="paint3_linear_1139_8971" x1="343.103" y1="111.078" x2="359.581" y2="115.782" gradientUnits="userSpaceOnUse">
<stop stop-color="#FF7154"/>
<stop offset="1" stop-color="#FFAF50"/>
</linearGradient>
<linearGradient id="paint4_linear_1139_8971" x1="341.65" y1="96.1107" x2="362.652" y2="101.699" gradientUnits="userSpaceOnUse">
<stop stop-color="#FF7154"/>
<stop offset="1" stop-color="#FFAF50"/>
</linearGradient>
<linearGradient id="paint5_linear_1139_8971" x1="367.5" y1="90.9998" x2="364.07" y2="98.5787" gradientUnits="userSpaceOnUse">
<stop stop-color="#FF7154"/>
<stop offset="1" stop-color="#FFAF50"/>
</linearGradient>
<linearGradient id="paint6_linear_1139_8971" x1="371.364" y1="175.209" x2="392.331" y2="177.611" gradientUnits="userSpaceOnUse">
<stop stop-color="#FF7154"/>
<stop offset="1" stop-color="#FFAF50"/>
</linearGradient>
<linearGradient id="paint7_linear_1139_8971" x1="385" y1="195" x2="388.718" y2="188.94" gradientUnits="userSpaceOnUse">
<stop stop-color="#FF7154"/>
<stop offset="1" stop-color="#FFAF50"/>
</linearGradient>
<linearGradient id="paint8_linear_1139_8971" x1="392.5" y1="199" x2="395.351" y2="187.727" gradientUnits="userSpaceOnUse">
<stop stop-color="#FF7154"/>
<stop offset="1" stop-color="#FFAF50"/>
</linearGradient>
<linearGradient id="paint9_linear_1139_8971" x1="185.778" y1="186.042" x2="197.821" y2="191.64" gradientUnits="userSpaceOnUse">
<stop stop-color="#FF7154"/>
<stop offset="1" stop-color="#FFAF50"/>
</linearGradient>
<linearGradient id="paint10_linear_1139_8971" x1="277" y1="174" x2="285.717" y2="171.476" gradientUnits="userSpaceOnUse">
<stop stop-color="#FF7154"/>
<stop offset="1" stop-color="#FFAF50"/>
</linearGradient>
<linearGradient id="paint11_linear_1139_8971" x1="203.762" y1="115.687" x2="219.333" y2="109.358" gradientUnits="userSpaceOnUse">
<stop stop-color="#FF7154"/>
<stop offset="1" stop-color="#FFAF50"/>
</linearGradient>
<linearGradient id="paint12_linear_1139_8971" x1="200.815" y1="100.027" x2="221.438" y2="105.425" gradientUnits="userSpaceOnUse">
<stop stop-color="#FF7154"/>
<stop offset="1" stop-color="#FFAF50"/>
</linearGradient>
<linearGradient id="paint13_linear_1139_8971" x1="216" y1="90.4998" x2="221.738" y2="89.4982" gradientUnits="userSpaceOnUse">
<stop stop-color="#FF7154"/>
<stop offset="1" stop-color="#FFAF50"/>
</linearGradient>
<clipPath id="clip0_1139_8971">
<rect width="267.967" height="317.56" fill="white" transform="translate(156 68)"/>
</clipPath>
</defs>
</svg>
