<svg width="32" height="32" viewBox="0 0 32 32" fill="none" xmlns="http://www.w3.org/2000/svg">
<path d="M5.33341 28C4.60008 28 3.97253 27.7391 3.45075 27.2174C2.92808 26.6947 2.66675 26.0667 2.66675 25.3334V10.6667C2.66675 9.93335 2.92808 9.3058 3.45075 8.78402C3.97253 8.26135 4.60008 8.00002 5.33341 8.00002H10.6667V5.33335C10.6667 4.60002 10.9281 3.97202 11.4507 3.44935C11.9725 2.92758 12.6001 2.66669 13.3334 2.66669H18.6667C19.4001 2.66669 20.0281 2.92758 20.5507 3.44935C21.0725 3.97202 21.3334 4.60002 21.3334 5.33335V8.00002H26.6667C27.4001 8.00002 28.0281 8.26135 28.5507 8.78402C29.0725 9.3058 29.3334 9.93335 29.3334 10.6667V25.3334C29.3334 26.0667 29.0725 26.6947 28.5507 27.2174C28.0281 27.7391 27.4001 28 26.6667 28H5.33341ZM5.33341 25.3334H26.6667V10.6667H5.33341V25.3334ZM13.3334 8.00002H18.6667V5.33335H13.3334V8.00002Z" fill="#7261DF"/>
</svg>
