<svg xmlns="http://www.w3.org/2000/svg" xmlns:xlink="http://www.w3.org/1999/xlink" width="542.14" height="534.523" viewBox="0 0 542.14 534.523">
  <defs>
    <clipPath id="clip-path">
      <path id="path32" d="M335.449-549.243A14.439,14.439,0,0,1,321.01-534.8a14.439,14.439,0,0,1-14.439-14.439,14.438,14.438,0,0,1,14.439-14.439,14.438,14.438,0,0,1,14.439,14.439"/>
    </clipPath>
    <clipPath id="clip-path-2">
      <path id="path46" d="M231.238-154.374a21.972,21.972,0,0,1-21.972,21.97,21.972,21.972,0,0,1-21.972-21.97,21.972,21.972,0,0,1,21.972-21.973,21.972,21.972,0,0,1,21.972,21.973"/>
    </clipPath>
    <clipPath id="clip-path-3">
      <path id="path60" d="M577.14-397.95a16.322,16.322,0,0,1-16.323,16.321A16.322,16.322,0,0,1,544.5-397.95a16.322,16.322,0,0,1,16.321-16.323A16.322,16.322,0,0,1,577.14-397.95"/>
    </clipPath>
    <clipPath id="clip-path-4">
      <path id="path88" d="M83.712-384.139A10.672,10.672,0,0,1,73.04-373.467a10.673,10.673,0,0,1-10.673-10.672A10.673,10.673,0,0,1,73.04-394.811a10.672,10.672,0,0,1,10.672,10.672"/>
    </clipPath>
    <clipPath id="clip-path-5">
      <path id="path112" d="M426.756-388.32c.761.8,1.5,1.667,2.208,2.573-6.083-4.561-15.747-10.5-26.072-11.731,8.909-.193,17.552,2.491,23.864,9.157m-49.919,26.479a46.972,46.972,0,0,0,8.945,15.708,18.232,18.232,0,0,0-1.993.173,53.057,53.057,0,0,1-6.952-15.881m100.724,61.653c-10.805-26.392-23.1-31.332-23.1-31.332s.384-.516,1.005-1.44a26.962,26.962,0,0,1,12.067,10.7.331.331,0,0,0,.571-.333,27.72,27.72,0,0,0-12.264-10.936c.264-.4.557-.86.872-1.365a45.581,45.581,0,0,1,10.979,3.937c.38.187.715-.383.332-.571a46.709,46.709,0,0,0-10.944-3.96c6.687-10.993,21.057-41.279-21.025-44.744,2.619-2.859,6.264-4.659,9.876-5.944.4-.141.227-.78-.176-.636a25.21,25.21,0,0,0-9.9,5.829,33.9,33.9,0,0,1,1.724-5.427c.16-.395-.479-.565-.635-.176a33.177,33.177,0,0,0-1.837,5.949c-.656-.617-2.156-1.983-4.3-3.689a34.166,34.166,0,0,0-3.839-4.731c-7.173-7.4-17.243-9.872-27.293-8.9a.337.337,0,0,0-.3.245,26.822,26.822,0,0,0-17.907,6.472c-7.044,5.885-8.048,14.911-6.251,23.588.108,1.377.359,2.713.5,3.6,1.056,6.5,3.891,12.6,7.357,18.192-4.3.727-12.067,3.321-10.452,12.561,2.211,12.648,12.617,28.591.285,30.251s-18.272,29.9,25.393,56.264,85.184,1.4,67.958-19.485c0,0,22.1-7.535,11.3-33.928"/>
    </clipPath>
    <clipPath id="clip-path-6">
      <path id="path128" d="M399.851-307.247l-3.96-7.039s-11.487,1.136-15.661,6.005-30.652,53.315-30.652,53.315-11.468,5.445-20.908,10.089c2.353,1.468,5.056,4.157,6.6,9.383,8.284-2.993,19.124-7.56,23.04-10.368,0,0,25.564-19.569,28.347-32.788s13.2-28.6,13.2-28.6"/>
    </clipPath>
    <clipPath id="clip-path-7">
      <path id="path142" d="M407.027-331.567s2.087,7.653-6.957,16.7l-4.872,9.044L405.635-294l10.436,3.477,22.263-25.741-9.74-6.263-2.784-28.524-18.783,19.48"/>
    </clipPath>
    <clipPath id="clip-path-8">
      <path id="path154" d="M403.59-319.053s4.132,11.836,25-3.471c0,0,13.008,6.941,16.571,9.117,7.919,4.84,9.6,4.032,11.689,11.684l-18.52,61.3,6.261,24.349-66.814.113,5.928-27.071a22.14,22.14,0,0,0-6.863-18.021c-9.549-9.237,3.256-24.521,13.327-52.351.832-2.3,13.417-5.647,13.417-5.647"/>
    </clipPath>
    <clipPath id="clip-path-9">
      <path id="path172" d="M410.85-384.235s-19.357,14.519-16.808,36.853c1.165,10.207,3.473,13.4,7.569,16.379,4.839,3.52,20.967,1.328,25.177-6.8l2.224-6.592s3.948,3.535,7.927-1.731,3.132-13.629-2.6-9.691l3.56-10.548-3.485-9.252-23.56-8.623"/>
    </clipPath>
    <clipPath id="clip-path-10">
      <path id="path210" d="M209.227-318.669l2.58,75.352a8.679,8.679,0,0,0,8.673,8.38h108.36a8.679,8.679,0,0,0,8.673-8.976l-2.581-75.35a8.678,8.678,0,0,0-8.673-8.38H217.9a8.677,8.677,0,0,0-8.672,8.975"/>
    </clipPath>
    <clipPath id="clip-path-11">
      <path id="path226" d="M277.247-441.316a91.546,91.546,0,0,1-96.484,86.328,91.547,91.547,0,0,1-86.329-96.482A91.545,91.545,0,0,1,190.918-537.8a91.546,91.546,0,0,1,86.329,96.482"/>
    </clipPath>
    <clipPath id="clip-path-13">
      <path id="path246" d="M174.2-459.83l-.9,21.2,19.6,13a1.279,1.279,0,0,0,1.952-.837l3.231-17.235-19.108-23.288L174.2-459.83"/>
    </clipPath>
    <clipPath id="clip-path-15">
      <path id="path290" d="M391.828-538.037H555.6a5.18,5.18,0,0,1,5.181,5.18v41.319a5.182,5.182,0,0,1-2.28,4.292l-26.192,17.7a1.743,1.743,0,0,1-2.644-1.949l5.239-17.287H391.828a5.181,5.181,0,0,1-5.18-5.181v-38.889a5.18,5.18,0,0,1,5.18-5.18"/>
    </clipPath>
    <clipPath id="clip-path-16">
      <path id="path312" d="M504.955-480.345H326.77a5.636,5.636,0,0,0-5.636,5.636v44.953a5.639,5.639,0,0,0,2.48,4.671l28.5,19.252a1.9,1.9,0,0,0,2.877-2.121l-5.7-18.808H504.955a5.635,5.635,0,0,0,5.635-5.636V-474.71a5.635,5.635,0,0,0-5.635-5.636"/>
    </clipPath>
    <clipPath id="clip-path-17">
      <path id="path328" d="M579.651-165.674a75.96,75.96,0,0,1-75.958,75.96,75.961,75.961,0,0,1-75.961-75.96,75.961,75.961,0,0,1,75.961-75.961,75.96,75.96,0,0,1,75.958,75.961"/>
    </clipPath>
    <clipPath id="clip-path-19">
      <path id="path346" d="M510.135-157.536c-5.765,13.225-15.94,24.076-23.739,13.563-5.815-7.835-1.264-18.5,1.428-23.421a102.629,102.629,0,0,1,16.4-3.707h7.736s4.584,0,10.308.365a27.666,27.666,0,0,0-12.135,13.2"/>
    </clipPath>
    <clipPath id="clip-path-22">
      <path id="path374" d="M508.777-227.393s-5.425-7.8-18.651-1.695-29.841,35.945-9.157,62.395c0,0,4.409-6.443,20.348-8.137s7.46-52.563,7.46-52.563"/>
    </clipPath>
    <clipPath id="clip-path-25">
      <path id="path402" d="M513.556-190.712l.829,19.617-18.136,12.027a1.184,1.184,0,0,1-1.807-.776l-2.989-15.949,17.683-21.549,4.42,6.631"/>
    </clipPath>
    <clipPath id="clip-path-28">
      <path id="path428" d="M476.563-192.125c.425-5.971,3.835-17.257,3.852-16.884.152-.728,1.8-8.305,4.96-9.884,3.315-1.657,17.129,2.763,17.129,4.42,0,1.319.7,10.657,5.428,14.716a7.5,7.5,0,0,0,4.519,1.861,9.534,9.534,0,0,1,7.195,4.075,95.493,95.493,0,0,1-9.957.347c-4.3,24.408-20.312,21.685-24.988,21.017-4.747-.679-8.82-10.1-8.137-19.668"/>
    </clipPath>
  </defs>
  <g id="Group_4927" data-name="Group 4927" transform="translate(-442.368 -10054.527)">
    <g id="g10" transform="translate(421 10632.665)">
      <g id="g12" transform="translate(-41 33)">
        <path id="path16" d="M337.959-548.8a202.877,202.877,0,0,0-144.4,59.812,202.87,202.87,0,0,0-59.811,144.4,202.866,202.866,0,0,0,59.811,144.4,202.873,202.873,0,0,0,144.4,59.813,202.868,202.868,0,0,0,144.4-59.813,202.866,202.866,0,0,0,59.811-144.4,202.87,202.87,0,0,0-59.811-144.4,202.872,202.872,0,0,0-144.4-59.812m0,408.988a203.44,203.44,0,0,1-144.8-59.979,203.44,203.44,0,0,1-59.979-144.8,203.435,203.435,0,0,1,59.979-144.8,203.436,203.436,0,0,1,144.8-59.98,203.441,203.441,0,0,1,144.8,59.98,203.44,203.44,0,0,1,59.979,144.8,203.446,203.446,0,0,1-59.979,144.8,203.446,203.446,0,0,1-144.8,59.979" fill="#b1c2e8"/>
        <path id="path18" d="M337.959-573.108a227.091,227.091,0,0,0-88.949,17.959,227.75,227.75,0,0,0-72.637,48.973A227.76,227.76,0,0,0,127.4-433.539a227.1,227.1,0,0,0-17.957,88.949A227.092,227.092,0,0,0,127.4-255.641,227.751,227.751,0,0,0,176.373-183a227.771,227.771,0,0,0,72.637,48.973,227.1,227.1,0,0,0,88.949,17.957,227.1,227.1,0,0,0,88.95-17.957A227.766,227.766,0,0,0,499.545-183a227.745,227.745,0,0,0,48.975-72.638,227.086,227.086,0,0,0,17.957-88.949,227.091,227.091,0,0,0-17.957-88.949,227.754,227.754,0,0,0-48.975-72.637,227.745,227.745,0,0,0-72.636-48.973,227.1,227.1,0,0,0-88.95-17.959m0,457.678a227.731,227.731,0,0,1-89.2-18.008A228.394,228.394,0,0,1,175.92-182.55a228.381,228.381,0,0,1-49.11-72.84,227.718,227.718,0,0,1-18.009-89.2,227.716,227.716,0,0,1,18.009-89.2,228.387,228.387,0,0,1,49.11-72.841,228.389,228.389,0,0,1,72.841-49.111,227.728,227.728,0,0,1,89.2-18.009,227.731,227.731,0,0,1,89.2,18.009A228.37,228.37,0,0,1,500-506.629a228.375,228.375,0,0,1,49.111,72.841,227.7,227.7,0,0,1,18.009,89.2,227.706,227.706,0,0,1-18.009,89.2A228.369,228.369,0,0,1,500-182.55a228.373,228.373,0,0,1-72.84,49.112,227.733,227.733,0,0,1-89.2,18.008" fill="#b1c2e8"/>
        <path id="path20" d="M337.959-506.049a160.471,160.471,0,0,0-62.848,12.688,160.954,160.954,0,0,0-51.321,34.6,160.932,160.932,0,0,0-34.6,51.321A160.466,160.466,0,0,0,176.5-344.59a160.461,160.461,0,0,0,12.688,62.848,160.938,160.938,0,0,0,34.6,51.323,160.953,160.953,0,0,0,51.321,34.6,160.469,160.469,0,0,0,62.848,12.687,160.459,160.459,0,0,0,62.848-12.687,160.944,160.944,0,0,0,51.323-34.6,160.934,160.934,0,0,0,34.6-51.323,160.437,160.437,0,0,0,12.688-62.848,160.442,160.442,0,0,0-12.688-62.848,160.928,160.928,0,0,0-34.6-51.321,160.944,160.944,0,0,0-51.323-34.6,160.461,160.461,0,0,0-62.848-12.688m0,323.373A160.907,160.907,0,0,1,274.935-195.4a161.371,161.371,0,0,1-51.465-34.7,161.392,161.392,0,0,1-34.7-51.467,160.88,160.88,0,0,1-12.725-63.024,160.885,160.885,0,0,1,12.725-63.024,161.372,161.372,0,0,1,34.7-51.465,161.4,161.4,0,0,1,51.465-34.7A160.908,160.908,0,0,1,337.959-506.5a160.9,160.9,0,0,1,63.024,12.724,161.418,161.418,0,0,1,51.467,34.7,161.372,161.372,0,0,1,34.7,51.465,160.908,160.908,0,0,1,12.724,63.024,160.9,160.9,0,0,1-12.724,63.024,161.393,161.393,0,0,1-34.7,51.467,161.392,161.392,0,0,1-51.467,34.7,160.9,160.9,0,0,1-63.024,12.724" fill="#b1c2e8"/>
        <path id="path22" d="M337.959-86.625A256.351,256.351,0,0,1,237.547-106.9a257.121,257.121,0,0,1-82-55.284,257.1,257.1,0,0,1-55.284-82A256.339,256.339,0,0,1,80-344.59a261.14,261.14,0,0,1,2.221-34.1,10.626,10.626,0,0,0,1.059-2.419,260.04,260.04,0,0,0-2.558,36.516,255.627,255.627,0,0,0,20.216,100.13,256.37,256.37,0,0,0,55.129,81.768,256.385,256.385,0,0,0,81.768,55.129,255.619,255.619,0,0,0,100.13,20.215,255.619,255.619,0,0,0,100.13-20.215q5.688-2.406,11.231-5.067c.18.182.355.361.536.543q-5.666,2.727-11.485,5.189A256.342,256.342,0,0,1,337.959-86.625M561.233-215.262q-.248-.288-.5-.575a257.266,257.266,0,0,0,14.253-28.623A255.614,255.614,0,0,0,595.2-344.59a255.618,255.618,0,0,0-20.215-100.13,256.514,256.514,0,0,0-20.928-39.523l.6-.4a257.254,257.254,0,0,1,21,39.645A256.346,256.346,0,0,1,595.924-344.59a256.342,256.342,0,0,1-20.272,100.412,257.954,257.954,0,0,1-14.419,28.916M83.712-384.064c0-.025,0-.049,0-.075a10.7,10.7,0,0,0-.311-2.568,254.952,254.952,0,0,1,11.941-45.749c.075.489.155.984.238,1.472a254.217,254.217,0,0,0-11.868,46.92m80.649-151.345a256.7,256.7,0,0,1,73.186-46.872,256.351,256.351,0,0,1,100.412-20.272,256.342,256.342,0,0,1,100.412,20.272,256.647,256.647,0,0,1,70.258,44.244H507.54a255.914,255.914,0,0,0-69.451-43.58,255.62,255.62,0,0,0-100.13-20.215,255.62,255.62,0,0,0-100.13,20.215A255.981,255.981,0,0,0,165.8-535.745q-.724.162-1.444.336" fill="#dce2f4"/>
        <path id="path26" d="M337.959-610.392A264.133,264.133,0,0,0,234.5-589.5a264.925,264.925,0,0,0-84.489,56.964,264.922,264.922,0,0,0-56.964,84.488A264.153,264.153,0,0,0,72.157-344.59,264.144,264.144,0,0,0,93.045-241.127a264.892,264.892,0,0,0,56.964,84.488A264.881,264.881,0,0,0,234.5-99.676,264.108,264.108,0,0,0,337.959-78.788,264.115,264.115,0,0,0,441.422-99.676a264.882,264.882,0,0,0,84.489-56.964,264.924,264.924,0,0,0,56.963-84.488A264.118,264.118,0,0,0,603.761-344.59a264.128,264.128,0,0,0-20.888-103.462,264.952,264.952,0,0,0-56.963-84.488A264.925,264.925,0,0,0,441.422-589.5a264.14,264.14,0,0,0-103.462-20.888m0,532.351A264.862,264.862,0,0,1,234.207-98.989a265.682,265.682,0,0,1-84.726-57.122,265.655,265.655,0,0,1-57.122-84.725A264.876,264.876,0,0,1,71.412-344.59,264.875,264.875,0,0,1,92.359-448.342a265.669,265.669,0,0,1,57.122-84.725,265.671,265.671,0,0,1,84.726-57.124,264.883,264.883,0,0,1,103.752-20.947,264.89,264.89,0,0,1,103.753,20.947,265.65,265.65,0,0,1,84.725,57.124,265.646,265.646,0,0,1,57.122,84.725A264.866,264.866,0,0,1,604.508-344.59,264.868,264.868,0,0,1,583.56-240.837a265.631,265.631,0,0,1-57.122,84.725,265.661,265.661,0,0,1-84.725,57.122A264.868,264.868,0,0,1,337.959-78.041" fill="#b1c2e8"/>
        <g id="g28">
          <g id="g30" clip-path="url(#clip-path)">
            <path id="path36" d="M321.01-534.8a14.445,14.445,0,0,1-14.171-11.652,206.73,206.73,0,0,1,28.6-2.327A14.439,14.439,0,0,1,321.01-534.8M306.741-547.02a14.545,14.545,0,0,1-.169-2.223,14.438,14.438,0,0,1,14.439-14.439,14.439,14.439,0,0,1,14.439,14.327,207.405,207.405,0,0,0-28.708,2.335" fill="#bfccec"/>
            <path id="path38" d="M306.839-546.456c-.036-.188-.069-.375-.1-.564a207.405,207.405,0,0,1,28.708-2.335v.112c0,.155,0,.307-.008.46a206.739,206.739,0,0,0-28.6,2.327" fill="#b1c2e8"/>
            <path id="path40" d="M332.355-535.749c-.172-3.7-2.408-6.1-3.955-5.931a30.871,30.871,0,0,1-5.156-.344,4.245,4.245,0,0,1-.229-2.081c1.673-1.081,2.915-3.479,3.211-6.377a1.562,1.562,0,0,0,.959-1.144c.231-.759.059-1.481-.383-1.616a.613.613,0,0,0-.5.092c.024-3.972-.109-7.008-5.288-7.008-4.893,0-5.256,2.993-5.279,6.927a.6.6,0,0,0-.451-.153c-.456.055-.751.737-.656,1.525s.543,1.38,1,1.325l.164-.049c.267,2.828,1.433,5.193,3.025,6.345a4.393,4.393,0,0,1-.215,2.215,30.878,30.878,0,0,1-5.157.344c-1.547-.171-3.78,2.235-3.952,5.931-.164,3.511,10.375,5.625,11.429,5.828,1.055-.2,11.595-2.317,11.432-5.828" fill="#7199d7"/>
          </g>
        </g>
        <g id="g42">
          <g id="g44" clip-path="url(#clip-path-2)">
            <path id="path50" d="M209.266-132.4a21.972,21.972,0,0,1-21.972-21.97,21.871,21.871,0,0,1,4.677-13.553,227.667,227.667,0,0,0,36.292,24.6,21.966,21.966,0,0,1-19,10.924m19.312-11.482a226.862,226.862,0,0,1-36.2-24.54,21.925,21.925,0,0,1,16.892-7.921,21.972,21.972,0,0,1,21.972,21.973,21.881,21.881,0,0,1-2.66,10.488" fill="#bfccec"/>
            <path id="path52" d="M228.263-143.328a227.667,227.667,0,0,1-36.292-24.6q.2-.252.4-.5a226.862,226.862,0,0,0,36.2,24.54c-.1.188-.207.373-.315.559" fill="#b1c2e8"/>
            <path id="path54" d="M226.53-133.842c-.261-5.624-3.663-9.285-6.016-9.023a47.023,47.023,0,0,1-7.848-.524,6.474,6.474,0,0,1-.348-3.167c2.545-1.647,4.436-5.3,4.887-9.707a2.377,2.377,0,0,0,1.459-1.74c.349-1.155.088-2.255-.581-2.459a.944.944,0,0,0-.763.139c.036-6.044-.165-10.663-8.045-10.663-7.448,0-8,4.556-8.035,10.539a.912.912,0,0,0-.684-.233c-.7.084-1.143,1.123-1,2.321s.825,2.1,1.52,2.017l.251-.075c.405,4.3,2.18,7.9,4.6,9.656a6.7,6.7,0,0,1-.327,3.371,47.025,47.025,0,0,1-7.848.524c-2.353-.263-5.755,3.4-6.016,9.023-.248,5.344,15.789,8.561,17.395,8.871,1.605-.309,17.643-3.527,17.395-8.871" fill="#7199d7"/>
          </g>
        </g>
        <g id="g56">
          <g id="g58" clip-path="url(#clip-path-3)">
            <path id="path64" d="M560.817-381.628A16.322,16.322,0,0,1,544.5-397.95a16.331,16.331,0,0,1,11.411-15.571,225.831,225.831,0,0,1,7.564,31.677,16.427,16.427,0,0,1-2.653.215m3.284-.329a226.494,226.494,0,0,0-7.58-31.743,16.307,16.307,0,0,1,4.3-.572A16.322,16.322,0,0,1,577.14-397.95,16.328,16.328,0,0,1,564.1-381.958" fill="#bfccec"/>
            <path id="path66" d="M563.471-381.843a225.832,225.832,0,0,0-7.564-31.677q.3-.1.615-.18a226.5,226.5,0,0,1,7.58,31.743c-.209.043-.419.081-.631.115" fill="#b1c2e8"/>
            <path id="path68" d="M573.643-382.7c-.195-4.179-2.721-6.9-4.469-6.7a34.9,34.9,0,0,1-5.829-.388,4.813,4.813,0,0,1-.259-2.353c1.891-1.224,3.295-3.935,3.629-7.211a1.771,1.771,0,0,0,1.085-1.292c.259-.857.064-1.676-.435-1.827a.693.693,0,0,0-.564.1c.025-4.491-.124-7.92-5.977-7.92-5.532,0-5.943,3.384-5.968,7.828a.681.681,0,0,0-.509-.173c-.516.063-.848.835-.741,1.724s.612,1.561,1.129,1.5l.185-.056c.3,3.2,1.62,5.872,3.42,7.175a4.955,4.955,0,0,1-.243,2.5,34.9,34.9,0,0,1-5.829.388c-1.748-.195-4.275,2.525-4.468,6.7-.185,3.969,11.728,6.359,12.921,6.588,1.192-.229,13.105-2.619,12.921-6.588" fill="#7199d7"/>
          </g>
        </g>
        <path id="path70" d="M131.423-261.723a6.906,6.906,0,0,1-6.906,6.905,6.906,6.906,0,0,1-6.906-6.905,6.907,6.907,0,0,1,6.906-6.907,6.907,6.907,0,0,1,6.906,6.907" fill="#7199d7"/>
        <path id="path72" d="M574-327.639a6.9,6.9,0,0,1-6.905,6.905,6.906,6.906,0,0,1-6.905-6.905,6.906,6.906,0,0,1,6.905-6.907A6.905,6.905,0,0,1,574-327.639" fill="#7199d7"/>
        <path id="path74" d="M404.732-561.619a4.31,4.31,0,0,1-6.059.677A4.312,4.312,0,0,1,398-567a4.313,4.313,0,0,1,6.059-.676,4.311,4.311,0,0,1,.677,6.059" fill="#7199d7"/>
        <path id="path76" d="M382.386-145.061a4.311,4.311,0,0,1-3.52,4.979,4.309,4.309,0,0,1-4.977-3.519,4.31,4.31,0,0,1,3.519-4.979,4.312,4.312,0,0,1,4.979,3.519" fill="#7199d7"/>
        <path id="path78" d="M305.8-81.656a4.311,4.311,0,0,1-3.52,4.979A4.309,4.309,0,0,1,297.3-80.2a4.31,4.31,0,0,1,3.519-4.979,4.31,4.31,0,0,1,4.979,3.518" fill="#7199d7"/>
        <path id="path80" d="M603.989-295.726a4.312,4.312,0,0,1-3.519,4.979,4.313,4.313,0,0,1-4.98-3.519,4.312,4.312,0,0,1,3.52-4.979,4.311,4.311,0,0,1,4.979,3.519" fill="#7199d7"/>
        <path id="path82" d="M168.944-549.972a4.312,4.312,0,0,1-3.519,4.979,4.312,4.312,0,0,1-4.979-3.52,4.311,4.311,0,0,1,3.519-4.979,4.312,4.312,0,0,1,4.979,3.52" fill="#7199d7"/>
        <g id="g84">
          <g id="g86" clip-path="url(#clip-path-4)">
            <path id="path92" d="M72.948-373.467a10.674,10.674,0,0,1-10.58-10.672A10.673,10.673,0,0,1,73.04-394.811a10.692,10.692,0,0,1,3,.427q-1.958,10.37-3.09,20.917m.752-.02q1.121-10.412,3.052-20.66a10.69,10.69,0,0,1,6.649,7.44q-.656,4-1.185,8.02a10.671,10.671,0,0,1-8.516,5.2m9.575-7.619q.209-1.48.437-2.959a10.691,10.691,0,0,1-.437,2.959" fill="#bfccec"/>
            <path id="path94" d="M82.216-378.687q.53-4.022,1.185-8.02a10.7,10.7,0,0,1,.311,2.568c0,.025,0,.049,0,.075q-.227,1.476-.437,2.959a10.626,10.626,0,0,1-1.059,2.419" fill="#b9c7ea"/>
            <path id="path96" d="M73.04-373.467h-.093q1.131-10.54,3.09-20.917.363.106.714.237Q74.821-383.9,73.7-373.487q-.327.02-.659.02" fill="#b1c2e8"/>
            <path id="path98" d="M81.425-374.166c-.127-2.732-1.779-4.511-2.922-4.384a22.75,22.75,0,0,1-3.811-.253,3.14,3.14,0,0,1-.169-1.539,6.362,6.362,0,0,0,2.373-4.713,1.158,1.158,0,0,0,.709-.845c.169-.561.043-1.1-.283-1.195a.453.453,0,0,0-.37.068c.018-2.937-.08-5.18-3.907-5.18-3.617,0-3.885,2.213-3.9,5.12l-.332-.113c-.338.04-.556.544-.485,1.127s.4,1.02.738.98l.122-.037a6.549,6.549,0,0,0,2.235,4.691,3.248,3.248,0,0,1-.158,1.637,22.756,22.756,0,0,1-3.812.253c-1.143-.127-2.8,1.652-2.922,4.384-.12,2.595,7.669,4.157,8.448,4.308.779-.151,8.57-1.713,8.449-4.308" fill="#7199d7"/>
          </g>
        </g>
        <path id="path100" d="M453.1-222.339h-8.968q4.274-3.72,8.315-7.76a161.392,161.392,0,0,0,34.7-51.467,160.9,160.9,0,0,0,12.724-63.024,160.908,160.908,0,0,0-12.724-63.024,161.913,161.913,0,0,0-9.633-19.149h27.44a5.562,5.562,0,0,0,.579-.029,185.763,185.763,0,0,1,21.909,87.813,185.741,185.741,0,0,1-27.425,97.432A75.662,75.662,0,0,0,453.1-222.339m-9.659,0h-.46L439.6-235.49a49.179,49.179,0,0,0,14.492-2.907h0a30.8,30.8,0,0,0,11.289-7,163.2,163.2,0,0,1-13.255,14.981q-4.214,4.212-8.685,8.08m-64.268,0h-146.7q-4.47-3.866-8.685-8.08-2.256-2.258-4.413-4.587a8.875,8.875,0,0,0,1.1.069h108.36a8.639,8.639,0,0,0,5.848-2.267q.31.806.577,1.709c8.284-2.993,19.124-7.56,23.04-10.368a164.666,164.666,0,0,0,15.413-13.709h0q1.15-1.172,2.277-2.389.39.462.849.905a22.14,22.14,0,0,1,6.863,18.021l-4.532,20.695m-147.392,0H195.141A185.833,185.833,0,0,1,154.2-338.979a188.389,188.389,0,0,1,1.176-21.059c.529.185,1.067.369,1.6.547a91.467,91.467,0,0,0,19.415,4.157q-.348,5.342-.348,10.744a160.88,160.88,0,0,0,12.725,63.024,161.009,161.009,0,0,0,23.049,38.513,8.683,8.683,0,0,0,6.825,7.921q2.352,2.56,4.824,5.032,4.038,4.038,8.315,7.76m-19.993-21.472a160.6,160.6,0,0,1-22.6-37.931A160.461,160.461,0,0,1,176.5-344.59q0-5.378.345-10.7c1.3.127,2.605.228,3.919.3q2.592.144,5.159.144a91,91,0,0,0,36.475-7.6,91.55,91.55,0,0,0,54.851-78.874q.142-2.588.143-5.149a91.036,91.036,0,0,0-10.761-43.017q4.174-2.056,8.483-3.879a160.472,160.472,0,0,1,62.848-12.688,160.9,160.9,0,0,1,48.689,7.464v4.617a5.181,5.181,0,0,0,5.18,5.181h18.859a160.346,160.346,0,0,1,14.74,8.441H326.77a5.636,5.636,0,0,0-5.636,5.636v44.953a5.64,5.64,0,0,0,2.48,4.671l28.5,19.252a1.875,1.875,0,0,0,1.059.333,1.9,1.9,0,0,0,1.819-2.455l-5.7-18.808h127.7a161.568,161.568,0,0,1,9.743,19.325,160.442,160.442,0,0,1,12.688,62.848,160.437,160.437,0,0,1-12.688,62.848,160.621,160.621,0,0,1-18.316,32.331c2.877-5.173,2.541-11.163-2.149-16.849,0,0,22.1-7.535,11.3-33.928s-23.1-31.332-23.1-31.332.384-.516,1.005-1.44a26.963,26.963,0,0,1,12.067,10.7.3.3,0,0,0,.267.156.328.328,0,0,0,.3-.489,27.719,27.719,0,0,0-12.264-10.936c.264-.4.557-.86.872-1.365a45.583,45.583,0,0,1,10.979,3.937.344.344,0,0,0,.152.037c.307,0,.509-.445.18-.608a46.709,46.709,0,0,0-10.944-3.96c6.687-10.993,21.057-41.279-21.025-44.744,2.619-2.859,6.264-4.659,9.876-5.944a.34.34,0,0,0-.063-.657.338.338,0,0,0-.113.021,25.21,25.21,0,0,0-9.9,5.829,33.892,33.892,0,0,1,1.724-5.427c.1-.239-.1-.4-.3-.4a.345.345,0,0,0-.331.22,33.179,33.179,0,0,0-1.837,5.949c-.656-.617-2.156-1.983-4.3-3.689a34.168,34.168,0,0,0-3.839-4.731c-6.188-6.38-14.532-9.1-23.159-9.1-1.373,0-2.755.069-4.135.2a.337.337,0,0,0-.3.245h-.253a26.81,26.81,0,0,0-17.653,6.473c-7.044,5.885-8.048,14.911-6.251,23.588.108,1.377.359,2.713.5,3.6,1.056,6.5,3.891,12.6,7.357,18.192-4.3.727-12.067,3.321-10.452,12.561,2.211,12.648,12.617,28.591.285,30.251-5.468.735-9.679,6.7-8.867,15.4h0a27.327,27.327,0,0,0,.937,4.912c-7.735,13.721-15.407,27.757-15.407,27.757s-5.628,2.672-12.241,5.868l-2.4-70.165a8.678,8.678,0,0,0-8.673-8.38H217.9a8.677,8.677,0,0,0-8.672,8.975l2.564,74.857M462.658-480.345h-36.4a160.8,160.8,0,0,0-14.573-8.441h40.443q5.418,4.032,10.529,8.441m-196.243-9.536a91.957,91.957,0,0,0-10.443-15.356A185.858,185.858,0,0,1,340.823-525.6a187.068,187.068,0,0,1,45.825,5.668v20.871a161.319,161.319,0,0,0-48.689-7.443,160.908,160.908,0,0,0-63.024,12.724q-4.328,1.832-8.521,3.9" fill="#bfccec"/>
        <path id="path102" d="M444.135-222.339h-.691q4.47-3.866,8.685-8.08A163.193,163.193,0,0,0,465.384-245.4a19.012,19.012,0,0,0,3.031-4.011,160.617,160.617,0,0,0,18.316-32.331,160.437,160.437,0,0,0,12.688-62.848,160.442,160.442,0,0,0-12.688-62.848,161.574,161.574,0,0,0-9.743-19.325h.527a161.908,161.908,0,0,1,9.633,19.149,160.908,160.908,0,0,1,12.724,63.024,160.9,160.9,0,0,1-12.724,63.024,161.393,161.393,0,0,1-34.7,51.467q-4.038,4.038-8.315,7.76m-211.659,0h-.691q-4.274-3.72-8.315-7.76-2.47-2.472-4.824-5.032.36.078.731.125,2.158,2.33,4.413,4.587,4.212,4.212,8.685,8.08m-20.655-20.713a161.01,161.01,0,0,1-23.049-38.513,160.88,160.88,0,0,1-12.725-63.024q0-5.4.348-10.744l.451.045q-.344,5.322-.345,10.7a160.461,160.461,0,0,0,12.688,62.848,160.594,160.594,0,0,0,22.6,37.931l.016.495c0,.088.008.176.013.264M426.259-480.345h-.832a160.357,160.357,0,0,0-14.74-8.441h1a160.8,160.8,0,0,1,14.573,8.441m-159.63-9.137-.215-.4q4.192-2.066,8.521-3.9A160.908,160.908,0,0,1,337.959-506.5a161.319,161.319,0,0,1,48.689,7.443v.475a160.9,160.9,0,0,0-48.689-7.464,160.471,160.471,0,0,0-62.848,12.688q-4.308,1.822-8.483,3.879" fill="#b1c2e8"/>
        <path id="path104" d="M383.79-345.96a53.057,53.057,0,0,1-6.952-15.881,46.972,46.972,0,0,0,8.945,15.708,18.242,18.242,0,0,0-1.993.173m45.175-39.787c-6.083-4.561-15.747-10.5-26.072-11.731q.444-.01.888-.011c8.593,0,16.873,2.723,22.976,9.168.761.8,1.5,1.667,2.208,2.573" fill="#bfccec"/>
        <path id="path106" d="M426.756-388.32c.761.8,1.5,1.667,2.208,2.573-6.083-4.561-15.747-10.5-26.072-11.731,8.909-.193,17.552,2.491,23.864,9.157m-49.919,26.479a46.972,46.972,0,0,0,8.945,15.708,18.232,18.232,0,0,0-1.993.173,53.057,53.057,0,0,1-6.952-15.881m100.724,61.653c-10.805-26.392-23.1-31.332-23.1-31.332s.384-.516,1.005-1.44a26.962,26.962,0,0,1,12.067,10.7.331.331,0,0,0,.571-.333,27.72,27.72,0,0,0-12.264-10.936c.264-.4.557-.86.872-1.365a45.581,45.581,0,0,1,10.979,3.937c.38.187.715-.383.332-.571a46.709,46.709,0,0,0-10.944-3.96c6.687-10.993,21.057-41.279-21.025-44.744,2.619-2.859,6.264-4.659,9.876-5.944.4-.141.227-.78-.176-.636a25.21,25.21,0,0,0-9.9,5.829,33.9,33.9,0,0,1,1.724-5.427c.16-.395-.479-.565-.635-.176a33.177,33.177,0,0,0-1.837,5.949c-.656-.617-2.156-1.983-4.3-3.689a34.166,34.166,0,0,0-3.839-4.731c-7.173-7.4-17.243-9.872-27.293-8.9a.337.337,0,0,0-.3.245,26.822,26.822,0,0,0-17.907,6.472c-7.044,5.885-8.048,14.911-6.251,23.588.108,1.377.359,2.713.5,3.6,1.056,6.5,3.891,12.6,7.357,18.192-4.3.727-12.067,3.321-10.452,12.561,2.211,12.648,12.617,28.591.285,30.251s-18.272,29.9,25.393,56.264,85.184,1.4,67.958-19.485c0,0,22.1-7.535,11.3-33.928" fill="#416bbd"/>
        <g id="g108">
          <g id="g110" clip-path="url(#clip-path-5)">
            <path id="path116" d="M439.6-235.49l-1.269-4.936,8.441-27.94h0l10.079-33.356a29.307,29.307,0,0,0-.965-3l2.915,2.312s5.541,42.395-4.708,64.01A49.18,49.18,0,0,1,439.6-235.49m-74.619-47.233a27.332,27.332,0,0,1-.937-4.912L379.4-307.174c-2.609,3.756-8.531,14.012-14.416,24.451m79.3-31.205c-4.44-2.591-15.692-8.595-15.692-8.595h0l-1.561-16,1.98-5.868a5.143,5.143,0,0,0,3.153,1.161,4.466,4.466,0,0,0,1.171-.157,10.15,10.15,0,0,0-3.384,3.165c-1.067,2.18,1.133,15.817,1.133,15.817l13.2,10.476m-44.933-3.877,2.259-9.677s-19.352-9.163-3.737-40.656h0a36.8,36.8,0,0,0-3.832,20.757c1.165,10.207,3.473,13.4,7.569,16.379a11.005,11.005,0,0,0,5.624,1.581,18.452,18.452,0,0,1-3.644,10.372,0,0,0,0,1,0,0s-1.881.5-4.237,1.247m-1.479-50.333s.007-.012.017-.035c-.005.012-.011.023-.017.035m.017-.035a.049.049,0,0,1,0-.008l0,.008m0-.008h0m0,0s0,0,0,0a0,0,0,0,0,0,0m0,0a0,0,0,0,0,0,0s0,0,0,0m0,0,0,0,0,0m0,0h0m0,0c.569-1.147,1.095-2.205,1.581-3.189h0c-.823,1.66-1.448,2.919-1.583,3.189m2.533-5.108h0l4.38-8.835s-2.4,4.845-4.38,8.835" fill="#375fb5"/>
            <path id="path118" d="M399.658-371.38l-.175,0,.951-1.919.3.053.12-.008c-.4.6-.8,1.229-1.195,1.876m-.176,0c-6.093-.111-8.429-3.613-8.429-3.613l9.381,1.695q-.448.9-.952,1.919" fill="#365bb2"/>
            <path id="path120" d="M399.483-371.383h0q.5-1.014.952-1.919h0l-.951,1.919" fill="#3154ad"/>
          </g>
        </g>
        <path id="path122" d="M399.851-307.247l-3.96-7.039s-11.487,1.136-15.661,6.005-30.652,53.315-30.652,53.315-11.468,5.445-20.908,10.089c2.353,1.468,5.056,4.157,6.6,9.383,8.284-2.993,19.124-7.56,23.04-10.368,0,0,25.564-19.569,28.347-32.788s13.2-28.6,13.2-28.6" fill="#f3a273"/>
        <g id="g124">
          <g id="g126" clip-path="url(#clip-path-6)">
            <path id="path132" d="M373.719-259.571c-2.052-2.748-5.556-10.572,4.381-25.4-4.495,10.356-6.637,17.652-2.1,23.012q-1.124,1.216-2.277,2.389" fill="#ed9060"/>
          </g>
        </g>
        <path id="path134" d="M328.67-244.877c-11.793,5.8-25.229,12.412-26,12.8-1.391.7-12.524-2.783-13.915-2.087s-9.044,4.869-11.828,5.567,6.957,2.087,11.132,0,5.565,2.087,9.045,2.783,5.565,1.391,7.652,0c0,0,16.053-4.453,30.512-9.679-1.54-5.225-4.243-7.915-6.6-9.383" fill="#f3a273"/>
        <path id="path136" d="M407.027-331.567s2.087,7.653-6.957,16.7l-4.872,9.044L405.635-294l10.436,3.477,22.263-25.741-9.74-6.263-2.784-28.524-18.783,19.48" fill="#f9a87b"/>
        <g id="g138">
          <g id="g140" clip-path="url(#clip-path-7)">
            <path id="path146" d="M406.96-326.719a14.68,14.68,0,0,0,.275-2.7c.433.027.879.039,1.333.039,4.961,0,11.045-1.551,15.025-4.684-3.9,5.5-13.121,6.979-16.633,7.348" fill="#eb8d5f"/>
          </g>
        </g>
        <path id="path148" d="M403.59-319.053s4.132,11.836,25-3.471c0,0,13.008,6.941,16.571,9.117,7.919,4.84,9.6,4.032,11.689,11.684l-18.52,61.3,6.261,24.349-66.814.113,5.928-27.071a22.14,22.14,0,0,0-6.863-18.021c-9.549-9.237,3.256-24.521,13.327-52.351.832-2.3,13.417-5.647,13.417-5.647" fill="#ef3176"/>
        <g id="g150">
          <g id="g152" clip-path="url(#clip-path-8)">
            <path id="path158" d="M388.5-222.869c-3.948,0-7.144-.115-9.159-.212l2.421-11.057c17.443-1.905,45.367-11.517,45.367-11.517-1.321-29.476,10.559-44.875,10.559-44.875a118.458,118.458,0,0,1,9.089,22.164l-8.441,27.94,1.86,7.233c-13.859,8.865-37.587,10.324-51.7,10.324" fill="#e7266b"/>
          </g>
        </g>
        <path id="path160" d="M378.334-232.4l-17.225-7.328-7.185-5.395a2.292,2.292,0,0,0-1.584-.451l-8.291.755a1.792,1.792,0,0,0-.923.357c-1.452,1.1-6.157,4.733-4.977,4.733a13.2,13.2,0,0,0,6.263-2.087s6.261,0,6.956-.7a26.545,26.545,0,0,0,4.175,3.48c1.392.695.7,0,.7,0l-9.315,2.831a2.212,2.212,0,0,0-1.18.861c-1.172,1.7-4.379,6.311-5.507,7.439,0,0,3.479,1.392,6.261-2.783s10.436-4.175,11.132-3.479c0,0-9.74,5.567-12.524,11.132,0,0,1.316,3.42,3.479.695a23.785,23.785,0,0,1,11.828-7.652l-3.964,4.529a1.366,1.366,0,0,0,.139,1.933l3.825,3.277s.7-2.783-.7-4.175L363.2-227.9s3.84,7.652,15.139,3.129V-232.4" fill="#f9a87b"/>
        <path id="path162" d="M408.687-237.875c-14.851,3.1-31.535,5.657-31.535,5.657l.3,7.427a221.157,221.157,0,0,0,37.127-2.036,14.02,14.02,0,0,0-5.893-11.048" fill="#f9a87b"/>
        <path id="path164" d="M453.963-308.127c-8.992-3.9-16.591,17.537-16.591,17.537-9.74,20.175-7.388,46.684-7.388,46.684-3.235,1.888-11.9,4.068-21.3,6.031a14.02,14.02,0,0,1,5.893,11.048c20.043-2.971,28.623-8.033,28.623-8.033,8.349-12.523,19.751-69.367,10.76-73.266" fill="#f9a87b"/>
        <path id="path166" d="M410.85-384.235s-19.357,14.519-16.808,36.853c1.165,10.207,3.473,13.4,7.569,16.379,4.839,3.52,20.967,1.328,25.177-6.8l2.224-6.592s3.948,3.535,7.927-1.731,3.132-13.629-2.6-9.691l3.56-10.548-3.485-9.252-23.56-8.623" fill="#f9a87b"/>
        <g id="g168">
          <g id="g170" clip-path="url(#clip-path-9)">
            <path id="path176" d="M429.276-354.923c-3.712,0-5.525-4.163-6.356-7.22-10.607-2.689-12.071-19.892-12.071-19.892-3.912,7.561-8.059,9.6-10.788,10a49.31,49.31,0,0,1,10.788-12.2l11.947,4.372c7.289,8.573,15.833,20.505,10.173,23.784a7.428,7.428,0,0,1-3.693,1.156" fill="#eb8d5f"/>
          </g>
        </g>
        <path id="path178" d="M413.646-369.58a16.416,16.416,0,0,1-2.659-7.368c2.144,8.151,13.5,13.831,13.5,13.831l-.023.289c-4.888-1.149-8.521-3.411-10.819-6.752Zm24.04-4.975-14.079-7.04-19.8-4.839s-24.2,8.359-13.2,13.2c9.651,4.247,17.945-5.395,19.833-7.82a18.725,18.725,0,0,0,2.836,11.723c2.372,3.451,6.117,5.779,11.151,6.948-.241,6.832,7.973,8.067,7.973,8.067l3.519-2.64,7.04-2.2-5.279-15.4" fill="#416bbd"/>
        <path id="path180" d="M424.487-388.876s5.279-2.4,10.559,8.161c0,0,6.6,15.4,0,29.476h-1.32s2.639-26-9.239-37.637" fill="#33393f"/>
        <path id="path182" d="M441.2-349.919a6.159,6.159,0,0,1-6.159,6.159,6.159,6.159,0,0,1-6.16-6.159,6.159,6.159,0,0,1,6.16-6.16,6.159,6.159,0,0,1,6.159,6.16" fill="#e81380"/>
        <path id="path184" d="M413.023-354.986c-.353,1.415-1.021,2.465-1.493,2.348s-.567-1.36-.215-2.775,1.021-2.465,1.492-2.348.568,1.36.216,2.775" fill="#33393f"/>
        <path id="path186" d="M401.168-357.327c-.12,1.453-.609,2.6-1.093,2.559s-.78-1.249-.66-2.7.608-2.6,1.092-2.559.78,1.251.661,2.7" fill="#33393f"/>
        <path id="path188" d="M399.851-339.432a15.594,15.594,0,0,0,14.517-4.065s0,7.551-10.452,8.712c0,0-1.743,0-4.065-4.647" fill="#fff"/>
        <path id="path190" d="M398.68-364.179a2.846,2.846,0,0,1,.577-1.111,2.736,2.736,0,0,1,1.067-.772,2.262,2.262,0,0,1,1.323-.215,2.47,2.47,0,0,1,.621.232,2.118,2.118,0,0,1,.515.433l-.031.084a2.768,2.768,0,0,1-.628.093c-.2.033-.379.029-.555.045a4.158,4.158,0,0,1-.516,0,1.879,1.879,0,0,0-.519.011,2.57,2.57,0,0,0-.973.417,2.953,2.953,0,0,0-.8.817l-.083-.032" fill="#416bbd"/>
        <path id="path192" d="M416.418-364.179a2.825,2.825,0,0,0-.576-1.111,2.736,2.736,0,0,0-1.067-.772,2.263,2.263,0,0,0-1.323-.215,2.452,2.452,0,0,0-.621.232,2.145,2.145,0,0,0-.515.433l.031.084a2.768,2.768,0,0,0,.627.093c.2.033.38.029.555.045a4.153,4.153,0,0,0,.516,0,1.877,1.877,0,0,1,.519.011,2.575,2.575,0,0,1,.975.417,2.95,2.95,0,0,1,.8.817l.083-.032" fill="#416bbd"/>
        <path id="path194" d="M403.471-344.824s-6.016-2.313-4.628-3.24c1.1-.733,3.655-4.665,4.667-6.956a.3.3,0,0,1,.568.093c.191,2.372.4,7.087-.607,10.1" fill="#f68484"/>
        <path id="path196" d="M437.686-349.919a2.64,2.64,0,0,1-2.64,2.639,2.639,2.639,0,0,1-2.64-2.639,2.639,2.639,0,0,1,2.64-2.64,2.64,2.64,0,0,1,2.64,2.64" fill="#33393f"/>
        <path id="path198" d="M429.422-337.162H409.528v-1.019H428.9c.8-1.536,4.928-9.517,5.332-10.42l.817.456c-.459,1.021-5.287,10.333-5.492,10.729l-.132.253" fill="#33393f"/>
        <path id="path200" d="M411.29-337.822c0,.608-1.183,1.1-2.641,1.1s-2.639-.492-2.639-1.1,1.183-1.1,2.639-1.1,2.641.493,2.641,1.1" fill="#33393f"/>
        <path id="path202" d="M492.676-214.419H189.562a3.961,3.961,0,0,1-3.959-3.96,3.959,3.959,0,0,1,3.959-3.96H492.676a3.96,3.96,0,0,1,3.96,3.96,3.961,3.961,0,0,1-3.96,3.96" fill="#c0c9cf"/>
        <path id="path204" d="M209.227-318.669l2.58,75.352a8.679,8.679,0,0,0,8.673,8.38h108.36a8.679,8.679,0,0,0,8.673-8.976l-2.581-75.35a8.678,8.678,0,0,0-8.673-8.38H217.9a8.677,8.677,0,0,0-8.672,8.975" fill="#7882c7"/>
        <g id="g206">
          <g id="g208" clip-path="url(#clip-path-10)">
            <path id="path214" d="M278.4-234.937H236.593c2.9-7.815,11-25.688,26.88-34.476h0l9.677,6.16,8.359-6.16S276-247.954,278.4-234.937m-14.927-34.476.024-.013-.024.013m.024-.013h0m0,0a.073.073,0,0,0,.013-.008l-.013.008m.013-.008h0m0,0a.04.04,0,0,0,.015-.008l-.015.008m.015-.008.015-.008a.04.04,0,0,1-.015.008m.015-.008h0m0,0,9.116-5.043-9.116,5.043" fill="#5461b1"/>
          </g>
        </g>
        <path id="path216" d="M263.471-269.413h18.037s-27.276,43.995-2.86,47.073H241.035s-7.48-17.6,22.436-47.073" fill="#7882c7"/>
        <path id="path218" d="M269.625-300.05a7.921,7.921,0,0,1,.371-2.4c-.123-.005-.247-.009-.371-.009a9.29,9.29,0,0,0-9.291,9.291,9.29,9.29,0,0,0,9.291,9.291,9.291,9.291,0,0,0,9.244-8.371,8.085,8.085,0,0,1-1.331.112,7.913,7.913,0,0,1-7.913-7.913" fill="#fff"/>
        <path id="path220" d="M277.247-441.316a91.546,91.546,0,0,1-96.484,86.328,91.547,91.547,0,0,1-86.329-96.482A91.545,91.545,0,0,1,190.918-537.8a91.546,91.546,0,0,1,86.329,96.482" fill="#7199d7"/>
        <g id="g222">
          <g id="g224" clip-path="url(#clip-path-11)">
            <path id="path230" d="M297.2-440.208A111.529,111.529,0,0,1,179.656-335.035,111.531,111.531,0,0,1,74.483-452.579,111.53,111.53,0,0,1,192.026-557.752,111.53,111.53,0,0,1,297.2-440.208" fill="#c5acdc"/>
            <path id="path232" d="M176.286-438.631s-23.884,0-32.244,4.18-12.539,14.927-10.748,22.092-7.763,25.08,2.389,34.633c9.116,8.58,16.305,7.529,19.405,6.36a9.534,9.534,0,0,0,.9-.388c2.388-1.195,0,31.647,0,31.647s60.309,3.583,63.892,0,4.776-78.82-3.583-87.178-31.648-11.345-31.648-11.345h-8.36" fill="#4eb5a3"/>
            <path id="path234" d="M174.2-459.83l-.9,21.2,19.6,13a1.279,1.279,0,0,0,1.952-.837l3.231-17.235-19.108-23.288L174.2-459.83" fill="#f8a38c"/>
          </g>
        </g>
        <g id="g236">
          <g id="g238" clip-path="url(#clip-path-11)">
            <g id="g244" clip-path="url(#clip-path-13)">
              <path id="path250" d="M195.185-428.259c-9.1-4.561-17.107-18.135-17.107-18.135a3.376,3.376,0,0,1-2.455,1.061,4.662,4.662,0,0,1-2.017-.511l.455-10.781,4.645-3.405,12.509,9.456s1.7,1.329,3.991,3.363l2.875,3.5-2.9,15.448" fill="#f38a72"/>
            </g>
          </g>
        </g>
        <g id="g252">
          <g id="g254" clip-path="url(#clip-path-11)">
            <path id="path260" d="M175.39-467.591c9.555-.6,10.749-16.123,10.749-17.913s14.928-6.569,18.511-4.777c3.409,1.7,4.313,12.647,4.479,13.435,5.248-3.177,9.849-14.515,7.463-21.2-2.985-8.36-6.568-5.373-8.956-3.583s-2.388-6.568-14.928-13.733,1.792,8.36-13.136,7.165-16.123,13.733-16.123,13.733c-7.763,0-13.137,6.568-7.165,13.136s1.193,7.165,0,13.137c-.623,3.113,5.413,4.441,11.333,5a10.3,10.3,0,0,1,7.773-4.4" fill="#205175"/>
            <path id="path262" d="M190.917-458.635c10.984,4.776,21.2-.759,24.849-3.168-2.652-4.207-4.939-8.425-5.145-12.357a30.566,30.566,0,0,0-.76-5.347l.149-.093c-.165-.788-1.951-8.977-5.36-10.681-3.583-1.792-18.511,2.985-18.511,4.777,0,1.423-.76,11.515-5.865,15.9a20.4,20.4,0,0,0,10.643,10.969" fill="#f8a38c"/>
            <path id="path264" d="M215.766-461.8c-3.651,2.409-13.865,7.944-24.849,3.168A20.4,20.4,0,0,1,180.274-469.6a8.1,8.1,0,0,1-4.884,2.013,10.3,10.3,0,0,0-7.773,4.4,102.583,102.583,0,0,0,10.76.375c2.985,34.036,38.812,31.648,44.784,22.691,3.9-5.852-2.395-13.745-7.395-21.679" fill="#205175"/>
            <path id="path266" d="M157.009-471.289l27.424,1.523-.781,14.083-27.425-1.524.783-14.081" fill="#650e2d"/>
            <path id="path268" d="M155.089-446.095s0-18.511,2.987-20.9,10.151-11.344,13.733-8.956,1.791,3.583,4.18,4.777,1.193,2.985,2.984,4.179,4.181,5.972,2.987,5.972h-5.375s-8.359,15.524-11.941,14.928l-.6,2.388h-8.957v-2.388" fill="#f8a38c"/>
            <path id="path270" d="M163.748-444.006s1.195,59.115-4.18,62.7-19.705-.6-16.719-12.54,13.733-55.531,13.733-55.531l7.165,5.373" fill="#f8a38c"/>
            <path id="path272" d="M191.216-454.754s10.445,3.135,15.217,2.075a.489.489,0,0,1,.567.644,27.05,27.05,0,0,0-1.453,5.044c0,1.195-10.748-.6-14.331-7.763" fill="#e7f7f9"/>
            <path id="path274" d="M202.917-472.667s13.948,8.387,10.167,12-6.708,3.04-6.708,3.04-4.877-12.909-3.459-15.039" fill="#f68793"/>
            <path id="path276" d="M191.216-469.682a3.375,3.375,0,0,1,.6-2.16,2.869,2.869,0,0,1,2.131-1.205,3.9,3.9,0,0,1,2.268.628,7.949,7.949,0,0,1,.871.693,7.31,7.31,0,0,1,.7.851,8.967,8.967,0,0,1-1.015-.357c-.321-.129-.653-.211-.956-.337a5.187,5.187,0,0,0-1.781-.287,2.609,2.609,0,0,0-1.516.635,7.842,7.842,0,0,0-1.3,1.54" fill="#a2524b"/>
            <path id="path278" d="M210.619-475.444a2.729,2.729,0,0,0-1.183-1.373,2.313,2.313,0,0,0-1.973-.147,3.147,3.147,0,0,0-1.441,1.24,6.462,6.462,0,0,0-.4.807,5.927,5.927,0,0,0-.219.863,7.276,7.276,0,0,0,.62-.611c.189-.205.4-.38.583-.576a4.174,4.174,0,0,1,1.2-.823,2.1,2.1,0,0,1,1.327-.059,6.247,6.247,0,0,1,1.481.679" fill="#a2524b"/>
            <path id="path280" d="M188.1-474.307a6.515,6.515,0,0,1,1.131-2.727c1.531-2.155,4.021-2.425,6.46-1.933,1.131.228,1.376-1.547.249-1.775-2.885-.581-5.88-.132-7.837,2.236a8.311,8.311,0,0,0-1.777,3.949.9.9,0,0,0,1.775.249" fill="#205175"/>
            <path id="path282" d="M203.406-481.743a5.321,5.321,0,0,1,2.252-.872c2.137-.313,3.7,1.005,4.792,2.725.5.8,1.692-.06,1.189-.855-1.287-2.033-3.244-3.551-5.749-3.369a6.79,6.79,0,0,0-3.339,1.181.733.733,0,0,0,.855,1.189" fill="#205175"/>
          </g>
        </g>
        <path id="path284" d="M391.828-538.037H555.6a5.18,5.18,0,0,1,5.181,5.18v41.319a5.182,5.182,0,0,1-2.28,4.292l-26.192,17.7a1.743,1.743,0,0,1-2.644-1.949l5.239-17.287H391.828a5.181,5.181,0,0,1-5.18-5.181v-38.889a5.18,5.18,0,0,1,5.18-5.18" fill="#a55db5"/>
        <g id="g286">
          <g id="g288" clip-path="url(#clip-path-15)">
            <path id="path294" d="M532.025-479.28l2.881-9.507h-2.685l.024-.02h16.929l-17.149,9.527" fill="#8c549f"/>
          </g>
        </g>
        <path id="path296" d="M406.436-524.845H543.341a2.2,2.2,0,0,0,2.2-2.2,2.2,2.2,0,0,0-2.2-2.2H406.436a2.2,2.2,0,0,0-2.2,2.2,2.2,2.2,0,0,0,2.2,2.2" fill="#fff"/>
        <path id="path298" d="M406.436-513.705H543.341a2.2,2.2,0,0,0,2.2-2.2,2.2,2.2,0,0,0-2.2-2.2H406.436a2.2,2.2,0,0,0-2.2,2.2,2.2,2.2,0,0,0,2.2,2.2" fill="#fff"/>
        <path id="path300" d="M476.443-502.565h67.541a1.554,1.554,0,0,0,1.555-1.555v-1.288a1.554,1.554,0,0,0-1.555-1.555H476.443a1.555,1.555,0,0,0-1.555,1.555v1.288a1.555,1.555,0,0,0,1.555,1.555" fill="#fff"/>
        <path id="path302" d="M324.206-129.384h34.1a2.254,2.254,0,0,1,2.253,2.252v17.973a2.252,2.252,0,0,1-.991,1.866l-11.392,7.7a.759.759,0,0,1-1.151-.849l2.279-7.518h-25.1a2.253,2.253,0,0,1-2.252-2.254v-16.916a2.253,2.253,0,0,1,2.252-2.252" fill="#7199d7"/>
        <path id="path304" d="M566.9-463.17h20.791a1.373,1.373,0,0,1,1.375,1.373v10.959a1.377,1.377,0,0,1-.6,1.139l-6.947,4.693a.464.464,0,0,1-.7-.519l1.391-4.584H566.9a1.373,1.373,0,0,1-1.375-1.373V-461.8a1.373,1.373,0,0,1,1.375-1.373" fill="#7199d7"/>
        <path id="path306" d="M504.955-480.345H326.77a5.636,5.636,0,0,0-5.636,5.636v44.953a5.639,5.639,0,0,0,2.48,4.671l28.5,19.252a1.9,1.9,0,0,0,2.877-2.121l-5.7-18.808H504.955a5.635,5.635,0,0,0,5.635-5.636V-474.71a5.635,5.635,0,0,0-5.635-5.636" fill="#f3af39"/>
        <g id="g308">
          <g id="g310" clip-path="url(#clip-path-16)">
            <path id="path316" d="M352.423-416.418l-18.659-10.365h18.42l.024.02h-2.92l3.135,10.345" fill="#f0a42f"/>
          </g>
        </g>
        <path id="path318" d="M489.061-465.994H340.111a2.392,2.392,0,0,1-2.392-2.392,2.392,2.392,0,0,1,2.392-2.392h148.95a2.393,2.393,0,0,1,2.392,2.392,2.393,2.393,0,0,1-2.392,2.392" fill="#fff"/>
        <path id="path320" d="M489.061-453.874H340.111a2.392,2.392,0,0,1-2.392-2.392,2.392,2.392,0,0,1,2.392-2.392h148.95a2.392,2.392,0,0,1,2.392,2.392,2.393,2.393,0,0,1-2.392,2.392" fill="#fff"/>
        <path id="path322" d="M412.895-441.752H339.411a1.693,1.693,0,0,1-1.692-1.692v-1.4a1.692,1.692,0,0,1,1.692-1.692h73.484a1.691,1.691,0,0,1,1.691,1.692v1.4a1.692,1.692,0,0,1-1.691,1.692" fill="#fff"/>
        <g id="g324">
          <g id="g326" clip-path="url(#clip-path-17)">
            <path id="path332" d="M597.624-165.674a93.932,93.932,0,0,1-93.932,93.932,93.932,93.932,0,0,1-93.934-93.932,93.932,93.932,0,0,1,93.934-93.933,93.932,93.932,0,0,1,93.932,93.933" fill="#5cc7b5"/>
            <path id="path334" d="M510.135-157.536c-5.765,13.225-15.94,24.076-23.739,13.563-5.815-7.835-1.264-18.5,1.428-23.421a102.629,102.629,0,0,1,16.4-3.707h7.736s4.584,0,10.308.365a27.666,27.666,0,0,0-12.135,13.2" fill="#f8a38c"/>
          </g>
        </g>
        <g id="g336">
          <g id="g338" clip-path="url(#clip-path-17)">
            <g id="g344" clip-path="url(#clip-path-19)">
              <path id="path350" d="M494.381-160.168l-4.643-7.821c1.021-.3,2.033-.58,3.021-.835l1.621,8.656" fill="#f38a72"/>
            </g>
          </g>
        </g>
        <g id="g352">
          <g id="g354" clip-path="url(#clip-path-17)">
            <path id="path360" d="M474.939-160.6c2.944-2.945,7.889-5.168,12.885-6.793-2.692,4.923-7.241,15.587-1.428,23.423,7.8,10.512,17.973-.339,23.739-13.564a27.666,27.666,0,0,1,12.135-13.2c6.844.437,15.317,1.4,19.531,3.5,7.736,3.869,11.6,13.816,9.947,20.445s7.183,23.208-2.211,32.049c-8.436,7.94-15.089,6.967-17.959,5.885a8.281,8.281,0,0,1-.828-.358c-2.212-1.105,0,29.286,0,29.286s-55.811,3.315-59.125,0-4.421-72.94,3.315-80.676" fill="#fbc030"/>
            <path id="path362" d="M508.777-227.393s-5.425-7.8-18.651-1.695-29.841,35.945-9.157,62.395c0,0,4.409-6.443,20.348-8.137s7.46-52.563,7.46-52.563" fill="#a55eb5"/>
          </g>
        </g>
        <g id="g364">
          <g id="g366" clip-path="url(#clip-path-17)">
            <g id="g372" clip-path="url(#clip-path-22)">
              <path id="path378" d="M496.909-224.341l8.324-5.827a10.916,10.916,0,0,1,2.411,1.583l-10.735,4.244" fill="#85449f"/>
              <path id="path380" d="M485.819-170.5c-18.573-3.944-6.768-34.112-6.669-34.361a78.6,78.6,0,0,0-2.587,12.732c-.683,9.567,3.391,18.989,8.137,19.668a34.575,34.575,0,0,0,4.416.427,29.135,29.135,0,0,0-3.3,1.535" fill="#85449f"/>
            </g>
          </g>
        </g>
        <g id="g382">
          <g id="g384" clip-path="url(#clip-path-17)">
            <path id="path390" d="M513.556-190.712l.829,19.617-18.136,12.027a1.184,1.184,0,0,1-1.807-.776l-2.989-15.949,17.683-21.549,4.42,6.631" fill="#f8a38c"/>
          </g>
        </g>
        <g id="g392">
          <g id="g394" clip-path="url(#clip-path-17)">
            <g id="g400" clip-path="url(#clip-path-25)">
              <path id="path406" d="M492.757-168.832l-.624-3.333c6.093-.707,13.7-4.42,16.989-18.536l.26-.2,4.3,3.151.368,8.692c-1.127-.993-3.1-2.763-4.593-4.253,0,0-4.32,12.449-16.7,14.476" fill="#f38a72"/>
            </g>
          </g>
        </g>
        <g id="g408">
          <g id="g410" clip-path="url(#clip-path-17)">
            <path id="path416" d="M476.563-192.125c.425-5.971,3.835-17.257,3.852-16.884.152-.728,1.8-8.305,4.96-9.884,3.315-1.657,17.129,2.763,17.129,4.42,0,1.319.7,10.657,5.428,14.716a7.5,7.5,0,0,0,4.519,1.861,9.534,9.534,0,0,1,7.195,4.075,95.493,95.493,0,0,1-9.957.347c-4.3,24.408-20.312,21.685-24.988,21.017-4.747-.679-8.82-10.1-8.137-19.668" fill="#f8a38c"/>
          </g>
        </g>
        <g id="g418">
          <g id="g420" clip-path="url(#clip-path-17)">
            <g id="g426" clip-path="url(#clip-path-28)">
              <path id="path432" d="M516.029-195.29a20.1,20.1,0,0,1-3.439-.352c-16.277-2.872-19.368-17.715-20.508-23.053,4.9,1.023,10.421,3.175,10.421,4.223,0,1.319.7,10.657,5.428,14.716a7.5,7.5,0,0,0,4.519,1.861,9.117,9.117,0,0,1,5.631,2.357,7.3,7.3,0,0,1-2.052.248" fill="#f38a72"/>
            </g>
          </g>
        </g>
        <g id="g434">
          <g id="g436" clip-path="url(#clip-path-17)">
            <path id="path442" d="M497.44-183.209s-8.425,2.528-12.276,1.673a.394.394,0,0,0-.456.519,21.918,21.918,0,0,1,1.172,4.069c0,.964,8.669-.481,11.56-6.261" fill="#e7f7f9"/>
            <path id="path444" d="M497.44-195.249a2.743,2.743,0,0,0-.484-1.744,2.312,2.312,0,0,0-1.719-.972,3.145,3.145,0,0,0-1.828.507,6.355,6.355,0,0,0-.7.559,6.039,6.039,0,0,0-.564.687,7.368,7.368,0,0,0,.82-.288c.259-.105.525-.171.771-.272a4.129,4.129,0,0,1,1.436-.231,2.1,2.1,0,0,1,1.223.512,6.279,6.279,0,0,1,1.049,1.243" fill="#a2524b"/>
            <path id="path446" d="M481.788-199.9a2.189,2.189,0,0,1,.955-1.107,1.866,1.866,0,0,1,1.591-.119,2.559,2.559,0,0,1,1.163,1,5.263,5.263,0,0,1,.32.652,4.649,4.649,0,0,1,.176.695,5.834,5.834,0,0,1-.5-.492c-.152-.165-.325-.307-.468-.465a3.389,3.389,0,0,0-.972-.663,1.686,1.686,0,0,0-1.071-.047,5.075,5.075,0,0,0-1.193.545" fill="#a2524b"/>
            <path id="path448" d="M491.483-219.253s5.765,20.005,22.212,21.7S500.3-221.967,500.3-221.967H483.684L478.6-209.419s9.835-3.052,12.887-9.833" fill="#a55eb5"/>
            <path id="path450" d="M491.453-221.967c.368,0,16.307-8.816,23.089-6.781s22.041,23.4,20.007,44.763-30.857,18.312-30.857,18.312,14.92-19.329,1.355-41.372l-10.173-9.495-3.42-5.427" fill="#a55eb5"/>
            <path id="path452" d="M519.811-205.869,505.152-185.1l10.663,7.527,14.659-20.765-10.663-7.527" fill="#650e2d"/>
            <path id="path454" d="M530.571-178.373s0-14.835-2.393-16.751-8.136-9.092-11.007-7.179-1.435,2.873-3.351,3.831-.957,2.391-2.392,3.348-3.349,4.787-2.393,4.787h4.308s6.7,12.443,9.571,11.964l.479,1.913h7.179v-1.913" fill="#f8a38c"/>
            <path id="path456" d="M522.343-181.274s-.221,59.911,4.751,63.227,18.236-.554,15.473-11.6-12.709-51.389-12.709-51.389l-7.515-.233" fill="#f8a38c"/>
            <path id="path458" d="M487.752-187.377l-3.052-1.7a42.052,42.052,0,0,0,3.247-4.883.283.283,0,0,1,.535.125,21.549,21.549,0,0,1-.729,6.455" fill="#f68a91"/>
            <path id="path460" d="M499.557-198.22a7.232,7.232,0,0,0-4.931-4.793.255.255,0,0,1,.135-.491,7.75,7.75,0,0,1,5.285,5.148c.1.315-.393.448-.489.136" fill="#a55eb5"/>
            <path id="path462" d="M486.828-205.786a6.21,6.21,0,0,0-5.457,2.243c-.173.221-.513-.052-.34-.273a6.65,6.65,0,0,1,5.859-2.4c.28.031.217.464-.061.432" fill="#a55eb5"/>
            <path id="path464" d="M490.636-221.967l-.009.725c0,.263,0,.524.011.785.015.523.053,1.041.1,1.56a25.536,25.536,0,0,0,.492,3.072,24.824,24.824,0,0,0,2.092,5.805,24.514,24.514,0,0,0,3.456,5.051,27.312,27.312,0,0,0,4.539,4.027,27.134,27.134,0,0,1-4.212-4.3,23.838,23.838,0,0,1-3.015-5.139,23.687,23.687,0,0,1-1.611-5.683,24.584,24.584,0,0,1-.261-2.929c-.011-.488-.013-.977.008-1.463.011-.243.023-.485.04-.728l.064-.787h-1.695" fill="#a55eb5"/>
          </g>
        </g>
      </g>
    </g>
  </g>
</svg>
