<?xml version="1.0" encoding="utf-8"?>
<!-- Generator: Adobe Illustrator 25.2.2, SVG Export Plug-In . SVG Version: 6.00 Build 0)  -->
<svg version="1.1" xmlns="http://www.w3.org/2000/svg" xmlns:xlink="http://www.w3.org/1999/xlink" x="0px" y="0px"
	 viewBox="0 0 120 120" style="enable-background:new 0 0 120 120;" xml:space="preserve">
<style type="text/css">
	.st0{fill:url(#SVGID_1_);}
	.st1{fill:url(#SVGID_2_);}
	.st2{fill:url(#SVGID_3_);}
	.st3{fill:url(#SVGID_4_);}
	.st4{opacity:0.19;}
	.st5{fill:#B2B2B2;}
	.st6{fill:#A3A3A3;}
	.st7{fill:#DBDBDB;}
	.st8{fill:#EDEDED;}
	.st9{fill:#D3D3D3;}
	.st10{fill:#1E272B;}
	.st11{fill:#2F3E44;}
	.st12{opacity:0.06;fill:#FFFFFF;}
	.st13{opacity:0.05;fill:#FFFFFF;}
	.st14{opacity:0.04;fill:#FFFFFF;}
	.st15{opacity:0.03;fill:#FFFFFF;}
	.st16{opacity:0.53;fill:#263238;}
	.st17{fill:#FF5252;}
	.st18{fill:#FFA5A1;}
	.st19{fill:#FFFFFF;}
	.st20{fill:#FFB288;}
	.st21{fill:#EF8E62;}
	.st22{fill:#8A2E11;}
	.st23{fill:#F29566;}
	.st24{fill:#102638;}
	.st25{fill:#183040;}
	.st26{fill:#171F23;}
	.st27{fill:#E2E2E2;}
	.st28{fill:#FFD600;}
	.st29{fill:#FFFF8D;}
	.st30{fill:#601911;}
	.st31{fill:#A55C39;}
	.st32{fill:#974A2E;}
	.st33{fill:#F7F7F7;}
	.st34{fill:#0D47A1;}
	.st35{fill:#EAEAEA;}
	.st36{fill:#F4F4F4;}
	.st37{opacity:0.29;fill:#1A237E;}
</style>
<g id="Layer_3">
</g>
<g id="Layer_6">
	<g id="Layer_2">
	</g>
</g>
<g id="Layer_10">
</g>
<g id="Layer_11">
</g>
<g id="Layer_7">
	<g id="Layer_5">
		<g id="Layer_4">
		</g>
	</g>
</g>
<g id="Layer_14">
</g>
<g id="Layer_8">
</g>
<g id="Layer_8_copy">
</g>
<g id="Layer_12">
	<g>
		<g>
			
				<linearGradient id="SVGID_1_" gradientUnits="userSpaceOnUse" x1="-2442.8662" y1="-1609.83" x2="-2352.6353" y2="-1609.83" gradientTransform="matrix(-0.6844 0.7291 -0.7291 -0.6844 -2759.7612 703.7809)">
				<stop  offset="0" style="stop-color:#7CB1F5"/>
				<stop  offset="0.5" style="stop-color:#5569CF"/>
				<stop  offset="1" style="stop-color:#3A5D8B"/>
			</linearGradient>
			<path class="st0" d="M24.59,90.69C6.71,73.4,5.82,44.47,22.6,26.05C39.39,7.64,67.5,6.72,85.38,24.01
				c17.89,17.28,18.77,46.22,1.99,64.64C70.58,107.06,42.47,107.97,24.59,90.69z"/>
			
				<linearGradient id="SVGID_2_" gradientUnits="userSpaceOnUse" x1="-2611.4014" y1="335.9967" x2="-2520.8623" y2="335.9967" gradientTransform="matrix(-0.5939 -0.8045 0.8045 -0.5939 -1732.1741 -1799.8145)">
				<stop  offset="0" style="stop-color:#82E9F5"/>
				<stop  offset="0.5" style="stop-color:#5A9ACF"/>
				<stop  offset="1" style="stop-color:#3E828B"/>
			</linearGradient>
			<path class="st1" d="M35.78,28.3c19.74-15,47.54-10.69,62.11,9.63c14.56,20.32,10.38,48.95-9.35,63.95
				c-19.73,15-47.54,10.69-62.11-9.63C11.87,71.93,16.05,43.3,35.78,28.3z"/>
			
				<linearGradient id="SVGID_3_" gradientUnits="userSpaceOnUse" x1="-436.4158" y1="-391.2962" x2="-347.5909" y2="-391.2962" gradientTransform="matrix(0.9999 0.0124 -0.0124 0.9999 450.929 452.7982)">
				<stop  offset="0" style="stop-color:#7CB1F5"/>
				<stop  offset="0.5" style="stop-color:#5569CF"/>
				<stop  offset="1" style="stop-color:#3A5D8B"/>
			</linearGradient>
			<path class="st2" d="M108.22,57.25c-0.3,25.25-20.43,45.47-44.96,45.16c-24.52-0.31-44.16-21.04-43.86-46.29
				c0.3-25.25,20.43-45.47,44.96-45.15C88.89,11.27,108.53,31.99,108.22,57.25z"/>
			
				<linearGradient id="SVGID_4_" gradientUnits="userSpaceOnUse" x1="-843.6849" y1="375.9565" x2="-753.77" y2="375.9565" gradientTransform="matrix(0.7673 -0.6413 0.6413 0.7673 424.8719 -738.0177)">
				<stop  offset="0" style="stop-color:#82E9F5"/>
				<stop  offset="0.5" style="stop-color:#5A9ACF"/>
				<stop  offset="1" style="stop-color:#3E828B"/>
			</linearGradient>
			<path class="st3" d="M87.19,33.35c15.73,19.38,13.22,48.22-5.6,64.41c-18.82,16.2-46.83,13.62-62.56-5.76
				C3.3,72.63,5.81,43.79,24.63,27.59C43.45,11.4,71.46,13.98,87.19,33.35z"/>
		</g>
	</g>
	<rect x="1142.12" y="-475.76" style="fill:none;" width="10.59" height="0"/>
	<ellipse class="st4" cx="62.3" cy="100.2" rx="32.34" ry="1.45"/>
	<path class="st4" d="M101.86,40.57v48.97c0,1.13-0.91,2.04-2.04,2.04H26.97c-1.12,0-2.04-0.91-2.04-2.04V40.57
		c0-1.12,0.91-2.04,2.04-2.04h72.85C100.94,38.53,101.86,39.44,101.86,40.57z"/>
	<path class="st5" d="M42.25,99.41c0-0.03,0-0.06,0-0.09c0-0.32,0.15-0.62,0.41-0.81c0.01-0.01,0.03-0.02,0.04-0.03
		c0.08-0.06,0.37-0.28,0.66-0.4c0.34-0.15,0.72-0.23,1.1-0.23c5.87,0,11.49,0,17.11,0c5.62,0,11.25,0,17.11,0
		c0.38,0,0.76,0.08,1.1,0.23c0.29,0.12,0.57,0.34,0.66,0.4c0.01,0.01,0.03,0.02,0.04,0.03c0.26,0.19,0.41,0.49,0.41,0.81
		c0,0.03,0,0.06,0,0.09H42.25z"/>
	<polygon class="st6" points="69.82,97.81 61.58,97.79 53.33,97.81 53.7,93.6 54.75,81.65 68.41,81.65 69.45,93.6 	"/>
	<path class="st6" d="M69.41,93.64c0,0-1.05-11.94-1.05-11.94C68.37,81.7,69.41,93.64,69.41,93.64z"/>
	<polygon class="st7" points="61.34,97.83 53.1,97.85 54.51,81.7 68.18,81.7 69.59,97.85 	"/>
	<polygon class="st5" points="53.47,93.64 54.51,81.7 68.18,81.7 69.22,93.64 	"/>
	<path class="st8" d="M42.02,99.41c0-0.03,0-0.06,0-0.09c0-0.32,0.15-0.62,0.41-0.81c0.01-0.01,0.03-0.02,0.04-0.03
		c0.08-0.06,0.37-0.28,0.66-0.4c0.34-0.15,0.72-0.23,1.1-0.23c5.87,0,11.49,0,17.11,0c5.62,0,11.25,0,17.11,0
		c0.38,0,0.76,0.08,1.1,0.23c0.29,0.12,0.57,0.34,0.66,0.4c0.01,0.01,0.03,0.02,0.04,0.03c0.26,0.19,0.41,0.49,0.41,0.81
		c0,0.03,0,0.06,0,0.09H42.02z"/>
	<path class="st9" d="M80.66,99.32v0.09H42.03v-0.09c0-0.06,0.01-0.13,0.02-0.19h38.6C80.66,99.2,80.66,99.26,80.66,99.32z"/>
	<path class="st5" d="M100.2,39.52v48.73c0,1.12-0.91,2.03-2.03,2.03H25.69c-1.12,0-2.03-0.91-2.03-2.03V39.52
		c0-1.12,0.91-2.03,2.03-2.03h72.48C99.29,37.49,100.2,38.4,100.2,39.52z"/>
	<path class="st10" d="M99.72,39.52v46.22H23.19V39.52c0-1.12,0.91-2.03,2.03-2.03h72.48C98.81,37.49,99.72,38.4,99.72,39.52z"/>
	<path class="st8" d="M97.7,90.27H25.21c-1.12,0-2.03-0.91-2.03-2.03v-4.94h76.54v4.94C99.72,89.37,98.82,90.27,97.7,90.27z"/>
	<rect id="screen" x="26.09" y="40.47" class="st11" width="70.72" height="40.11"/>
	<path class="st12" d="M99.72,39.52v9.72l-36.4,36.5H28.9l47.68-48.25h21.11C98.81,37.49,99.72,38.4,99.72,39.52z"/>
	<polygon class="st13" points="68.06,85.74 99.72,53.94 99.72,62.07 76.16,85.74 	"/>
	<polygon class="st12" points="84.2,85.74 99.72,70.11 99.72,85.74 	"/>
	<polygon class="st14" points="72.96,37.49 25.29,85.74 23.19,85.74 23.19,67.33 52.78,37.49 	"/>
	<polygon class="st15" points="45.66,37.49 23.19,60.23 23.19,42.53 28.18,37.49 	"/>
	<g>
		<path class="st16" d="M96.77,37.63v6.7c0,1.32-1.07,2.38-2.38,2.38H61.09l-5.9,4.56l-1.62-4.56h-15.9c-1.32,0-2.38-1.07-2.38-2.38
			v-6.7H96.77z"/>
		<g>
			<path class="st17" d="M34.8,43.9h56.87c1.27,0,2.3-1.03,2.3-2.3V25.71c0-1.27-1.03-2.3-2.3-2.3H34.8c-1.27,0-2.3,1.03-2.3,2.3
				V41.6C32.5,42.87,33.53,43.9,34.8,43.9z"/>
			<polygon class="st17" points="58.3,43.9 50.78,43.9 52.4,48.45 			"/>
			<g>
				<g>
					<rect x="36.23" y="33.37" class="st18" width="35.6" height="1.01"/>
				</g>
				<g>
					<rect x="36.23" y="35.85" class="st18" width="35.6" height="1.01"/>
				</g>
				<g>
					<rect x="46.31" y="38.32" class="st18" width="25.52" height="1.01"/>
				</g>
				<g>
					<path class="st18" d="M71.82,29.63v0.87c0,0.37-0.3,0.66-0.66,0.66H48.38c-0.37,0-0.66-0.3-0.66-0.66v-0.87
						c0-0.37,0.3-0.66,0.66-0.66h22.78C71.53,28.97,71.82,29.26,71.82,29.63z"/>
				</g>
			</g>
			<path class="st18" d="M87.79,36.78c-0.92,1.16-2.34,1.91-3.93,1.91c-1.58,0-2.99-0.74-3.91-1.88c0.01-0.01,0.01-0.01,0.01-0.01
				c0.38-0.76,2.05-1.25,2.05-1.25s0.46-0.02,0.7-0.25c0.24-0.23,0.13-0.58,0.13-0.58c-0.51-0.54-0.52-1.06-0.52-1.06
				s-0.15,0-0.34-0.26c-0.19-0.26-0.26-0.74-0.25-0.96c0.01-0.21,0.17-0.33,0.17-0.33c-0.3-0.32-0.11-1.66-0.11-1.66
				s0.35-1.31,1.47-1.45c1.11-0.14,1.43,0.53,1.43,0.53s0.45-0.12,0.78,0.11c0.33,0.23,0.41,0.75,0.48,0.91
				c0.07,0.16,0.01,0.74,0.02,0.91c0.01,0.17-0.07,0.42-0.07,0.52c0,0.09,0.06,0.18,0.06,0.18c0.11,0.49-0.05,0.79-0.06,0.91
				c-0.01,0.13-0.07,0.21-0.07,0.21c-0.24,0.24-0.34,0.46-0.34,0.46c-0.17,0.54-0.51,0.95-0.56,1.06c-0.05,0.1-0.04,0.27-0.01,0.39
				c0.03,0.12,0.22,0.19,0.22,0.19c0.69,0.18,1.15,0.29,1.93,0.73C87.46,36.32,87.67,36.58,87.79,36.78z"/>
			<g>
				<path class="st19" d="M90.58,33.47c0,2.47-1.14,4.67-2.93,6.09c-0.03,0.03-0.06,0.05-0.09,0.07c-0.21,0.17-0.44,0.33-0.67,0.47
					c-0.11,0.07-0.22,0.13-0.33,0.19c-0.2,0.11-0.4,0.21-0.61,0.31c-0.09,0.04-0.18,0.08-0.27,0.11c-0.33,0.13-0.66,0.24-1,0.33
					c-0.07,0.02-0.15,0.03-0.22,0.05c-0.21,0.05-0.42,0.08-0.64,0.11c-0.15,0.02-0.3,0.04-0.45,0.05c-0.05,0-0.11,0.01-0.16,0.01
					c-0.04,0-0.07,0-0.11,0.01c-0.11,0-0.21,0.01-0.32,0.01c-0.12,0-0.24,0-0.36-0.01c-0.03,0-0.05,0-0.08,0
					c-0.06,0-0.11-0.01-0.17-0.01c-0.17-0.01-0.33-0.03-0.5-0.05c-0.21-0.03-0.41-0.07-0.61-0.11c-0.09-0.02-0.18-0.04-0.26-0.06
					c-0.22-0.06-0.44-0.13-0.66-0.21c-0.07-0.02-0.13-0.05-0.2-0.07c-0.33-0.13-0.64-0.27-0.94-0.44c-0.11-0.06-0.21-0.12-0.31-0.18
					c-0.16-0.1-0.31-0.2-0.46-0.31c-0.01-0.01-0.02-0.01-0.03-0.02c-1.95-1.42-3.22-3.72-3.22-6.31c0-4.31,3.49-7.8,7.8-7.8
					C87.08,25.67,90.58,29.16,90.58,33.47z"/>
				<g id="Head_10_">
					<g id="Neck_10_">
						<path class="st20" d="M84.36,38.44l-0.06,0.33c-0.12,0.23-0.38,0.53-0.76,0.97c-0.26,0.3-0.37,0.37-0.51,0.4
							c-0.06,0.01-0.17,0.03-0.35-0.05c-0.03-0.01-0.07-0.03-0.11-0.05c-0.08-0.04-0.17-0.09-0.27-0.15
							c-0.02-0.01-0.04-0.03-0.06-0.04c-0.03-0.02-0.07-0.05-0.11-0.08c-0.01-0.01-0.02-0.02-0.04-0.03
							c-0.04-0.03-0.08-0.05-0.11-0.08c-0.06-0.04-0.11-0.08-0.16-0.12c-0.14-0.1-0.26-0.2-0.37-0.29
							c-0.02-0.02-0.04-0.03-0.05-0.05c-0.03-0.03-0.06-0.06-0.09-0.09c-0.02-0.02-0.03-0.03-0.05-0.05l-0.13-0.68
							c0.01-0.02,0.03-0.04,0.04-0.06c0,0,0.01-0.01,0.01-0.01c0.02-0.02,0.03-0.04,0.05-0.05c0.01-0.01,0.01-0.01,0.01-0.01
							c0.02-0.02,0.04-0.04,0.06-0.06c0.11-0.11,0.24-0.24,0.33-0.48c0.01-0.02,0.01-0.04,0.02-0.06c0.05-0.15,0.04-0.27,0.04-0.45
							c-0.01-0.46-0.14-0.76-0.23-0.98c-0.08-0.19-0.15-0.33-0.09-0.47c0.21-0.48,2.3-0.51,2.56,0c0.02,0.04,0.03,0.08,0.04,0.12
							c0.03,0.21-0.11,0.48-0.08,1.19c0.01,0.2,0.01,0.3,0.04,0.39c0.01,0.04,0.03,0.08,0.04,0.12c0.12,0.37,0.24,0.45,0.33,0.64
							C84.31,38.28,84.33,38.34,84.36,38.44C84.35,38.43,84.36,38.44,84.36,38.44z"/>
						<path id="Shadow_10_" class="st21" d="M82.4,37.99c-0.14,0.17-0.18,0.39-0.17,0.62c0,0.01,0,0.01,0,0.02c0,0.01,0,0.02,0,0.03
							c0.02,0.2,0.07,0.41,0.14,0.61c0.01,0.02,0.01,0.04,0.02,0.06c0.09,0.28,0.21,0.54,0.27,0.75c-0.03-0.01-0.07-0.03-0.11-0.05
							c-0.08-0.04-0.17-0.09-0.27-0.15c-0.02-0.01-0.04-0.03-0.06-0.04c-0.03-0.02-0.07-0.05-0.11-0.08
							c-0.01-0.01-0.02-0.02-0.04-0.03c-0.04-0.03-0.08-0.05-0.11-0.08c-0.06-0.04-0.11-0.08-0.16-0.12
							c-0.14-0.1-0.26-0.2-0.37-0.29c-0.02-0.02-0.04-0.03-0.05-0.05c-0.03-0.03-0.06-0.06-0.09-0.09
							c-0.02-0.02-0.03-0.03-0.05-0.05l-0.13-0.68c0.01-0.02,0.03-0.04,0.04-0.06c0,0,0.01-0.01,0.01-0.01
							c0.02-0.02,0.03-0.04,0.05-0.05c0.01-0.01,0.01-0.01,0.01-0.01c0.02-0.02,0.04-0.04,0.06-0.06c0.11-0.11,0.24-0.24,0.33-0.48
							c0.01-0.02,0.01-0.04,0.02-0.06c0.05-0.15,0.04-0.27,0.04-0.45c-0.01-0.46-0.14-0.76-0.23-0.98c0.85-0.46,1.92-0.62,2.51-0.35
							c0.03,0.21-0.11,0.48-0.08,1.19c0.01,0.2,0.01,0.3,0.04,0.39c0.01,0.04,0.03,0.08,0.04,0.12
							C83.46,37.7,82.75,37.56,82.4,37.99z"/>
					</g>
					<path id="Face_10_" class="st20" d="M85.5,31.96c0,0.18,0,0.38,0,0.59c0,0.12,0,0.25,0,0.39V33c0,0.16,0,0.32-0.01,0.46
						c-0.01,0.96-0.04,1.62-0.15,2.05c-0.09,0.2-0.2,0.42-0.35,0.62c-0.25,0.25-0.58,0.44-0.95,0.56c-0.74,0.25-1.64,0.26-2.41-0.01
						c-0.39-0.14-0.74-0.35-1.04-0.63c-0.73-0.71-0.83-1.69-0.79-2.58c0.01-0.13,0.01-0.25,0.02-0.37c0.02-0.18,0.03-0.36,0.05-0.52
						c0.03-0.33,0.07-0.69,0.15-1.06c0.05-0.25,0.11-0.51,0.21-0.76c0.2-0.54,0.52-1.03,1.06-1.39c0.67-0.44,1.55-0.58,2.33-0.45
						c0.62,0.1,1.18,0.38,1.53,0.8c0.12,0.14,0.19,0.32,0.25,0.57c0,0,0,0.01,0,0.01c0.06,0.27,0.08,0.61,0.09,1.05
						C85.5,31.55,85.5,31.75,85.5,31.96z"/>
					<g id="Hair_6_">
						<path class="st22" d="M85.83,31.45c0.21,0.03,0.46,1.36-0.2,1.92c-0.15,0.13-0.32,0.19-0.43,0.22
							c-0.02-0.36,0.01-0.91,0.25-1.51C85.58,31.76,85.71,31.43,85.83,31.45z"/>
						<path class="st22" d="M83.59,28.82c0.04,0.54,0.92,0.45,1.35,1.22c0.49,0.87,0.73,2.7,0.9,2.65c0.45-0.13,0.51-1.87-0.08-3.29
							c-0.22-0.52-0.62-1.5-1.26-1.5C84.06,27.91,83.56,28.4,83.59,28.82z"/>
						<path class="st22" d="M80.01,32.03c0.17-0.99,0.31-1.79,0.79-1.99c0.39-0.16,0.58,0.21,1.36,0.31
							c1.06,0.14,1.41-0.78,2.26-0.66c0.93,0.13,1.26,1.26,1.49,1.15c0.31-0.15,0.07-2.36-1.18-2.94c-0.45-0.21-1.05-0.21-1.34-0.21
							c-0.3,0-0.62,0.04-1.24,0.14c-0.28,0.04-0.58,0.1-0.9,0.18c-0.06,0.01-0.11,0.03-0.17,0.04c-0.43,0.12-1.41,0.49-1.71,0.71
							c-1.12,0.84,0.18,4.74,0.41,4.71c0.02,0,0.06-0.26,0.13-0.78C79.98,32.34,80.01,32.07,80.01,32.03z"/>
					</g>
					<g id="Ears_10_">
						<path class="st20" d="M85.21,31.55c0.03-0.03,0.41-0.35,0.68-0.22c0.38,0.19,0.47,1.31-0.06,1.6
							c-0.27,0.15-0.68,0.08-0.88-0.17C84.66,32.42,84.89,31.84,85.21,31.55z"/>
						<path class="st20" d="M80.21,31.66c-0.03-0.02-0.43-0.34-0.69-0.19c-0.38,0.21-0.41,1.32,0.13,1.59
							c0.27,0.14,0.68,0.05,0.87-0.2C80.79,32.5,80.54,31.93,80.21,31.66z"/>
					</g>
					<path id="Beard_5_" class="st22" d="M85.63,34.41c-0.02,0.2-0.08,0.63-0.28,1.11c-0.09,0.2-0.2,0.42-0.35,0.62
						c-0.01,0.01-0.01,0.02-0.02,0.03c-0.09,0.13-0.42,0.56-0.94,0.89c-0.29,0.18-0.63,0.32-1.03,0.36
						c-0.27,0.03-0.53,0.01-0.78-0.05c-0.21-0.05-0.42-0.13-0.61-0.22c-0.7-0.35-1.27-0.99-1.55-1.6c-0.3-0.68-0.35-1.54-0.35-2.11
						c0-0.13,0-0.24,0.01-0.33c0.01-0.17,0.02-0.28,0.02-0.29c0,0-0.01-0.53,0.11-1.33c0.02-0.12,0.04-0.25,0.06-0.38
						c0.11-0.62,0.17-0.64,0.19-0.64c0.03,0,0.06,0.09,0.1,0.33c0,0.04,0.01,0.08,0.01,0.13c0.01,0.11,0.02,0.23,0.04,0.39
						c0.02,0.17,0.03,0.33,0.04,0.46c0.05,0.7,0.03,0.96,0.06,1.23c0.01,0.1,0.03,0.19,0.06,0.3c0.06,0.22,0.13,0.5,0.26,0.76
						c0.12,0.23,0.28,0.44,0.52,0.59c0.21,0.13,0.42,0.17,0.68,0.18c0.2,0,0.44-0.02,0.72-0.05c0.04,0,0.08-0.01,0.11-0.01
						c0.04,0,0.07-0.01,0.11-0.01c0.26-0.03,0.51-0.06,0.73-0.1c0.48-0.09,0.87-0.24,1.15-0.56c0.01-0.01,0.02-0.03,0.04-0.04
						c0.16-0.2,0.21-0.41,0.3-1.18c0.02-0.2,0.05-0.43,0.09-0.71c0-0.02,0.01-0.06,0.01-0.1c0.01-0.12,0.04-0.3,0.06-0.51
						c0.05-0.38,0.11-0.86,0.17-1.22c0,0,0-0.01,0-0.01c0.05-0.3,0.1-0.51,0.13-0.51c0.01,0,0.03,0.04,0.05,0.73
						c0.01,0.2,0.01,0.46,0.02,0.79c0,0.12,0,0.25,0.01,0.39c0,0.02,0,0.03,0,0.05c0,0.18,0.01,0.47,0.02,0.87c0,0.08,0,0.16,0,0.25
						c0,0.04,0,0.07,0,0.1c0,0.13,0,0.26,0,0.37C85.64,33.96,85.64,34.28,85.63,34.41z"/>
					<g id="Mustache_5_">
						<path class="st22" d="M82.85,34.15c-0.16-0.23-0.53-0.23-0.96-0.22c-0.27,0.01-0.3,0.04-0.78,0.09
							c-0.65,0.07-0.76,0.03-0.8,0.11c-0.11,0.22,0.48,0.97,1.26,1.08c0.48,0.07,1.14-0.09,1.32-0.53
							C82.94,34.54,82.96,34.31,82.85,34.15z"/>
						<path class="st22" d="M82.73,34.15c0.16-0.23,0.53-0.23,0.96-0.22c0.27,0.01,0.3,0.04,0.78,0.09c0.65,0.07,0.76,0.03,0.8,0.11
							c0.11,0.22-0.48,0.97-1.26,1.08c-0.48,0.07-1.14-0.09-1.32-0.53C82.63,34.54,82.61,34.31,82.73,34.15z"/>
					</g>
					<path id="Nose_5_" class="st23" d="M83.33,33.92c0,0.13-0.1,0.23-0.23,0.23H82.4c-0.11,0-0.2-0.08-0.22-0.18
						c-0.03-0.15-0.01-0.43,0-0.38c0.02,0.11,0.11,0.18,0.22,0.18h0.71c0.09,0,0.17-0.06,0.21-0.14
						C83.33,33.74,83.33,33.83,83.33,33.92z"/>
					<path id="Mouth_5_" class="st19" d="M81.96,34.97c0.14,0.04,0.26,0.08,0.39,0.1c0.13,0.02,0.25,0.03,0.37,0.03
						c0.12,0,0.25-0.01,0.37-0.04c0.13-0.02,0.25-0.06,0.39-0.1c0.04-0.01,0.07,0.01,0.08,0.04c0.01,0.02,0,0.04-0.01,0.06
						c-0.09,0.13-0.22,0.23-0.37,0.29c-0.14,0.07-0.31,0.1-0.47,0.1c-0.16,0-0.32-0.03-0.47-0.1c-0.14-0.07-0.27-0.16-0.37-0.29
						c-0.02-0.03-0.01-0.07,0.01-0.09C81.92,34.96,81.94,34.96,81.96,34.97L81.96,34.97z"/>
				</g>
				<path class="st24" d="M86.88,40.1c-0.11,0.07-0.22,0.13-0.33,0.19c-0.2,0.11-0.4,0.21-0.61,0.31c-0.09,0.04-0.18,0.08-0.27,0.11
					c-0.33,0.13-0.66,0.24-1,0.33c-0.07,0.02-0.15,0.03-0.22,0.05c-0.21,0.05-0.42,0.08-0.64,0.11c-0.15,0.02-0.3,0.04-0.45,0.05
					c-0.05,0-0.11,0.01-0.16,0.01c-0.04,0-0.07,0-0.11,0.01c-0.11,0-0.21,0.01-0.32,0.01c-0.12,0-0.24,0-0.36-0.01
					c-0.03,0-0.05,0-0.08,0c-0.06,0-0.11-0.01-0.17-0.01c-0.17-0.01-0.33-0.03-0.5-0.05c-0.21-0.03-0.41-0.07-0.61-0.11
					c-0.09-0.02-0.18-0.04-0.26-0.06c-0.22-0.06-0.44-0.13-0.66-0.21c-0.07-0.02-0.13-0.05-0.2-0.07c-0.33-0.13-0.64-0.27-0.94-0.44
					c-0.11-0.06-0.21-0.12-0.31-0.18c0.16-0.55,0.45-1.13,1.01-1.49c0.03-0.02,0.06-0.04,0.09-0.06c0.54-0.32,1.16-0.37,1.29-0.38
					c0.08-0.01,0.15-0.01,0.25-0.01c0,0-0.03,0.03-0.03,0.03c-0.01,0.01-0.01,0.01-0.02,0.02c-0.02,0.02-0.03,0.03-0.05,0.05
					c0.04,0.02,0.07,0.04,0.11,0.06c0.11,0.05,0.22,0.1,0.34,0.14c0.01,0.01,0.02,0.01,0.04,0.01c0.05,0.02,0.09,0.03,0.14,0.05
					c0.13,0.04,0.25,0.07,0.37,0.09c0.05,0.01,0.09,0.02,0.13,0.02c0.08,0.01,0.16,0.02,0.23,0.03c0.04,0,0.09,0.01,0.13,0.01h0.03
					c0.01,0,0.01,0,0.02,0c0.28-0.02,0.63-0.08,1.01-0.23c0.19-0.07,0.36-0.16,0.5-0.24c-0.01-0.02-0.02-0.03-0.02-0.05
					c-0.01-0.02-0.02-0.03-0.03-0.05c0,0,0.13,0.01,0.13,0.01c0.02,0,0.03,0,0.05,0c0.13,0.01,0.24,0.03,0.37,0.05
					c0.54,0.09,0.87,0.15,1.15,0.29c0.08,0.04,0.16,0.09,0.24,0.15C86.58,38.96,86.77,39.47,86.88,40.1z"/>
				<path class="st25" d="M81.67,41.19c-0.21-0.03-0.41-0.07-0.61-0.11c-0.09-0.02-0.18-0.04-0.26-0.06l0.28-2.84l0.04,0.21
					l0.13,0.68C81.25,39.08,81.67,41.19,81.67,41.19z"/>
				<path class="st25" d="M84.67,41.04c-0.07,0.02-0.15,0.03-0.22,0.05c-0.21,0.05-0.42,0.08-0.64,0.11l0.47-2.43l0.06-0.33
					c0-0.01,0.06-0.31,0.06-0.31L84.67,41.04z"/>
				<path class="st24" d="M80.55,39.91c-0.13,0.27-0.27,0.57-0.41,0.9c-0.07-0.02-0.13-0.05-0.2-0.07
					c-0.33-0.13-0.64-0.27-0.94-0.44c-0.11-0.06-0.21-0.12-0.31-0.18c-0.16-0.1-0.31-0.2-0.46-0.31c0.2-0.33,0.44-0.57,0.72-0.79
					c0.31-0.23,0.61-0.37,0.84-0.45c0.03-0.01,0.06-0.02,0.08-0.03C80.1,38.99,80.33,39.45,80.55,39.91z"/>
				<path class="st19" d="M84.42,38.13l-0.06,0.3c0,0.01-0.06,0.33-0.06,0.33l-0.47,2.43c-0.15,0.02-0.3,0.04-0.45,0.05
					c-0.05,0-0.11,0.01-0.16,0.01c-0.04,0-0.07,0-0.11,0.01c-0.11,0-0.21,0.01-0.32,0.01c-0.12,0-0.24,0-0.36-0.01
					c-0.03,0-0.05,0-0.08,0c-0.06,0-0.11-0.01-0.17-0.01c-0.17-0.01-0.33-0.03-0.5-0.05c0,0-0.42-2.12-0.42-2.12l-0.13-0.68
					l-0.04-0.21c0.04,0.02,0.07,0.04,0.11,0.07c0.01,0.01,0.03,0.01,0.04,0.02c0.35,0.2,0.69,0.31,1.01,0.37
					c0.17,0.03,0.33,0.04,0.49,0.04h0.03c0.01,0,0.01,0,0.02,0c0.62-0.01,1.12-0.23,1.4-0.39c0.01-0.01,0.01-0.01,0.02-0.01
					c0.04-0.02,0.07-0.04,0.1-0.06C84.35,38.17,84.4,38.14,84.42,38.13C84.41,38.13,84.42,38.13,84.42,38.13z"/>
				<polygon class="st26" points="82.75,38.67 82.28,39.51 82.76,40.03 83.25,39.5 				"/>
				<path class="st26" d="M83.1,41.26c-0.11,0-0.21,0.01-0.32,0.01c-0.12,0-0.24,0-0.36-0.01l0.11-1.24l0.02-0.23c0,0,0-0.04,0-0.04
					h0.43l0.01,0.05l0.03,0.34L83.1,41.26z"/>
				<path class="st27" d="M81.08,38.18c0.14,0.25,0.28,0.51,0.44,0.77c0.19,0.31,0.38,0.61,0.56,0.88c0.12-0.17,0.23-0.35,0.35-0.55
					c0.12-0.21,0.23-0.41,0.32-0.6c-0.21,0.02-0.58,0.02-1-0.13C81.49,38.46,81.25,38.28,81.08,38.18z"/>
				<path class="st19" d="M82.75,38.68l-0.66,1.07l-1.01-1.57c0.09-0.01,0.18-0.02,0.27-0.02c0,0-0.01,0.01-0.01,0.01
					c-0.03,0.03-0.07,0.07-0.1,0.1c0.14,0.07,0.3,0.15,0.49,0.21c0.38,0.13,0.73,0.18,1,0.19h0.01
					C82.74,38.68,82.74,38.68,82.75,38.68z"/>
				<path class="st27" d="M84.41,38.13c0,0,0,0.01-0.01,0.01c-0.13,0.25-0.26,0.5-0.41,0.76c-0.18,0.32-0.36,0.62-0.54,0.9
					c-0.12-0.17-0.24-0.35-0.37-0.54c-0.13-0.21-0.25-0.39-0.35-0.58c0.21,0.01,0.59-0.01,1.01-0.16
					C84,38.42,84.24,38.24,84.41,38.13C84.41,38.13,84.41,38.13,84.41,38.13z"/>
				<path class="st19" d="M84.41,38.13c0,0.01-0.01,0.01-0.01,0.01c-0.32,0.53-0.63,1.05-0.95,1.58l-0.71-1.04c0.01,0,0.01,0,0.02,0
					c0.28-0.02,0.63-0.08,1.01-0.23c0.19-0.07,0.36-0.15,0.5-0.24c-0.02-0.03-0.03-0.06-0.05-0.1c0,0,0-0.01-0.01-0.01
					C84.29,38.11,84.35,38.12,84.41,38.13C84.41,38.13,84.41,38.13,84.41,38.13z"/>
				<g id="Left_x5F_sleeve_5_">
					<path class="st24" d="M87.55,39.63c-0.21,0.17-0.44,0.33-0.67,0.47c-0.11,0.07-0.22,0.13-0.33,0.19
						c-0.2,0.11-0.4,0.21-0.61,0.31c-0.09,0.04-0.18,0.08-0.27,0.11c-0.15-0.32-0.3-0.6-0.44-0.85c0.2-0.47,0.41-0.94,0.61-1.41
						c0.02,0.01,0.04,0.01,0.07,0.02c0.23,0.07,0.55,0.2,0.88,0.42C87.09,39.09,87.33,39.32,87.55,39.63z"/>
				</g>
			</g>
		</g>
	</g>
	<g>
		<path class="st16" d="M80.21,58.75v15.72c0,1.32-1.07,2.38-2.38,2.38h-15.9l-1.62,4.56l-5.9-4.56H23.65V56.36h54.17
			C79.14,56.36,80.21,57.43,80.21,58.75z"/>
		<g>
			<path class="st28" d="M74.92,73.99H18.05c-1.27,0-2.3-1.03-2.3-2.3V55.8c0-1.27,1.03-2.3,2.3-2.3h56.87c1.27,0,2.3,1.03,2.3,2.3
				v15.89C77.23,72.96,76.2,73.99,74.92,73.99z"/>
			<polygon class="st28" points="51.43,73.99 58.95,73.99 57.33,78.55 			"/>
			<g>
				<g>
					<rect x="37.9" y="63.47" class="st29" width="35.6" height="1.01"/>
				</g>
				<g>
					<rect x="37.9" y="65.95" class="st29" width="35.6" height="1.01"/>
				</g>
				<g>
					<rect x="37.9" y="68.42" class="st29" width="25.52" height="1.01"/>
				</g>
				<g>
					<path class="st29" d="M62.01,59.72v0.87c0,0.37-0.3,0.66-0.66,0.66H38.57c-0.37,0-0.66-0.3-0.66-0.66v-0.87
						c0-0.37,0.3-0.66,0.66-0.66h22.78C61.72,59.06,62.01,59.36,62.01,59.72z"/>
				</g>
			</g>
			<path class="st18" d="M21.94,66.87c0.92,1.16,2.34,1.91,3.93,1.91c1.58,0,2.99-0.74,3.91-1.88c-0.01-0.01-0.01-0.01-0.01-0.01
				c-0.38-0.76-2.05-1.25-2.05-1.25s-0.46-0.02-0.7-0.25c-0.24-0.23-0.13-0.58-0.13-0.58c0.51-0.54,0.52-1.06,0.52-1.06
				s0.15,0,0.34-0.26c0.19-0.26,0.26-0.74,0.25-0.96c-0.01-0.21-0.17-0.33-0.17-0.33c0.3-0.32,0.11-1.66,0.11-1.66
				s-0.35-1.31-1.47-1.45c-1.11-0.14-1.43,0.53-1.43,0.53s-0.45-0.12-0.78,0.11c-0.33,0.23-0.41,0.75-0.48,0.91
				c-0.07,0.16-0.01,0.74-0.02,0.91c-0.01,0.17,0.07,0.42,0.07,0.52c0,0.09-0.06,0.18-0.06,0.18c-0.11,0.49,0.05,0.79,0.06,0.91
				c0.01,0.13,0.07,0.21,0.07,0.21c0.24,0.24,0.34,0.46,0.34,0.46c0.17,0.54,0.51,0.95,0.56,1.06c0.05,0.1,0.04,0.27,0.01,0.39
				c-0.03,0.12-0.22,0.19-0.22,0.19c-0.69,0.18-1.15,0.29-1.93,0.73C22.27,66.41,22.05,66.67,21.94,66.87z"/>
			<g>
				<g>
					<path class="st19" d="M34.84,63.74c0,2.73-1.39,5.14-3.5,6.56c-0.06,0.04-0.11,0.07-0.17,0.11c-0.22,0.14-0.45,0.27-0.69,0.39
						c-0.08,0.04-0.16,0.08-0.25,0.12c-0.25,0.12-0.51,0.22-0.78,0.31c0,0-0.01,0-0.01,0c-0.05,0.02-0.09,0.03-0.14,0.04
						c-0.01,0.01-0.03,0.01-0.05,0.01c-0.73,0.23-1.51,0.35-2.32,0.35c-0.95,0-1.87-0.17-2.72-0.48c-0.02,0-0.03-0.01-0.05-0.02
						c-0.19-0.07-0.37-0.15-0.55-0.23c-0.07-0.03-0.15-0.07-0.22-0.11c-0.34-0.17-0.67-0.36-0.98-0.58
						c-0.05-0.03-0.09-0.06-0.14-0.1c-1.97-1.44-3.25-3.76-3.25-6.38c0-4.36,3.54-7.9,7.9-7.9S34.84,59.38,34.84,63.74z"/>
					<path id="Head_x5F_back_4_" class="st30" d="M23.34,61.06c-0.13,1.51,0.02,1.62-0.05,3.16c-0.05,1.14-0.15,1.43,0.11,1.65
						c0.4,0.33,0.9-0.13,2.34-0.18c1.27-0.04,1.47,0.19,3.08,0.1c0.97-0.05,1.47-0.09,1.76-0.36c0.57-0.53,0.34-1.49,0-2.87
						c-0.42-1.71-0.63-2.56-1.24-3.1c-1.61-1.43-4.93-1.18-5.77,0.1C23.45,59.76,23.41,60.19,23.34,61.06z"/>
					<path class="st31" d="M27.75,68.88c-0.09,0.07-0.39,0.03-0.98-0.06c-0.01,0-0.02,0-0.02,0c-0.58-0.08-0.67-0.13-0.74-0.21
						c-0.2-0.23-0.08-0.59,0-0.97c0.09-0.44,0.16-1.07,0.06-1.89c0.55,0.14,1.1,0.28,1.65,0.42c0,0.14,0,0.31,0.01,0.52
						c0.01,0.21,0.02,0.45,0.04,0.71C27.86,68.34,27.97,68.7,27.75,68.88z"/>
					<path class="st32" d="M27.05,66.99c-0.49,0.46-0.27,1.21-0.27,1.83c-0.01,0-0.02,0-0.02,0c-0.58-0.08-0.67-0.13-0.74-0.21
						c-0.2-0.23-0.08-0.59,0-0.97c0.09-0.44,0.16-1.07,0.06-1.89c0.55,0.14,1.1,0.28,1.65,0.42c0,0.14,0,0.31,0.01,0.52
						C27.36,66.81,27.15,66.9,27.05,66.99z"/>
					<path class="st31" d="M26.83,58.84c-1.7,0.23-2.51,1.73-2.59,1.89c-0.7,1.33-0.3,2.62-0.16,3.07c0.17,0.56,0.5,1.63,1.57,2.2
						c0.77,0.41,1.9,0.55,2.79,0c0.83-0.52,1.07-1.39,1.26-2.08c0.34-1.25,0.56-3.79-0.98-4.76C27.97,58.68,27.13,58.8,26.83,58.84z
						"/>
					<path class="st33" d="M26.47,64.78c0.11,0.01,0.2,0.03,0.29,0.05c0.09,0.01,0.18,0.03,0.27,0.03c0.18,0,0.36-0.04,0.55-0.1
						c0.05-0.02,0.1,0,0.12,0.04c0.01,0.02,0.01,0.05-0.01,0.07c-0.15,0.16-0.39,0.26-0.65,0.27c-0.13,0.01-0.26-0.01-0.37-0.05
						c-0.12-0.04-0.22-0.1-0.29-0.19c-0.03-0.03-0.02-0.08,0.02-0.1C26.42,64.78,26.44,64.77,26.47,64.78L26.47,64.78z"/>
					<path class="st30" d="M27.6,59.14c0.66,0.34,1.01-0.08,1.48,0.26c0,0,0.72,0.54,0.63,2.37c0,0.01,0,0.02,0,0.03
						c-0.01,0.24-0.02,0.46,0.06,0.57c0.09,0.13,0.33,0.14,0.46,0.11c0.63-0.16,1.17-2.19,0.36-3.67c-0.41-0.74-1.01-1.08-1.15-1.15
						c-1.02-0.54-2.47-0.44-2.7,0.11C26.57,58.16,27.03,58.85,27.6,59.14z"/>
					<path class="st30" d="M23.97,63.24c0.08-0.02,0.12-0.15,0.17-0.31c0.32-1.22,0.37-1.71,0.55-2.21
						c0.12-0.33,0.35-0.81,0.81-1.02c0.88-0.38,1.74,0.62,2.41,0.25c0.56-0.31,0.76-1.46,0.32-2.08c-0.6-0.86-2.22-0.47-3.01-0.1
						c-1.09,0.51-1.58,1.46-1.71,1.71c-0.02,0.05-0.06,0.12-0.11,0.23c-0.37,0.87-0.28,1.76-0.28,1.76
						C23.22,62.38,23.73,63.29,23.97,63.24z"/>
					<path class="st31" d="M23.95,61.97c-0.2-0.16-0.61-0.11-0.8,0.12c-0.24,0.29-0.01,0.75,0.09,0.94
						c0.29,0.56,0.91,0.94,1.06,0.81c0.1-0.08-0.06-0.28-0.16-0.94C24.05,62.3,24.12,62.11,23.95,61.97z"/>
					<path class="st31" d="M29.99,61.89c0.2-0.17,0.61-0.14,0.81,0.08c0.26,0.28,0.05,0.75-0.04,0.94
						c-0.26,0.58-0.86,0.98-1.02,0.86c-0.1-0.07,0.05-0.28,0.12-0.94C29.92,62.23,29.83,62.03,29.99,61.89z"/>
					<path class="st34" d="M30.49,70.8c-0.08,0.04-0.16,0.08-0.25,0.12c-0.25,0.12-0.51,0.22-0.78,0.31c0,0-0.01,0-0.01,0
						c-0.05,0.02-0.09,0.03-0.14,0.04c-0.01,0.01-0.03,0.01-0.05,0.01c-0.73,0.23-1.51,0.35-2.32,0.35c-0.95,0-1.87-0.17-2.72-0.48
						c-0.02,0-0.03-0.01-0.05-0.02c-0.19-0.07-0.37-0.15-0.55-0.23c-0.07-0.03-0.15-0.07-0.22-0.11c0.26-1.96,0.72-2.33,1.02-2.45
						c0.05-0.02,0.11-0.04,0.17-0.05c0.02-0.01,0.05-0.01,0.07-0.01c0.01,0,0.01,0,0.02,0c0.16-0.03,0.35-0.06,0.61-0.09
						c0.06-0.01,0.12-0.01,0.18-0.02c0.16-0.01,0.3-0.03,0.44-0.03c0.28-0.02,0.54-0.02,0.75-0.01c0.02,0,0.05,0,0.07,0
						c0.06,0,0.11,0.01,0.16,0.01c0.02,0,0.04,0,0.06,0c0.05,0,0.11,0,0.17-0.01c0.12-0.01,0.24-0.01,0.38-0.01
						c0.11,0,0.23,0,0.36,0.01c0.15,0.01,0.31,0.01,0.48,0.03c0.06,0.01,0.12,0.01,0.18,0.02c0.03,0,0.06,0.01,0.08,0.01
						c0.31,0.04,0.54,0.07,0.71,0.11c0.01,0,0.02,0.01,0.04,0.01c0.02,0.01,0.04,0.01,0.07,0.02c0.02,0.01,0.04,0.01,0.06,0.02
						c0.15,0.06,0.35,0.19,0.54,0.57C30.19,69.29,30.36,69.86,30.49,70.8z"/>
					<path class="st34" d="M26.89,68.15c-0.13,0.04-0.3,0.12-0.48,0.26c-0.34,0.28-0.46,0.64-0.51,0.78c0.67,0,1.34,0,2.01,0
						c-0.07-0.19-0.25-0.61-0.69-0.89C27.11,68.23,27,68.18,26.89,68.15z"/>
					<polygon class="st35" points="26.01,67.76 25.3,68.32 25.91,69.19 26.89,68.27 					"/>
					<polygon class="st36" points="26.01,67.64 25.3,68.2 25.91,69.07 26.89,68.15 					"/>
					<polygon class="st35" points="27.81,67.76 28.53,68.32 27.92,69.19 26.89,68.27 					"/>
					<polygon class="st36" points="27.81,67.64 28.53,68.2 27.92,69.07 26.89,68.15 					"/>
					<path class="st34" d="M25.07,69.82c-0.26,0.36-0.55,0.81-0.84,1.34c-0.02,0-0.03-0.01-0.05-0.02
						c-0.19-0.07-0.37-0.15-0.55-0.23c-0.07-0.03-0.15-0.07-0.22-0.11c-0.34-0.17-0.67-0.36-0.98-0.58
						c-0.05-0.03-0.09-0.06-0.14-0.1c0.35-0.7,0.71-1.07,1.16-1.36c0.43-0.27,0.85-0.4,1.15-0.46c0.02-0.01,0.05-0.01,0.07-0.01
						c0.01,0,0.01,0,0.02,0c0.04,0.24,0.1,0.49,0.16,0.75C24.92,69.32,24.99,69.58,25.07,69.82z"/>
					<path class="st37" d="M30.49,70.8c-0.08,0.04-0.16,0.08-0.25,0.12c-0.25,0.12-0.51,0.22-0.78,0.31c0,0-0.01,0-0.01,0
						c-0.05,0.02-0.09,0.03-0.14,0.04c-0.17-0.54-0.36-1.03-0.55-1.48c0.11-0.2,0.22-0.39,0.33-0.6c0.13-0.25,0.26-0.49,0.38-0.73
						c0.2,0.08,0.3,0.24,0.54,0.46C30.19,69.29,30.36,69.86,30.49,70.8z"/>
					<path class="st34" d="M31.34,70.3c-0.06,0.04-0.11,0.07-0.17,0.11c-0.22,0.14-0.45,0.27-0.69,0.39
						c-0.08,0.04-0.16,0.08-0.25,0.12c-0.25,0.12-0.51,0.22-0.78,0.31c-0.23-0.56-0.48-1.04-0.7-1.43c0.26-0.47,0.28-1.02,0.54-1.5
						c0.01,0,0.02,0.01,0.04,0.01c0.02,0.01,0.04,0.01,0.07,0.02c0.03,0.01,0.06,0.01,0.09,0.02c0,0,0.52,0.16,0.98,0.56
						C30.82,69.22,31.1,69.73,31.34,70.3z"/>
				</g>
			</g>
		</g>
	</g>
	<g>
		<path class="st19" d="M93.22,20.58c-0.24,0-0.44-0.2-0.44-0.44v-2.63c0-0.24,0.2-0.44,0.44-0.44c0.24,0,0.44,0.2,0.44,0.44v2.63
			C93.66,20.38,93.47,20.58,93.22,20.58z"/>
	</g>
	<g>
		<path class="st19" d="M99.76,24.85h-2.63c-0.24,0-0.44-0.2-0.44-0.44c0-0.24,0.2-0.44,0.44-0.44h2.63c0.24,0,0.44,0.2,0.44,0.44
			C100.2,24.66,100,24.85,99.76,24.85z"/>
	</g>
	<g>
		<path class="st19" d="M95.56,21.98c-0.17-0.17-0.17-0.45,0-0.62l1.86-1.86c0.17-0.17,0.45-0.17,0.62,0c0.17,0.17,0.17,0.45,0,0.62
			l-1.86,1.86C96.01,22.16,95.73,22.16,95.56,21.98z"/>
	</g>
	<g>
		<g>
			<path class="st19" d="M16.94,50.96c0.24,0,0.44-0.2,0.44-0.44v-2.63c0-0.24-0.2-0.44-0.44-0.44c-0.24,0-0.44,0.2-0.44,0.44v2.63
				C16.5,50.77,16.7,50.96,16.94,50.96z"/>
		</g>
		<g>
			<path class="st19" d="M10.41,55.24h2.63c0.24,0,0.44-0.2,0.44-0.44c0-0.24-0.2-0.44-0.44-0.44h-2.63c-0.24,0-0.44,0.2-0.44,0.44
				C9.97,55.04,10.17,55.24,10.41,55.24z"/>
		</g>
		<g>
			<path class="st19" d="M14.61,52.37c0.17-0.17,0.17-0.45,0-0.62l-1.86-1.86c-0.17-0.17-0.45-0.17-0.62,0s-0.17,0.45,0,0.62
				l1.86,1.86C14.16,52.54,14.43,52.54,14.61,52.37z"/>
		</g>
	</g>
</g>
</svg>
