<svg xmlns="http://www.w3.org/2000/svg" width="30" height="30" viewBox="0 0 30 30">
  <g id="facebook" transform="translate(0)">
    <path id="Path_21498" data-name="Path 21498" d="M28.344,0H1.654A1.656,1.656,0,0,0,0,1.656V28.345A1.656,1.656,0,0,0,1.656,30H28.344A1.656,1.656,0,0,0,30,28.345h0V1.655A1.656,1.656,0,0,0,28.344,0Zm0,0" transform="translate(0 0)" fill="#4267b2"/>
    <path id="Path_21499" data-name="Path 21499" d="M215.451,102.4V90.976h3.85l.577-4.47h-4.427V83.659c0-1.291.358-2.171,2.21-2.171h2.347V77.5a31.548,31.548,0,0,0-3.439-.176c-3.4,0-5.732,2.077-5.732,5.892v3.29H207v4.47h3.836V102.4Zm0,0" transform="translate(-194.723 -72.397)" fill="#fff"/>
  </g>
</svg>
