<?xml version="1.0" encoding="utf-8"?>
<!-- Generator: Adobe Illustrator 25.2.0, SVG Export Plug-In . SVG Version: 6.00 Build 0)  -->
<!DOCTYPE svg PUBLIC "-//W3C//DTD SVG 1.1//EN" "http://www.w3.org/Graphics/SVG/1.1/DTD/svg11.dtd" [
	<!ENTITY ns_extend "http://ns.adobe.com/Extensibility/1.0/">
	<!ENTITY ns_ai "http://ns.adobe.com/AdobeIllustrator/10.0/">
	<!ENTITY ns_graphs "http://ns.adobe.com/Graphs/1.0/">
	<!ENTITY ns_vars "http://ns.adobe.com/Variables/1.0/">
	<!ENTITY ns_imrep "http://ns.adobe.com/ImageReplacement/1.0/">
	<!ENTITY ns_sfw "http://ns.adobe.com/SaveForWeb/1.0/">
	<!ENTITY ns_custom "http://ns.adobe.com/GenericCustomNamespace/1.0/">
	<!ENTITY ns_adobe_xpath "http://ns.adobe.com/XPath/1.0/">
]>
<svg version="1.1" id="Layer_1" xmlns:x="&ns_extend;" xmlns:i="&ns_ai;" xmlns:graph="&ns_graphs;"
	 xmlns="http://www.w3.org/2000/svg" xmlns:xlink="http://www.w3.org/1999/xlink" x="0px" y="0px" width="180px" height="180px"
	 viewBox="0 0 180 180" style="enable-background:new 0 0 180 180;" xml:space="preserve">
<style type="text/css">
	.st0{clip-path:url(#SVGID_2_);}
	.st1{fill:#09C6A2;}
	.st2{fill:#29D3B2;}
	.st3{fill:#FFDB79;}
	.st4{fill-rule:evenodd;clip-rule:evenodd;fill:#34465C;}
	.st5{fill-rule:evenodd;clip-rule:evenodd;fill:#34404F;}
	.st6{fill-rule:evenodd;clip-rule:evenodd;fill:#6E7F8F;}
	.st7{fill-rule:evenodd;clip-rule:evenodd;fill:#FFE8AE;}
	.st8{fill-rule:evenodd;clip-rule:evenodd;fill:#FEFEFE;}
	.st9{fill-rule:evenodd;clip-rule:evenodd;fill:#363F48;}
	.st10{fill-rule:evenodd;clip-rule:evenodd;fill:#F16858;}
	.st11{fill-rule:evenodd;clip-rule:evenodd;fill:#C02729;}
	.st12{fill-rule:evenodd;clip-rule:evenodd;fill:#D0D2D4;}
	.st13{fill-rule:evenodd;clip-rule:evenodd;fill:#7C7C7C;}
	.st14{fill-rule:evenodd;clip-rule:evenodd;fill:#FFFFFF;}
	.st15{fill-rule:evenodd;clip-rule:evenodd;fill:#353F49;}
	.st16{fill-rule:evenodd;clip-rule:evenodd;fill:#F77B55;}
	.st17{fill-rule:evenodd;clip-rule:evenodd;fill:#76D0DE;}
	.st18{fill-rule:evenodd;clip-rule:evenodd;fill:#FFDB79;}
	.st19{fill-rule:evenodd;clip-rule:evenodd;fill:#CCCCCC;}
	.st20{fill-rule:evenodd;clip-rule:evenodd;fill:#08C6A2;}
</style>
<metadata>
	<sfw  xmlns="&ns_sfw;">
		<slices></slices>
		<sliceSourceBounds  bottomLeftOrigin="true" height="216.5" width="216.5" x="-21.2" y="-211.5"></sliceSourceBounds>
	</sfw>
</metadata>
<g>
	<defs>
		<circle id="SVGID_1_" cx="90" cy="90" r="90"/>
	</defs>
	<clipPath id="SVGID_2_">
		<use xlink:href="#SVGID_1_"  style="overflow:visible;"/>
	</clipPath>
	<g class="st0">
		<g id="Background">
			<rect id="Background_1" x="-21.2" y="-5" class="st1" width="216.5" height="216.5"/>
			<circle id="Background_2" class="st2" cx="90" cy="90" r="59.9"/>
		</g>
		<g id="Web_Design_1_">
			<g>
				<polygon class="st3" points="60.8,38.1 82.8,38.1 83.4,38.1 83.4,38.6 83.4,53.4 101,53.4 101.6,53.4 101.6,54 101.6,61.5 
					100.5,61.5 100.5,54.5 82.8,54.5 82.3,54.5 82.3,54 82.3,39.1 60.8,39.1 				"/>
				<polygon class="st3" points="43.4,45.7 31.8,45.7 31.8,65.7 30.7,65.7 30.7,45.1 30.7,44.6 31.3,44.6 43.4,44.6 				"/>
			</g>
			<g>
				<path class="st4" d="M49.3,71h87.9c1.8,0,3.2,1.5,3.2,3.3v60H46.1v-60C46.1,72.5,47.5,71,49.3,71L49.3,71z"/>
				<path class="st5" d="M31.4,145.3h61.8h61.8c0.3,0,0.3-0.3-0.1-0.6l-13.3-10.2c-0.4-0.3-1-0.6-1.4-0.6h-47h-47
					c-0.3,0-1,0.3-1.4,0.6l-13.3,10.2C31.2,145,31.1,145.3,31.4,145.3L31.4,145.3z"/>
				<path class="st4" d="M31.9,144.5c40.9,0,81.8,0,122.6,0c0.9,0,1,0.8,0.2,1.7l-1.7,1.9c-0.8,0.9-2.3,1.7-3.2,1.7
					c-37.8,0-75.6,0-113.3,0c-0.9,0-2.4-0.8-3.2-1.7l-1.7-1.9C30.9,145.3,31,144.5,31.9,144.5L31.9,144.5z"/>
				<polygon class="st6" points="83.6,139.6 88.8,139.6 97.7,139.6 102.9,139.6 105.8,142.8 94.8,142.8 91.7,142.8 80.7,142.8 				
					"/>
				<rect x="49" y="75.1" class="st7" width="88.5" height="56"/>
			</g>
			<g>
				<g>
					<path class="st8" d="M146.4,60.5c0.7-1.1,1.1-2.4,1.3-3.7l3.9-0.7l-1.1-6.1l-3.9,0.7c-0.3-0.6-0.7-1.1-1.1-1.6
						c-0.4-0.5-0.9-1-1.4-1.4l1.4-3.7l-5.8-2.1l-1.4,3.7c-1.3,0-2.6,0.2-3.9,0.7l-2.5-3.1l-4.7,4l2.5,3c-0.7,1.1-1.1,2.4-1.3,3.7
						l-3.9,0.7l1.1,6.1l3.9-0.7c0.3,0.6,0.7,1.1,1.1,1.6c0.4,0.5,0.9,1,1.4,1.4l-1.4,3.7l5.8,2.1l1.4-3.7c1.3,0,2.6-0.2,3.9-0.7
						l2.5,3.1l4.7-4L146.4,60.5z"/>
					<path class="st9" d="M140.1,57.7c1.3-1.1,1.5-3,0.4-4.3c-1.1-1.3-3-1.5-4.4-0.4c-1.3,1.1-1.5,3-0.4,4.4
						C136.8,58.6,138.7,58.8,140.1,57.7L140.1,57.7z M142,60c2.6-2.2,2.9-6,0.8-8.6c-2.2-2.6-6-2.9-8.6-0.8c-2.6,2.2-2.9,6-0.8,8.6
						C135.6,61.8,139.4,62.2,142,60L142,60z"/>
				</g>
				<g>
					<path class="st8" d="M121.3,47.7c-0.4-0.8-0.9-1.6-1.6-2.2l1.2-2.5l-3.9-1.8l-1.2,2.5c-0.4,0-0.9,0-1.4,0
						c-0.5,0-0.9,0.1-1.3,0.3l-1.6-2.3l-3.5,2.5l1.6,2.3c-0.5,0.7-0.9,1.6-1.1,2.5l-2.8,0.2l0.4,4.3l2.8-0.3
						c0.4,0.8,0.9,1.6,1.6,2.2l-1.2,2.5l3.9,1.8l1.2-2.5c0.4,0,0.9,0,1.4,0c0.5,0,0.9-0.1,1.3-0.3l1.6,2.2l3.5-2.5l-1.6-2.3
						c0.5-0.7,0.9-1.6,1.1-2.5l2.8-0.3l-0.4-4.3L121.3,47.7z"/>
					<path class="st9" d="M117.3,50.2c-0.1-1.2-1.2-2-2.3-1.9c-1.2,0.1-2,1.2-1.9,2.3c0.1,1.2,1.2,2.1,2.3,1.9
						C116.5,52.5,117.4,51.4,117.3,50.2L117.3,50.2z M119.3,50.1c-0.2-2.3-2.3-4-4.6-3.8c-2.3,0.2-4,2.3-3.8,4.6
						c0.2,2.3,2.3,4,4.6,3.8C117.8,54.4,119.6,52.4,119.3,50.1L119.3,50.1z"/>
				</g>
			</g>
			<g>
				<path class="st8" d="M52.4,30.2c-4.3,0-7.9,2.7-8.9,6.5c-4.2,0.4-7.4,3.8-7.4,7.8c0,4.3,3.8,7.9,8.4,7.9l0,0h21.4l0,0
					c0,0,0,0,0.1,0c4,0,7.2-3,7.2-6.8c0-2.8-1.8-5.2-4.4-6.2c0,0,0-0.1,0-0.1c0-2.6-2.3-4.8-5.1-4.8c-1.1,0-2.1,0.3-2.9,0.9
					C59.4,32.3,56.1,30.2,52.4,30.2L52.4,30.2z"/>
				<path class="st8" d="M81.7,48.2c-2.2,0-4.1,1.4-4.6,3.4c-2.2,0.2-3.9,2-3.9,4.1c0,2.3,2,4.1,4.4,4.1l0,0h11.2l0,0c0,0,0,0,0,0
					c2.1,0,3.8-1.6,3.8-3.5c0-1.5-0.9-2.7-2.3-3.2c0,0,0,0,0-0.1c0-1.4-1.2-2.5-2.7-2.5c-0.6,0-1.1,0.2-1.5,0.5
					C85.3,49.3,83.6,48.2,81.7,48.2L81.7,48.2z"/>
			</g>
			<g>
				<rect x="129.3" y="98.2" class="st8" width="29.6" height="38.1"/>
				<path class="st10" d="M159,98.2h-15h-15c-0.6,0-1.1-0.5-1.1-1.1v-1.6c0-0.6,0.5-1.1,1.1-1.1h10.8c0-0.1,0-0.3,0-0.4
					c0-2.3,1.9-4.2,4.2-4.2c2.3,0,4.2,1.9,4.2,4.2c0,0.1,0,0.3,0,0.4H159c0.6,0,1.1,0.5,1.1,1.1v1.6C160.1,97.7,159.6,98.2,159,98.2
					L159,98.2z M144.1,92.4c-0.9,0-1.6,0.7-1.6,1.6c0,0.9,0.7,1.6,1.6,1.6c0.9,0,1.6-0.7,1.6-1.6C145.7,93.1,144.9,92.4,144.1,92.4
					L144.1,92.4z"/>
				<path class="st11" d="M159,98.2h-15h-15c-0.6,0-1.1-0.5-1.1-1.1v0h32.1v0C160.1,97.7,159.6,98.2,159,98.2L159,98.2z"/>
				<polygon class="st12" points="154,136.3 158.9,131.4 154,131.5 				"/>
				<g>
					<rect x="133.6" y="103.6" class="st13" width="20.9" height="1.8"/>
					<rect x="133.6" y="110.4" class="st13" width="20.9" height="1.8"/>
					<rect x="133.6" y="117.3" class="st13" width="20.9" height="1.8"/>
					<rect x="133.6" y="124.1" class="st13" width="20.9" height="1.8"/>
				</g>
			</g>
			<g>
				<g>
					<path class="st14" d="M22.4,61.4h99.7c1.4,0,2.5,1.1,2.5,2.5v56.7c0,1.4-1.1,2.5-2.5,2.5H22.4c-1.4,0-2.5-1.1-2.5-2.5V63.9
						C19.9,62.5,21,61.4,22.4,61.4L22.4,61.4z"/>
					<g>
						<path class="st15" d="M22.1,61.4h100.3c1.2,0,2.2,1,2.2,2.2v6.8c0,0.1-0.1,0.2-0.2,0.2H19.9v-7C19.9,62.4,20.9,61.4,22.1,61.4
							L22.1,61.4z"/>
						<path class="st16" d="M25.1,67.9c1.1,0,1.9-0.9,1.9-2c0-1.1-0.9-2-1.9-2c-1.1,0-1.9,0.9-1.9,2C23.1,67,24,67.9,25.1,67.9
							L25.1,67.9z"/>
						<path class="st17" d="M30.4,67.9c1.1,0,1.9-0.9,1.9-2c0-1.1-0.9-2-1.9-2c-1.1,0-1.9,0.9-1.9,2C28.5,67,29.4,67.9,30.4,67.9
							L30.4,67.9z"/>
						<path class="st18" d="M35.8,67.9c1.1,0,1.9-0.9,1.9-2c0-1.1-0.9-2-1.9-2c-1.1,0-1.9,0.9-1.9,2C33.9,67,34.7,67.9,35.8,67.9
							L35.8,67.9z"/>
						<rect x="40.6" y="64.2" class="st14" width="81" height="3.8"/>
					</g>
				</g>
				<rect x="28.3" y="74.2" class="st19" width="22.5" height="3"/>
				<rect x="60.1" y="74.2" class="st19" width="22.5" height="3"/>
				<rect x="92" y="74.2" class="st19" width="22.5" height="3"/>
				<rect x="27.7" y="82" class="st18" width="54.1" height="24.6"/>
				<rect x="86.2" y="82" class="st16" width="16.6" height="15.7"/>
				<rect x="27.3" y="109.5" class="st19" width="41.3" height="1.7"/>
				<rect x="35.2" y="112.7" class="st19" width="41.3" height="1.7"/>
				<rect x="28.5" y="116.1" class="st19" width="41.3" height="1.7"/>
				<polygon class="st14" points="97.8,89.9 94.5,91.9 91.1,94 91.1,89.9 91.1,85.8 94.5,87.9 				"/>
				<rect x="86.2" y="101.6" class="st20" width="33.1" height="15.7"/>
				<rect x="102.8" y="82" class="st18" width="16.6" height="15.7"/>
				<path class="st15" d="M40.1,96.4L37,95l3.6-1.4l0.1-0.8L36,94.6l-0.1,0.8l4.1,1.8L40.1,96.4z M47.2,95.5l-0.8,4.5h1.1l1.7-10
					h-1.1l-0.8,4.5h-2.4l0.8-4.5h-1.1l-1.7,10h1.1l0.8-4.5H47.2z M51.2,100l1.6-9h1.8l0.2-1H50l-0.2,1h1.8l-1.6,9H51.2z M60.4,92
					l-1.4,8h1.1l1.7-10h-1.6l-3,8l-0.3-8h-1.6l-1.7,10h1l1.4-8l0.3,7.9h1.1L60.4,92z M65.2,100l0.2-1h-2.8l1.5-9h-1.1l-1.7,10H65.2z
					 M68.7,97.3l4.7-1.8l0.1-0.8l-4.1-1.8l-0.1,0.8l3.1,1.4l-3.6,1.4L68.7,97.3z"/>
				<path class="st8" d="M94.9,110.7l-2.5-1.1l2.8-1.1l0.1-0.6l-3.7,1.4l-0.1,0.6l3.3,1.4L94.9,110.7z M98.3,105.6l-1.2,7.9H99
					c1.2,0,1.9-0.7,2.1-2l0.6-4c0.2-1.2-0.3-2-1.5-2H98.3z M98.1,112.7l0.9-6.3h0.9c0.6,0,0.9,0.4,0.8,1.1l-0.6,4.1
					c-0.1,0.7-0.5,1.1-1.1,1.1H98.1z M102.8,105.6l-1.2,7.9h0.9l1.2-7.9H102.8z M104.3,105.6l0.3,7.9h1.3l2.6-7.9h-0.8l-2.3,6.9
					l-0.3-6.9H104.3z M110.2,111.3l3.7-1.4l0.1-0.6l-3.3-1.4l-0.1,0.6l2.5,1.1l-2.8,1.1L110.2,111.3z"/>
			</g>
		</g>
	</g>
</g>
</svg>
