<svg xmlns="http://www.w3.org/2000/svg" width="65.315" height="66.834" xmlns:v="https://vecta.io/nano"><g stroke="#e5f0fb" stroke-width="2"><path d="M1 57.404v8.429h37.378v-8.429a8.91 8.91 0 0 0-9.05-9.05H10.12A9.1 9.1 0 0 0 1 57.404z" fill="#0d54ae"/><path d="M19.724 41.88a10.47 10.47 0 0 0 10.433-10.432 10.47 10.47 0 0 0-10.433-10.433A10.47 10.47 0 0 0 9.291 31.448c.044 5.743 4.69 10.388 10.433 10.432zm29.875 1.521a8.17 8.17 0 0 0 8.153-8.153 8.26 8.26 0 0 0-8.153-8.153 8.17 8.17 0 0 0-8.153 8.153c.033 4.489 3.664 8.12 8.153 8.153z" fill="#7fb4ec"/><path d="M57.131 49.113H43.036c2.427 2.098 3.815 5.153 3.8 8.361l.345 8.36h17.135v-9.6a7.08 7.08 0 0 0-7.185-7.121z" fill="#0d54ae"/></g><path d="M56.139 9.112C54.406 2.6 47.739-1.29 41.217.407a12.2 12.2 0 0 0-8.706 14.923c.785 2.97 2.66 5.535 5.251 7.186l-3.178 4.909 12.92-3.385c6.494-1.755 10.351-8.424 8.635-14.928z" fill="#116ada"/><path d="M40.264 15.971a1.13 1.13 0 0 0 .448 1.1c.347.252.808.285 1.187.084l2.424-1.273 2.422 1.273c.162.085.341.13.524.13a1.12 1.12 0 0 0 .663-.216c.346-.252.52-.678.448-1.1l-.463-2.7 1.961-1.912c.307-.299.418-.747.285-1.155s-.485-.705-.91-.767l-2.709-.394-1.211-2.454c-.19-.384-.581-.628-1.01-.628s-.82.244-1.01.628l-1.211 2.454-2.71.394a1.13 1.13 0 0 0-.91.767c-.133.408-.022.856.285 1.155l1.961 1.912z" fill="#fff"/></svg>