<?xml version="1.0" encoding="UTF-8"?>
<svg fill="none" viewBox="0 0 32 32" xmlns="http://www.w3.org/2000/svg">
<path d="m16 16c-1.4667 0-2.7223-0.5222-3.7667-1.5667-1.0444-1.0444-1.5667-2.3-1.5667-3.7667 0-1.4666 0.5223-2.7222 1.5667-3.7666s2.3-1.5667 3.7667-1.5667c1.4666 0 2.7222 0.52223 3.7666 1.5667 1.0445 1.0444 1.5667 2.3 1.5667 3.7666 0 1.4667-0.5222 2.7223-1.5667 3.7667-1.0444 1.0445-2.3 1.5667-3.7666 1.5667zm-10.667 10.667v-3.7333c0-0.7555 0.19466-1.4502 0.584-2.084 0.38844-0.6329 0.90488-1.116 1.5493-1.4493 1.3778-0.6889 2.7778-1.2058 4.2-1.5507 1.4223-0.344 2.8667-0.516 4.3334-0.516 1.4666 0 2.9111 0.172 4.3333 0.516 1.4222 0.3449 2.8222 0.8618 4.2 1.5507 0.6444 0.3333 1.1609 0.8164 1.5493 1.4493 0.3894 0.6338 0.584 1.3285 0.584 2.084v3.7333h-21.333zm2.6667-2.6666h16v-1.0667c0-0.2444-0.0609-0.4667-0.1827-0.6667-0.1227-0.2-0.284-0.3555-0.484-0.4666-1.2-0.6-2.4111-1.0502-3.6333-1.3507-1.2223-0.2995-2.4556-0.4493-3.7-0.4493-1.2445 0-2.4778 0.1498-3.7 0.4493-1.2223 0.3005-2.4334 0.7507-3.6334 1.3507-0.2 0.1111-0.36089 0.2666-0.48267 0.4666-0.12266 0.2-0.184 0.4223-0.184 0.6667v1.0667zm8-10.667c0.7333 0 1.3613-0.2613 1.884-0.784 0.5217-0.5218 0.7826-1.1493 0.7826-1.8827 0-0.73329-0.2609-1.3608-0.7826-1.8826-0.5227-0.52267-1.1507-0.784-1.884-0.784-0.7334 0-1.3609 0.26133-1.8827 0.784-0.5227 0.52178-0.784 1.1493-0.784 1.8826 0 0.7334 0.2613 1.3609 0.784 1.8827 0.5218 0.5227 1.1493 0.784 1.8827 0.784z" fill="#7261DF"/>
</svg>
