<svg xmlns="http://www.w3.org/2000/svg" xmlns:xlink="http://www.w3.org/1999/xlink" width="852.399" height="477.978" viewBox="0 0 852.399 477.978">
  <defs>
    <clipPath id="clip-path">
      <path id="path92" d="M557.241-129.329c-4.288,0-7.032-.191-7.032-.191H447.688c-42.424,0-59.428-1.052-63.486-14.3a17.2,17.2,0,0,1-.557-2.255,40.3,40.3,0,0,1,.107-11.544c2.011-16.479,10.388-42.94,23.9-67.045q1.1-1.954,2.235-3.884l8.656,7.673a1.556,1.556,0,0,0,1.041.408,1.594,1.594,0,0,0,1.513-2.117l-4.372-12.629h13.535a5.3,5.3,0,0,0,5.3-5.3v-20.673q.99-.9,1.979-1.743a82.738,82.738,0,0,1,24.048-14.632,80.47,80.47,0,0,1,29.823-5.216c13.009,0,23.511.965,32.42,3.048a69.944,69.944,0,0,1,19.387,7.516h0c12.448,7.193,22.217,18.3,34.627,34.084v29.557a5.1,5.1,0,0,0,5.1,5.1h16.3A120.468,120.468,0,0,1,607.91-177.1a80.278,80.278,0,0,1,1.231,8.788,49.893,49.893,0,0,1-1.007,15.993v.021a28.644,28.644,0,0,1-2.64,6.936C598.88-133.27,578.2-130.158,564.1-129.49c-2.539.12-4.865.161-6.859.161m-111.7-101.559c-3.092,24.635-6.589,48.908-17.715,66.4,29.161,21.743,54.732,28.912,75.788,28.912,40.827,0,64.664-26.969,64.664-26.969-11.107-21.969-14.319-44.933-13.956-68.347l-15.387,50.1H455.2l-9.661-50.1"/>
    </clipPath>
    <linearGradient id="linear-gradient" x1="-1.695" y1="1.843" x2="-1.695" y2="1.843" gradientUnits="objectBoundingBox">
      <stop offset="0" stop-color="#1f3a65"/>
      <stop offset="1" stop-color="#294a7a"/>
    </linearGradient>
    <clipPath id="clip-path-2">
      <path id="path108" d="M503.616-135.572c-21.056,0-46.626-7.169-75.788-28.912,11.125-17.5,14.623-41.769,17.715-66.4l9.661,50.1h83.733l15.387-50.1c-.363,23.413,2.849,46.377,13.956,68.346,0,0-23.837,26.969-64.664,26.969"/>
    </clipPath>
    <linearGradient id="linear-gradient-2" x1="-3.046" y1="2.422" x2="-3.045" y2="2.422" gradientUnits="objectBoundingBox">
      <stop offset="0" stop-color="#193057"/>
      <stop offset="1" stop-color="#213d69"/>
    </linearGradient>
    <clipPath id="clip-path-3">
      <path id="path124" d="M453.25-129.519h-5.56c-42.425,0-59.429-1.052-63.488-14.3-2.211-10.413.6-21.364,13.291-24.627,19.881-5.109,54.491,15.029,54.491,15.029Z"/>
    </clipPath>
    <linearGradient id="linear-gradient-3" x1="-5.5" y1="4.258" x2="-5.498" y2="4.258" xlink:href="#linear-gradient"/>
    <clipPath id="clip-path-4">
      <path id="path140" d="M608.136-152.321v.021a28.7,28.7,0,0,1-2.641,6.936c-10.369,18.956-55.285,15.844-55.285,15.844H519.787l3.864-25.764s53.932-24.969,73.256-17.177c9.448,3.8,12.345,11.7,11.229,20.14Z"/>
    </clipPath>
    <linearGradient id="linear-gradient-4" x1="-5.868" y1="3.897" x2="-5.867" y2="3.897" xlink:href="#linear-gradient"/>
    <clipPath id="clip-path-5">
      <path id="path160" d="M557.809-203.377l-.365,2.233v.02l-10.176,63.016H447.152l-10.069-65.312a5.3,5.3,0,0,1,5.217-6.1H552.592a5.29,5.29,0,0,1,5.217,6.141Z"/>
    </clipPath>
    <linearGradient id="linear-gradient-5" x1="-3.616" y1="2.934" x2="-3.615" y2="2.934" gradientUnits="objectBoundingBox">
      <stop offset="0" stop-color="#3855e1"/>
      <stop offset="1" stop-color="#5c7ef7"/>
    </linearGradient>
    <clipPath id="clip-path-6">
      <path id="path188" d="M522.2-326.269a147.743,147.743,0,0,1-4.355,18s-4.42-.891-5.851-12.521a15.791,15.791,0,0,1-15.547-7.161S495.013-319,485.8-325.357c-6.144,5.017-13.408,5.545-21.649,2.148,0,0,1.387,11.728-2.549,17.363,0,0-1.432-4.632-6-17.787a4.426,4.426,0,0,0-3.216,1.859S442.5-341.1,447.152-350.4s10.915-5.725,10.915-5.725-2.327-12.7,11.451-17.355,13.776-10.915,15.924-9.661,3.041,5.9,3.041,5.9,23.8-2.505,30.237,23.08c0,0,17.187.549,6.987,29.356,0,0-.671-1.195-3.511-1.463Z"/>
    </clipPath>
    <linearGradient id="linear-gradient-6" x1="-5.37" y1="4.948" x2="-5.369" y2="4.948" gradientUnits="objectBoundingBox">
      <stop offset="0" stop-color="#3f2323"/>
      <stop offset="1" stop-color="#5e3434"/>
    </linearGradient>
    <clipPath id="clip-path-7">
      <path id="path220" d="M419.58-220.465a1.556,1.556,0,0,1-1.041-.408l-8.656-7.673A170.684,170.684,0,0,1,421.56-245.91a116.307,116.307,0,0,1,13.993-15.272v20.673a5.3,5.3,0,0,1-5.3,5.3H416.722l4.372,12.629a1.594,1.594,0,0,1-1.513,2.117"/>
    </clipPath>
    <linearGradient id="linear-gradient-7" x1="-15.967" y1="6.415" x2="-15.962" y2="6.415" gradientUnits="objectBoundingBox">
      <stop offset="0" stop-color="#183161"/>
      <stop offset="1" stop-color="#1f3f75"/>
    </linearGradient>
    <clipPath id="clip-path-8">
      <path id="path260" d="M695.348-163.95H667.436V-139.8a10.2,10.2,0,0,0,10.2,10.2h7.513a10.2,10.2,0,0,0,10.2-10.2Z"/>
    </clipPath>
    <linearGradient id="linear-gradient-8" x1="-23.912" y1="4.772" x2="-23.907" y2="4.772" xlink:href="#linear-gradient"/>
    <clipPath id="clip-path-9">
      <path id="path276" d="M676.293-163.95V-171.4a2.213,2.213,0,0,1,2.215-2.213h2.817a2.213,2.213,0,0,0,2.213-2.213v-2.819a2.214,2.214,0,0,0-2.213-2.215h-9.059A11.271,11.271,0,0,1,661-192.13,11.271,11.271,0,0,1,672.266-203.4h12.011a2.213,2.213,0,0,0,2.213-2.213v-1.007A11.675,11.675,0,0,1,698.165-218.3a11.674,11.674,0,0,1,11.675,11.675,12.613,12.613,0,0,1-12.613,12.613H676.092a2.214,2.214,0,0,0-2.215,2.215,2.213,2.213,0,0,0,2.215,2.213h11.54a7.716,7.716,0,0,1,7.716,7.717v4.831a7.716,7.716,0,0,1-7.716,7.716,2.214,2.214,0,0,0-2.215,2.213v3.153Z"/>
    </clipPath>
    <linearGradient id="linear-gradient-9" x1="-13.533" y1="4.017" x2="-13.53" y2="4.017" gradientUnits="objectBoundingBox">
      <stop offset="0" stop-color="#e2e8f7"/>
      <stop offset="1" stop-color="#fff"/>
    </linearGradient>
    <clipPath id="clip-path-10">
      <path id="path298" d="M599.232-203.469h-16.3a5.1,5.1,0,0,1-5.1-5.1v-29.557q.59.75,1.187,1.512,1.218,1.556,2.392,3.131v20.443a6.182,6.182,0,0,0,6.172,6.173H597.64q.824,1.7,1.592,3.4"/>
    </clipPath>
    <linearGradient id="linear-gradient-10" x1="-27.007" y1="6.871" x2="-27.001" y2="6.871" xlink:href="#linear-gradient-7"/>
    <clipPath id="clip-path-11">
      <path id="path326" d="M596.581-209.014h-8.995a4.028,4.028,0,0,1-4.024-4.025v-17.5l.145.205q3.552,5,6.652,10.105v6.62h3.813q1.252,2.3,2.408,4.595m-3.6-6.741h-.475v-.835c.16.279.317.555.475.835"/>
    </clipPath>
    <linearGradient id="linear-gradient-11" x1="-44.825" y1="10.71" x2="-44.815" y2="10.71" xlink:href="#linear-gradient-7"/>
    <clipPath id="clip-path-12">
      <path id="path382" d="M594.173-213.609H590.36v-6.62q1.1,1.814,2.147,3.639v.835h.475q.606,1.072,1.192,2.147"/>
    </clipPath>
    <linearGradient id="linear-gradient-12" x1="-154.814" y1="33.267" x2="-154.78" y2="33.267" gradientUnits="objectBoundingBox">
      <stop offset="0" stop-color="#081232"/>
      <stop offset="1" stop-color="#0a1942"/>
    </linearGradient>
  </defs>
  <g id="g10" transform="translate(-73.799 527.998)">
    <g id="g12">
      <path id="path16" d="M831.249-287.941a419.972,419.972,0,0,1-4.488,66.3c-.215,1.483-.451,2.964-.708,4.4-1.588,9.6-3.521,18.551-5.711,26.817q-.58,2.126-1.16,4.187c-8.416,29.415-20.376,49.3-33.128,56.639H250.31s-45.667-39.592-54.835-96.144c-.236-1.439-.451-2.877-.623-4.337-3.564-28.147,2.168-60.2,26.837-93.545,11.251-15.179,26.044-25.743,43.027-33.02,1.331-.559,2.641-1.1,3.993-1.611,25.184-9.856,54.771-12.947,84.485-13.419,1.5-.021,3.005-.044,4.508-.044,17.692-.128,35.34.6,52.065,1.268,1.589.085,3.156.149,4.724.213,27.009,1.139,51.356,1.976,69.027-1.265h.021c1.631-.3,3.177-.645,4.68-1.031h.021c19.56-4.788,29.2-15.888,22.265-39.764-13.441-46.311.321-80.254,30.272-99,1.524-.965,3.113-1.889,4.724-2.769,16.94-9.189,38.346-14,62.564-13.933,1.7,0,3.413.043,5.153.085,20.589.623,43.069,4.68,66.406,12.431a211.055,211.055,0,0,1,35.1,15.265c1.331.731,2.663,1.481,3.951,2.255a204.422,204.422,0,0,1,53.955,45.3c1.008,1.16,1.975,2.341,2.94,3.544,38.5,47.448,55.285,108.7,55.673,161.176" fill="#e4ebf7"/>
      <path id="path18" d="M820.342-190.424q-.58,2.126-1.16,4.187a177.8,177.8,0,0,1-24.776-11.079c-39.291-21.341-89.317-68.877-104.474-174.252-6.527-45.431,1.8-88.693,24.8-128.649,1.331.731,2.663,1.481,3.951,2.255-20.183,35.04-31.519,76.928-24.5,125.772,14.9,103.508,63.724,150.118,102.068,170.989a168.749,168.749,0,0,0,24.091,10.777" fill="#fff"/>
      <path id="path20" d="M826.761-221.641c-.215,1.481-.451,2.963-.708,4.4-24.819-11.657-56.1-37.013-70.7-92.064-14.105-53.309-8.481-100.629,17.284-143.356,1.008,1.16,1.975,2.341,2.941,3.544-24.5,41.395-29.716,87.189-16.06,138.717,13.955,52.667,43.52,77.272,67.244,88.758" fill="#fff"/>
      <path id="path22" d="M592.5-438.018c2.083,69.951-5.883,115.145-25.829,146.577-20.891,32.935-55.736,52.839-113,64.538a156.8,156.8,0,0,1-31.561,3.285c-32.227,0-62.585-10.5-89.186-31.023-30.939-23.9-54.62-59.882-68.21-102.005,1.331-.559,2.641-1.1,3.993-1.611,13.312,41.416,36.52,76.8,66.858,100.222,34.095,26.343,74.65,35.64,117.248,26.945,106.49-21.792,139.384-72.053,135.39-206.8-1.137-38.26,5.54-68.446,19.86-90.109,1.7,0,3.413.043,5.153.085-14.9,21.04-21.857,51.185-20.719,89.894" fill="#fff"/>
      <path id="path24" d="M459.622-293.265a83.972,83.972,0,0,1-13.655,1.116c-34.331,0-73.643-20.805-92.772-79.525,1.5-.021,3.005-.044,4.508-.044,21.084,63.036,66.279,79.956,101.21,74.222,47.192-7.729,92.58-56.316,83.8-131.138-3.779-32.1-3.949-59.495-1.932-82.661,1.524-.965,3.113-1.889,4.724-2.769-2.34,23.6-2.425,51.721,1.481,84.936,9.083,77.465-38.239,127.812-87.362,135.864" fill="#fff"/>
      <path id="path26" d="M488.22-372.532c-1.653,7.535-4.552,15.221-9.511,21.684-6.592,8.631-15.845,13.741-27.5,15.18a33.95,33.95,0,0,1-4.123.257,30.046,30.046,0,0,1-19.752-7.407c-7.772-6.528-13.44-16.661-17.563-27.632,1.589.085,3.156.149,4.724.213,3.821,9.705,8.888,18.487,15.608,24.133a25.967,25.967,0,0,0,20.569,6.184c10.477-1.289,18.743-5.84,24.627-13.505a48.826,48.826,0,0,0,8.223-18.077h.021c1.631-.3,3.177-.645,4.68-1.031" fill="#fff"/>
      <path id="path28" d="M321.5-129.6h-4.68c-19.259-44.1-47.02-73.492-82.617-87.428a135.2,135.2,0,0,0-38.732-8.716c-.236-1.439-.451-2.877-.623-4.337a139.857,139.857,0,0,1,40.923,9.06c37.164,14.557,65.977,45.26,85.729,91.421" fill="#fff"/>
      <path id="path30" d="M617.343-50.02h0" fill="#fff"/>
      <path id="path32" d="M228.573-262.506,215.3-248.829l-5.54-8.139-1.847-2.725c-5.9,1.481-14.621-10.069-18.12-16.231-3.479-6.184,10.477-15.717,10.477-15.717-2.277-6.828-11.423-11.121-11.68-13.011-.259-1.868,2.019-3.885,10.327,0,8.331,3.907,15.567,17.713,15.567,17.713,1.48-4.016-5.089-14.879-3.887-16.1,1.2-1.2,7.644.279,12.6,10.733,4.981,10.479,2.019,22.824,2.019,22.824l.064.108,3.285,6.869" fill="#98b2d8"/>
      <path id="path34" d="M199.782-292.843s9.86,11.277,8.8,15.705-6.028-.711-6.028-.711,4.561,5.273,3.085,7.019-6.977-2.685-6.977-2.685,6.575,8.187,0,6.979-14.835-13.608-8.491-14.856c0,0-.768-9.029,5-5.943,0,0-2.584-7.527,4.612-5.508" fill="#b1c3e8"/>
      <path id="path36" d="M319.578-129.519s11.1-32.42,5.259-64.389a1.435,1.435,0,0,1-.043-.215l-.043-.257q-.256-1.256-.515-2.512a134.9,134.9,0,0,1-15.329,11.207c-10.672,6.72-24.907,13.4-35.835,10.264-20.053-5.733-49.381-44.723-62.993-75.51a35.69,35.69,0,0,1,20.4-13.333s27.2,36.241,51.185,44.829a176.884,176.884,0,0,0,22.888-37.937c6.4-14.385,15.995-23.489,28.1-28.383a65.474,65.474,0,0,1,22.908-4.509l21.02-9.813a79.317,79.317,0,0,1,8.717.709c9.855,1.289,26.236,4.895,39.483,14.987,20.4,15.544,49.747,154.864,49.747,154.864H319.578" fill="#b7cae5"/>
      <path id="path38" d="M324.794-194.124c-.171-.923-.364-1.847-.557-2.769a134.9,134.9,0,0,1-15.329,11.207l6.2-53.073c6.312,24.3,9.34,42.468,9.683,44.636" fill="#97b3d1"/>
      <path id="path40" d="M385.3-299.37c-3.243,20.612-23.876,39.656-38.776,39.4-11.98-.215-13.741-17.391-13.869-25.784a65.474,65.474,0,0,1,22.908-4.509l21.02-9.813a79.317,79.317,0,0,1,8.717.709" fill="#ced9ea"/>
      <path id="path42" d="M349.63-150.585s47.337-49.26,49.395-101.057l13.955,43.657-5.368,45.451L349.63-150.585" fill="#97b3d1"/>
      <path id="path44" d="M348.255-129.53h-53s.135-7.247,8.32-9.663,13.419-12.612,37.976-11.271l6.708,20.933" fill="#98b2d8"/>
      <path id="path46" d="M402.484-178.244s-24.971,14.361-64.292,24.559c0,0-5.457,13.152,4.115,24.155h76.077l-15.9-48.713" fill="#b6c5dd"/>
      <path id="path48" d="M309.5-328.787s-11.3-15.6-9.913-26.107,11.115-8.039,11.115-8.039-.453-25.527,23.177-19c0,0-.521-7.793,4.64-7.592s13.251,12.071,13.251,12.071,2.008-8.793,5.5-6.717,4.572,11.149,11.871,15.517,11.813,10.021,6.083,27.732-1.431,18.965-3.477,28.06c-1.944,8.636-3.5,13.889-8.857,14.375s-25.88-21.163-25.88-21.163L309.5-328.787" fill="#5d7ca0"/>
      <path id="path50" d="M376.58-300.079s-13.161,31.928-26.988,29.523c-6.871-1.2-8.395-5.389-8.459-10.241-.065-6.335,2.4-13.763-1.332-16.876l16.575-23.552,3.651-5.2s4.465,12.925,16.553,26.343" fill="#98b2d8"/>
      <path id="path52" d="M341.134-280.8c-.065-6.335,2.4-13.763-1.332-16.876l16.575-23.552c1.417,1.652,2.427,4.593,2.835,9.209,2.189,24.325-10.671,29.973-18.077,31.219" fill="#799cbf"/>
      <path id="path54" d="M307.891-341.2s4.481,41.125,21.263,50.383c14.584,8.045,32.3-16.288,31.941-28.324,0,0,6.356-4.855,5.3-12.713s-9.369-5.252-10.364,7.412c0,0-6.756-.481-8.007-16.309-4.241,3.511-8.819,2.429-13.628-1.843,0,0-2.385,8.809-14.663-1.487,0,0-4.632,6.291-11.839,2.881" fill="#98b2d8"/>
      <path id="path56" d="M703.721-181.864s21.66,36.141,29.163,53.674H656.5A313.57,313.57,0,0,0,644.5-169.616l59.222-12.248" fill="#5d7ca0"/>
      <path id="path58" d="M673.93-173.812c-4.179,13.849-10.553,25.676-20.009,34.659l2.583,10.964-92.429-1.14L574.363-192.6l99.568,18.787" fill="#799cbf"/>
      <path id="path60" d="M818.925-371.051s3.06-19.163,9.144-25.961,22.723-16.856,24.689-13.277-14.671,14.8-14.671,14.8,7.515-1.789,13.956,9.3-14.313,19.681-14.313,19.681l-4.116,9.3-16.46-10.377,1.771-3.471" fill="#799cbf"/>
      <path id="path62" d="M840.21-395.128S830.935-385.7,832.293-383s6.467-1.541,6.467-1.541-4.173,6.352-.939,7.989,8.243-3.851,8.243-3.851-4.173,5.775-1.773,6.835,15.232-7.988,12.936-10.105-3.547-.387-3.547-.387,2.685-4.523,0-5.967a3.1,3.1,0,0,0-4.381,1.251s2.191-3.465.417-4.812-5.529.385-5.529.385,1.231-5.773-3.976-1.924" fill="#98b2d8"/>
      <path id="path64" d="M831.6-395.358c-2.819-.805-8.544,5.055-8.544,5.055-2.252,2.9-2.712,8.671-2.8,11.332-.288,7.436-3.1,11.391-3.1,11.391l8.353,5.267c6.468-8.333,4.352-19.005,3.308-22.781,3.153-4.711,4.468-9.781,2.787-10.263" fill="#98b2d8"/>
      <path id="path66" d="M837.007-355.235s-27.912,74.329-72.269,80.921c-19.837,2.941-34.825,3.241-45.3,2.683-12.5-.643-18.636-2.532-19.087-2.661l-.023-.021s-12.173,22.672-4.295,55.243c7.859,32.548,10.736,39.355,10.736,39.355s-59.795,43.971-108.424,3.929L554.46-244.021,540.719-265.4s12.625-41.459,48.223-68.4l.021-.021a108.946,108.946,0,0,1,50.627-21.3,128.685,128.685,0,0,1,34.609-.323s9.663,2.727,25.379,8.48c8.459,3.092,18.679,7.064,30.079,11.96,32.571,13.955,41.524,18.12,41.524,18.12s34.7-34.223,43.649-54.984c0,0,17.884,1.8,22.179,16.639" fill="#b7cae5"/>
      <path id="path68" d="M613.077-321.3c-.161,16.659-3.72,32.8-5.288,45.335l27.58-5.581,42.917,42.429s5.437,12.432-5.632,14.58c-8.675,1.681-49.206,7.32-49.206,7.32-9.341,12.713-13.563,32.163-18.221,51.035l-41.152-71.505,49-83.612" fill="#97b3d1"/>
      <path id="path70" d="M674.2-317.3c-19.216-4.873-29.328-22.156-34.609-37.829a128.685,128.685,0,0,1,34.609-.323s9.661,2.727,25.379,8.48c1.845,13.72,1.18,36.392-25.379,29.672" fill="#ced9ea"/>
      <path id="path72" d="M724.653-302.1s-4.121,16.145-5.216,30.465c-12.5-.643-18.636-2.532-19.087-2.661l-.023-.021s10.908-18.657,24.325-27.783" fill="#97b3d1"/>
      <path id="path74" d="M676.69-232.042l-47.928,6.957a2.6,2.6,0,0,1-2.94-2.2l-10.588-72.95a2.593,2.593,0,0,1,2.195-2.939l47.931-6.957a2.6,2.6,0,0,1,2.94,2.2l10.587,72.949a2.6,2.6,0,0,1-2.2,2.94" fill="#f2f4f9"/>
      <path id="path76" d="M641.814-278.479l7.336-2.863s6.979-19.323,15.655-7.157c0,0,5.995-3.579,5.816-5.545s-.268-4.831-.268-4.831,12.144,2.624,9.427,19.561c-2.423,15.1-10.931,15.031-19.972,14.965-1.1-.008-2.213-.015-3.321,0l-12.7,5.009-1.969-19.144" fill="#98b2d8"/>
      <path id="path78" d="M646.545-254.863s-57.153,37.832-81.844,19.581a98.963,98.963,0,0,1-10.241-8.739L540.719-265.4s12.625-41.459,48.223-68.4l.021-.021c11.8-5.3,24.128-3.371,24.763,7.561,1.509,26.037-20.76,42.049-23.517,53.865l51.228-10.369s8.329,8.845,5.109,27.909" fill="#c1cfe5"/>
      <path id="path80" d="M713.729-395.068s8.168-17.449,4.827-27.505-12.427-5.805-12.427-5.805-4.356-25.156-26.336-14.3c0,0-.956-7.753-5.985-6.584s-10.745,14.347-10.745,14.347-3.625-8.259-6.667-5.564S654-428.671,647.653-423.01s-9.719,12.064-.76,28.381,4.972,18.359,8.692,26.9c3.533,8.117,6.047,12.985,11.4,12.455s21.439-25.652,21.439-25.652l25.3-14.147" fill="#5d7ca0"/>
      <path id="path82" d="M653.245-354.259s12.635,31.14,32.495,26.041c6.755-1.736,6.793-8.992,5.945-13.769-1.128-6.233-4.949-13.065-1.867-16.825l-20.707-20.016-4.563-4.417s-1.956,13.535-11.3,28.987" fill="#98b2d8"/>
      <path id="path84" d="M691.685-341.987c-1.128-6.233-4.949-13.065-1.867-16.825l-20.707-20.016c-1.083,1.889-1.52,4.968-1.052,9.58,2.423,24.3,16.116,27.431,23.625,27.261" fill="#799cbf"/>
      <path id="path86" d="M712.976-407.563s3.332,41.235-11.409,53.481c-12.812,10.644-34.784-9.924-36.7-21.812,0,0-7.156-3.573-7.592-11.491s8.215-6.92,11.575,5.331c0,0,6.544-1.744,4.795-17.524,4.827,2.651,9.117.728,13.039-4.372,0,0,4,8.2,14.121-4.216,0,0,5.733,5.305,12.169.6" fill="#98b2d8"/>
      <g id="g88">
        <g id="g90" clip-path="url(#clip-path)">
          <path id="path102" d="M557.241-129.329c-4.288,0-7.032-.191-7.032-.191H447.688c-42.424,0-59.428-1.052-63.486-14.3a17.2,17.2,0,0,1-.557-2.255,40.3,40.3,0,0,1,.107-11.544c2.011-16.479,10.388-42.94,23.9-67.045q1.1-1.954,2.235-3.884l8.656,7.673a1.556,1.556,0,0,0,1.041.408,1.594,1.594,0,0,0,1.513-2.117l-4.372-12.629h13.535a5.3,5.3,0,0,0,5.3-5.3v-20.673q.99-.9,1.979-1.743a82.738,82.738,0,0,1,24.048-14.632,80.47,80.47,0,0,1,29.823-5.216c13.009,0,23.511.965,32.42,3.048a69.944,69.944,0,0,1,19.387,7.516h0c12.448,7.193,22.217,18.3,34.627,34.084v29.557a5.1,5.1,0,0,0,5.1,5.1h16.3A120.468,120.468,0,0,1,607.91-177.1a80.278,80.278,0,0,1,1.231,8.788,49.893,49.893,0,0,1-1.007,15.993v.021a28.644,28.644,0,0,1-2.64,6.936C598.88-133.27,578.2-130.158,564.1-129.49c-2.539.12-4.865.161-6.859.161m-111.7-101.559c-3.092,24.635-6.589,48.908-17.715,66.4,29.161,21.743,54.732,28.912,75.788,28.912,40.827,0,64.664-26.969,64.664-26.969-11.107-21.969-14.319-44.933-13.956-68.347l-15.387,50.1H455.2l-9.661-50.1" fill="url(#linear-gradient)"/>
        </g>
      </g>
      <g id="g104">
        <g id="g106" clip-path="url(#clip-path-2)">
          <path id="path118" d="M503.616-135.572c-21.056,0-46.626-7.169-75.788-28.912,11.125-17.5,14.623-41.769,17.715-66.4l9.661,50.1h83.733l15.387-50.1c-.363,23.413,2.849,46.377,13.956,68.346,0,0-23.837,26.969-64.664,26.969" fill="url(#linear-gradient-2)"/>
        </g>
      </g>
      <g id="g120">
        <g id="g122" clip-path="url(#clip-path-3)">
          <path id="path134" d="M453.25-129.519h-5.56c-42.425,0-59.429-1.052-63.488-14.3-2.211-10.413.6-21.364,13.291-24.627,19.881-5.109,54.491,15.029,54.491,15.029l1.267,23.9" fill="url(#linear-gradient-3)"/>
        </g>
      </g>
      <g id="g136">
        <g id="g138" clip-path="url(#clip-path-4)">
          <path id="path150" d="M608.136-152.321v.021a28.7,28.7,0,0,1-2.641,6.936c-10.369,18.956-55.285,15.844-55.285,15.844H519.787l3.864-25.764s53.932-24.969,73.256-17.177c9.448,3.8,12.345,11.7,11.229,20.14" fill="url(#linear-gradient-4)"/>
        </g>
      </g>
      <path id="path152" d="M523.823-279.725c-.9,12.044-5.884,33.987-30.144,33.987-25.571,0-30.983-21.62-32.1-31.819a80.47,80.47,0,0,1,29.823-5.216c13.011,0,23.511.967,32.42,3.048" fill="#1f395e"/>
      <path id="path154" d="M545.916-129.53H447.69a4.294,4.294,0,0,1-4.295-4.293,4.294,4.294,0,0,1,4.295-4.295h98.226a4.294,4.294,0,0,1,4.293,4.295,4.294,4.294,0,0,1-4.293,4.293" fill="#fff"/>
      <g id="g156">
        <g id="g158" clip-path="url(#clip-path-5)">
          <path id="path170" d="M557.809-203.377l-.365,2.233v.02l-10.176,63.016H447.152l-10.069-65.312a5.3,5.3,0,0,1,5.217-6.1H552.592a5.29,5.29,0,0,1,5.217,6.141" fill="url(#linear-gradient-5)"/>
        </g>
      </g>
      <path id="path172" d="M557.444-201.124l-10.176,63.016H447.69l33.751-3.521a90.775,90.775,0,0,0,76-59.495" fill="#3150bc"/>
      <path id="path174" d="M493.271-254.862h-.665a23.485,23.485,0,0,1-9.663-1.953,17.426,17.426,0,0,1-9.983-16.339c.021-.709.021-1.4.021-2.084.021-5.732-.344-10.5-.344-10.5v-2.576l36.069-1.609a83.321,83.321,0,0,0,1.439,13.5l.044.171a17.887,17.887,0,0,1-16.919,21.385" fill="#feb19e"/>
      <path id="path176" d="M510.145-276.418c-15.029,17.648-30.465,7.343-37.164,1.18.021-5.732-.344-10.5-.344-10.5v-2.576l36.069-1.609a83.318,83.318,0,0,0,1.439,13.5" fill="#ff856a"/>
      <path id="path178" d="M461.6-305.846s11.183,31.527,29.835,31.527,26.407-33.948,26.407-33.948V-337.79H460.168l1.432,31.944" fill="#feb19e"/>
      <path id="path180" d="M455.6-323.633s-5.492,1.005-4.553,7.312,6.664,13.956,11.316,9.931L455.6-323.633" fill="#feb19e"/>
      <path id="path182" d="M522.2-326.269s5.579.247,5.505,6.624-4.7,14.732-9.86,11.377l4.355-18" fill="#feb19e"/>
      <g id="g184">
        <g id="g186" clip-path="url(#clip-path-6)">
          <path id="path198" d="M522.2-326.269a147.743,147.743,0,0,1-4.355,18s-4.42-.891-5.851-12.521a15.791,15.791,0,0,1-15.547-7.161S495.013-319,485.8-325.357c-6.144,5.017-13.408,5.545-21.649,2.148,0,0,1.387,11.728-2.549,17.363,0,0-1.432-4.632-6-17.787a4.426,4.426,0,0,0-3.216,1.859S442.5-341.1,447.152-350.4s10.915-5.725,10.915-5.725-2.327-12.7,11.451-17.355,13.776-10.915,15.924-9.661,3.041,5.9,3.041,5.9,23.8-2.505,30.237,23.08c0,0,17.187.549,6.987,29.356,0,0-.671-1.195-3.511-1.463" fill="url(#linear-gradient-6)"/>
        </g>
      </g>
      <path id="path200" d="M435.554-267.5c-3.721-8.255-7.372-14.289-10.773-16.881-13.247-10.092-29.628-13.7-39.483-14.987q-.418-.054-.82-.1h26.976a84.966,84.966,0,0,0,24.1,6.684V-267.5M335.041-286.669v-2.553l.24,0a15.759,15.759,0,0,0,6.577-1.559c-.025.711-.079,1.444-.144,2.193a58.014,58.014,0,0,0-6.673,1.916m99.512-10.608a80.53,80.53,0,0,1-10.344-2.2h6.048a5.291,5.291,0,0,1,4.3,2.2" fill="#aec6ed"/>
      <path id="path202" d="M435.554-292.789a84.968,84.968,0,0,1-24.1-6.684h12.755a80.53,80.53,0,0,0,10.344,2.2,5.273,5.273,0,0,1,1,3.1v1.389" fill="#c2d7f4"/>
      <path id="path204" d="M409.883-228.546l-4.851-4.3-4.444-13.9h18.723a1.412,1.412,0,0,0,1.412-1.412,1.413,1.413,0,0,0-1.412-1.413H399.686l-.661-2.071c-.028.689-.064,1.383-.107,2.071h-51.4a1.413,1.413,0,0,0-1.412,1.413,1.412,1.412,0,0,0,1.412,1.412H398.7a102.422,102.422,0,0,1-1.764,11.535h-56.6a5.3,5.3,0,0,1-5.3-5.3v-29.573c1.936,5.5,5.385,10,11.481,10.109.1,0,.2,0,.3,0,4.232,0,8.909-1.531,13.511-4.195h58.979a1.413,1.413,0,0,0,1.412-1.413,1.412,1.412,0,0,0-1.412-1.412H364.619a54.162,54.162,0,0,0,6.683-5.884h48.009a1.413,1.413,0,0,0,1.412-1.413,1.412,1.412,0,0,0-1.412-1.412H373.855c5.719-6.763,10.091-15.081,11.443-23.671q-.418-.054-.82-.1h0q.4.048.82.1c9.855,1.289,26.236,4.895,39.483,14.987,3.4,2.592,7.052,8.627,10.773,16.881v6.32A116.3,116.3,0,0,0,421.56-245.91a170.689,170.689,0,0,0-11.677,17.364m-62.366-29.735a1.413,1.413,0,0,0-1.412,1.413,1.412,1.412,0,0,0,1.412,1.412h71.794a1.412,1.412,0,0,0,1.412-1.412,1.413,1.413,0,0,0-1.412-1.413H347.517" fill="#8caadb"/>
      <path id="path206" d="M346.822-259.97c-.1,0-.2,0-.3,0-6.1-.109-9.545-4.609-11.481-10.109v-16.587a58.006,58.006,0,0,1,6.673-1.916c-.219,2.453-.58,5.065-.581,7.527,0,.087,0,.173,0,.26h0c.064,4.852,1.588,9.039,8.459,10.241a8.809,8.809,0,0,0,1.5.129,12.617,12.617,0,0,0,7.307-2.759,1.408,1.408,0,0,0,.884.312H371.3a54.155,54.155,0,0,1-6.683,5.884h-17.1a1.412,1.412,0,0,0-1.412,1.412,1.413,1.413,0,0,0,1.412,1.413h12.816c-4.6,2.664-9.279,4.195-13.511,4.195M373.855-275.7H361.344a54.5,54.5,0,0,0,7.453-9.535,1.408,1.408,0,0,0,.845-1.292c0-.021,0-.041,0-.061a110.48,110.48,0,0,0,6.681-12.885h8.155q.4.048.82.1c-1.352,8.589-5.724,16.908-11.443,23.671" fill="#9db7e0"/>
      <path id="path208" d="M405.032-232.846l-2.669-2.365h-5.431a102.422,102.422,0,0,0,1.764-11.535h1.892l4.444,13.9m-5.347-16.725h-.768c.043-.688.079-1.381.107-2.071l.661,2.071" fill="#7397c8"/>
      <path id="path210" d="M351.1-270.427a8.809,8.809,0,0,1-1.5-.129c-6.871-1.2-8.395-5.389-8.459-10.241a21.571,21.571,0,0,0,9.944-4.317h17.153a1.4,1.4,0,0,0,.567-.119,54.505,54.505,0,0,1-7.453,9.535h-2.059a1.412,1.412,0,0,0-1.412,1.412,1.411,1.411,0,0,0,.528,1.1,12.617,12.617,0,0,1-7.307,2.759m18.547-16.16a1.411,1.411,0,0,0-1.411-1.352H353.926a24.467,24.467,0,0,0,4.944-11.533h17.453a110.488,110.488,0,0,1-6.681,12.885" fill="#7496cf"/>
      <path id="path212" d="M341.134-280.8c0-.087,0-.173,0-.26,0-3.212.617-6.684.725-9.72a31.722,31.722,0,0,0,10.656-8.695h6.356a24.465,24.465,0,0,1-4.944,11.533h-6.409a1.412,1.412,0,0,0-1.412,1.413,1.412,1.412,0,0,0,1.412,1.411h3.561a21.571,21.571,0,0,1-9.944,4.317h0" fill="#5c83b7"/>
      <path id="path214" d="M335.281-289.219l-.24,0v-4.956a5.3,5.3,0,0,1,5.3-5.295h12.177a31.722,31.722,0,0,1-10.656,8.695h0a15.759,15.759,0,0,1-6.577,1.559" fill="#7496cf"/>
      <g id="g216">
        <g id="g218" clip-path="url(#clip-path-7)">
          <path id="path230" d="M419.58-220.465a1.556,1.556,0,0,1-1.041-.408l-8.656-7.673A170.684,170.684,0,0,1,421.56-245.91a116.307,116.307,0,0,1,13.993-15.272v20.673a5.3,5.3,0,0,1-5.3,5.3H416.722l4.372,12.629a1.594,1.594,0,0,1-1.513,2.117" fill="url(#linear-gradient-7)"/>
        </g>
      </g>
      <path id="path232" d="M368.8-285.234c.288-.451.569-.9.844-1.353,0,.02,0,.04,0,.061a1.408,1.408,0,0,1-.845,1.292" fill="#5f87d0"/>
      <path id="path234" d="M368.231-285.115H351.078a19.218,19.218,0,0,0,2.848-2.824h14.305a1.411,1.411,0,0,1,1.411,1.352c-.275.449-.556.9-.844,1.353a1.4,1.4,0,0,1-.567.119" fill="#466fc0"/>
      <path id="path236" d="M351.078-285.115h-3.561a1.411,1.411,0,0,1-1.412-1.411,1.412,1.412,0,0,1,1.412-1.413h6.409a19.214,19.214,0,0,1-2.848,2.824" fill="#3861aa"/>
      <path id="path238" d="M419.311-272.874H371.3q1.314-1.36,2.553-2.825h45.456a1.412,1.412,0,0,1,1.412,1.412,1.413,1.413,0,0,1-1.412,1.413" fill="#557dcc"/>
      <path id="path240" d="M371.3-272.874H359.286a1.407,1.407,0,0,1-.884-.312,26.515,26.515,0,0,0,2.943-2.513h12.511q-1.238,1.462-2.553,2.825" fill="#5f87d0"/>
      <path id="path242" d="M358.4-273.186a1.411,1.411,0,0,1-.528-1.1,1.412,1.412,0,0,1,1.412-1.412h2.059a26.509,26.509,0,0,1-2.943,2.513" fill="#466fc0"/>
      <path id="path244" d="M419.311-264.165H360.332a45.859,45.859,0,0,0,4.287-2.825h54.692a1.412,1.412,0,0,1,1.412,1.412,1.413,1.413,0,0,1-1.412,1.413" fill="#557dcc"/>
      <path id="path246" d="M360.332-264.165H347.516a1.413,1.413,0,0,1-1.412-1.413,1.412,1.412,0,0,1,1.412-1.412h17.1a45.865,45.865,0,0,1-4.287,2.825" fill="#5f87d0"/>
      <path id="path248" d="M419.311-255.455H347.517a1.412,1.412,0,0,1-1.412-1.412,1.413,1.413,0,0,1,1.412-1.413h71.794a1.413,1.413,0,0,1,1.412,1.413,1.412,1.412,0,0,1-1.412,1.412" fill="#557dcc"/>
      <path id="path250" d="M419.311-246.746H400.588l-.9-2.825h19.625a1.413,1.413,0,0,1,1.412,1.413,1.412,1.412,0,0,1-1.412,1.412m-20.615,0h-51.18a1.412,1.412,0,0,1-1.412-1.412,1.413,1.413,0,0,1,1.412-1.413h51.4c-.06.944-.133,1.884-.221,2.825" fill="#557dcc"/>
      <path id="path252" d="M400.588-246.746H398.7c.088-.941.161-1.881.221-2.825h.768l.9,2.825" fill="#456fba"/>
      <path id="path254" d="M828.913-115.576H176.222a2.329,2.329,0,0,1-2.331-2.329v-9.3a2.329,2.329,0,0,1,2.331-2.329h652.69a2.33,2.33,0,0,1,2.329,2.329v9.3a2.33,2.33,0,0,1-2.329,2.329" fill="#c1c8d3"/>
      <g id="g256">
        <g id="g258" clip-path="url(#clip-path-8)">
          <path id="path270" d="M695.348-163.95H667.436V-139.8a10.2,10.2,0,0,0,10.2,10.2h7.513a10.2,10.2,0,0,0,10.2-10.2V-163.95" fill="url(#linear-gradient-8)"/>
        </g>
      </g>
      <g id="g272">
        <g id="g274" clip-path="url(#clip-path-9)">
          <path id="path286" d="M676.293-163.95V-171.4a2.213,2.213,0,0,1,2.215-2.213h2.817a2.213,2.213,0,0,0,2.213-2.213v-2.819a2.214,2.214,0,0,0-2.213-2.215h-9.059A11.271,11.271,0,0,1,661-192.13,11.271,11.271,0,0,1,672.266-203.4h12.011a2.213,2.213,0,0,0,2.213-2.213v-1.007A11.675,11.675,0,0,1,698.165-218.3a11.674,11.674,0,0,1,11.675,11.675,12.613,12.613,0,0,1-12.613,12.613H676.092a2.214,2.214,0,0,0-2.215,2.215,2.213,2.213,0,0,0,2.215,2.213h11.54a7.716,7.716,0,0,1,7.716,7.717v4.831a7.716,7.716,0,0,1-7.716,7.716,2.214,2.214,0,0,0-2.215,2.213v3.153h-9.124" fill="url(#linear-gradient-9)"/>
        </g>
      </g>
      <path id="path288" d="M656.2-203.469H615.988c.476-1.155.969-2.291,1.481-3.4h43.385l.157,0a5.1,5.1,0,0,1-4.811,3.4" fill="#8caadb"/>
      <path id="path290" d="M615.988-203.469H599.232q-.768-1.694-1.592-3.4h19.829c-.512,1.107-1.005,2.243-1.481,3.4" fill="#7397c8"/>
      <path id="path292" d="M581.415-233.482q-1.174-1.574-2.392-3.131-.6-.764-1.187-1.512v-63.032a5.1,5.1,0,0,1,3.592-4.873c-.008.133-.013.267-.013.4v72.148" fill="#93afdb"/>
      <g id="g294">
        <g id="g296" clip-path="url(#clip-path-10)">
          <path id="path308" d="M599.232-203.469h-16.3a5.1,5.1,0,0,1-5.1-5.1v-29.557q.59.75,1.187,1.512,1.218,1.556,2.392,3.131v20.443a6.182,6.182,0,0,0,6.172,6.173H597.64q.824,1.7,1.592,3.4" fill="url(#linear-gradient-10)"/>
        </g>
      </g>
      <path id="path310" d="M660.854-209.014H618.5a56.67,56.67,0,0,1,4.947-8.2s2.353-.328,6.048-.848h18.671a1.6,1.6,0,0,0,1.595-1.595,1.59,1.59,0,0,0-.573-1.224c4.2-.612,8.395-1.232,12.115-1.8v13.644a4.168,4.168,0,0,1-.448.024m-53.065-66.949c.416-3.328.972-6.909,1.569-10.688a31.12,31.12,0,0,1,5.744-3.079l-.817-1.984a34.715,34.715,0,0,0-4.48,2.225c.835-5.3,1.7-10.936,2.327-16.767H638.69l-21.261,3.085a2.593,2.593,0,0,0-2.195,2.939l3.209,22.112-10.655,2.156" fill="#8caadb"/>
      <path id="path312" d="M618.5-209.014h-21.92q-1.156-2.3-2.408-4.595h12.469v-11.165a29.5,29.5,0,0,1,8.46-5.2l-.817-1.984a32.726,32.726,0,0,0-7.643,4.372v-5.527h-6.416a147.228,147.228,0,0,0,23.439-9.035L625.573-229h-2.665a1.6,1.6,0,0,0-1.595,1.595,1.6,1.6,0,0,0,1.595,1.595h3.66a2.593,2.593,0,0,0,1.819.748,2.756,2.756,0,0,0,.376-.027l4.969-.721h14.435a1.6,1.6,0,0,0,1.595-1.595,1.575,1.575,0,0,0-.165-.708l11.707-1.7v7.127c-3.72.568-7.911,1.188-12.115,1.8a1.589,1.589,0,0,0-1.021-.369H622.908a1.594,1.594,0,0,0-1.595,1.593,1.6,1.6,0,0,0,1.595,1.595H629.5c-3.695.52-6.048.848-6.048.848a56.671,56.671,0,0,0-4.947,8.2M604.5-215.755H592.981c-.157-.28-.315-.556-.475-.835v-14.373H604.5v5.233a21.653,21.653,0,0,0-2.26,2.516l-2.936-3.277-1.6,1.435,4.844,5.4.739-1.293a12.417,12.417,0,0,1,1.212-1.635v6.831m-14.136-4.473q-3.1-5.1-6.652-10.105a57.884,57.884,0,0,0,6.652-.629v10.735m16.283-55.5v-8.8a26.636,26.636,0,0,1,2.716-2.119c-.6,3.779-1.153,7.36-1.569,10.688l10.655-2.156h0l-11.8,2.388m0-11.611v-5.528h-3.828a76.13,76.13,0,0,0,7.384-13.387h1.933c-.631,5.831-1.492,11.469-2.327,16.767a30.663,30.663,0,0,0-3.163,2.148" fill="#7397c8"/>
      <path id="path314" d="M628.386-225.058a2.593,2.593,0,0,1-1.819-.748h7.164l-4.969.721a2.757,2.757,0,0,1-.376.027m21.209-3.051a1.6,1.6,0,0,0-1.429-.887H625.573l-1.908-13.149c4.163-1.988,7.979-3.989,11.255-5.8h13.247a1.594,1.594,0,0,0,1.595-1.593,1.6,1.6,0,0,0-1.595-1.6H640.5c3.8-2.243,6.043-3.731,6.043-3.731.047-.276.091-.549.133-.823h1.488a1.6,1.6,0,0,0,1.595-1.595,1.594,1.594,0,0,0-1.595-1.593h-1.093c.057-.616.1-1.221.136-1.812l9.277-3.659c.516-.009,1.031-.012,1.547-.012.592,0,1.184,0,1.775.008.5,0,1,.008,1.495.009v34.531l-11.707,1.7m-31.152-50.009h0l-3.209-22.112a2.593,2.593,0,0,1,2.195-2.939l21.261-3.085H656.2a5.1,5.1,0,0,1,5.1,5.1v9.275a4.9,4.9,0,0,0-2.364-.637c-5.751,0-9.788,11.177-9.788,11.177l-.86.336c-.041,0-.083-.005-.124-.005H642.74a13.144,13.144,0,0,0-1.3-1.761l-8.7,1.761h-9.825a1.6,1.6,0,0,0-1.595,1.6,1.588,1.588,0,0,0,.155.684l-3.024.613m4.464-10.635a1.594,1.594,0,0,0-1.595,1.593,1.594,1.594,0,0,0,1.595,1.593h25.259a1.594,1.594,0,0,0,1.595-1.593,1.594,1.594,0,0,0-1.595-1.593H622.908" fill="#b8ceee"/>
      <path id="path316" d="M647.209-260.686a36.566,36.566,0,0,0-2.763-17.136h3.72a1.594,1.594,0,0,0,1.595-1.593,1.594,1.594,0,0,0-1.471-1.591l.86-.336s4.037-11.177,9.788-11.177a4.9,4.9,0,0,1,2.364.637v27.543c-.5,0-.995-.005-1.495-.009-.591,0-1.183-.008-1.775-.008-.516,0-1.031,0-1.547.012l-9.277,3.659" fill="#7496cf"/>
      <path id="path318" d="M590.208-272.4q.112-.478.265-.964h4.5l-4.767.964" fill="#7397c8"/>
      <path id="path320" d="M583.708-230.334l-.145-.205v-75.09a4.048,4.048,0,0,1,.048-.625H610.2a76.13,76.13,0,0,1-7.384,13.387H590.36v19.5h.113q-.154.486-.265.964l4.767-.964h11.668v-2.363l11.8-2.388,3.024-.613a1.6,1.6,0,0,0,1.44.909h21.539a36.566,36.566,0,0,1,2.763,17.136c-.033.591-.079,1.2-.136,1.812H622.908a1.594,1.594,0,0,0-1.595,1.593,1.6,1.6,0,0,0,1.595,1.595h23.771c-.043.273-.087.547-.133.823,0,0-2.247,1.488-6.043,3.731H622.908a1.6,1.6,0,0,0-1.595,1.6,1.594,1.594,0,0,0,1.595,1.593H634.92c-3.276,1.809-7.092,3.811-11.255,5.8a147.225,147.225,0,0,1-23.439,9.035H590.36v2.147a57.87,57.87,0,0,1-6.652.629m6.652-32.656v19.5h16.283v-11.164a29.523,29.523,0,0,1,8.46-5.2l-.817-1.983a32.634,32.634,0,0,0-7.643,4.372v-5.528H590.36M604.5-245.635H592.506v-15.208H604.5v5.233a21.764,21.764,0,0,0-2.26,2.517L599.3-256.37l-1.6,1.433,4.844,5.4.739-1.295a12.424,12.424,0,0,1,1.212-1.635v6.831m38.244-35.376H632.733l8.7-1.761a13.147,13.147,0,0,1,1.3,1.761" fill="#93afdb"/>
      <g id="g322">
        <g id="g324" clip-path="url(#clip-path-11)">
          <path id="path336" d="M596.581-209.014h-8.995a4.028,4.028,0,0,1-4.024-4.025v-17.5l.145.205q3.552,5,6.652,10.105v6.62h3.813q1.252,2.3,2.408,4.595m-3.6-6.741h-.475v-.835c.16.279.317.555.475.835" fill="url(#linear-gradient-11)"/>
        </g>
      </g>
      <path id="path338" d="M604.5-275.515H592.507v-2.311c2.181-3.825,5.483-8.076,8.839-12.9H604.5v5.233a21.877,21.877,0,0,0-2.26,2.516l-2.936-3.276-1.6,1.433,4.844,5.4.739-1.295a12.418,12.418,0,0,1,1.212-1.635v6.829" fill="#7397c8"/>
      <path id="path340" d="M592.507-277.826v-12.9h8.839c-3.356,4.82-6.657,9.071-8.839,12.9" fill="#93afdb"/>
      <path id="path342" d="M587.587-309.655a4.028,4.028,0,0,0-4.024,4.025v92.59a4.028,4.028,0,0,0,4.024,4.025h73.268a4.028,4.028,0,0,0,4.025-4.025v-92.59a4.028,4.028,0,0,0-4.025-4.025H587.587m73.268,102.789H587.587a6.182,6.182,0,0,1-6.172-6.173v-92.59a6.183,6.183,0,0,1,6.172-6.173h73.268a6.183,6.183,0,0,1,6.173,6.173v92.59a6.182,6.182,0,0,1-6.173,6.173" fill="#4f7eb7"/>
      <path id="path344" d="M594.975-273.367h-4.5a23.029,23.029,0,0,1,2.033-4.459v2.311H604.5v-6.829a22.366,22.366,0,0,1,2.147-2.188v8.8l-11.668,2.363m9.521-12.121v-5.233h-3.151q.734-1.056,1.469-2.147h3.828v5.528a26.955,26.955,0,0,0-2.147,1.852" fill="#335498"/>
      <path id="path346" d="M606.643-273.367H594.975l11.668-2.363v2.363m-16.169,0h-.113v-19.5h12.455q-.734,1.092-1.469,2.147h-8.839v12.9a23.029,23.029,0,0,0-2.033,4.459" fill="#476ab1"/>
      <path id="path348" d="M609.359-286.651q.22-1.4.447-2.837a34.714,34.714,0,0,1,4.48-2.225l.817,1.984a31.117,31.117,0,0,0-5.744,3.079" fill="#80678a"/>
      <path id="path350" d="M602.545-279.415l-4.844-5.4,1.6-1.433,2.936,3.276a21.879,21.879,0,0,1,2.26-2.516,26.927,26.927,0,0,1,2.147-1.852,30.645,30.645,0,0,1,3.163-2.148q-.226,1.436-.447,2.837a26.636,26.636,0,0,0-2.716,2.119,22.369,22.369,0,0,0-2.147,2.188,12.416,12.416,0,0,0-1.212,1.635l-.739,1.295" fill="#6a5c7e"/>
      <path id="path352" d="M648.166-285.566H622.908a1.594,1.594,0,0,1-1.595-1.593,1.594,1.594,0,0,1,1.595-1.593h25.259a1.594,1.594,0,0,1,1.595,1.593,1.594,1.594,0,0,1-1.595,1.593" fill="#6f98dd"/>
      <path id="path354" d="M643.762-279.239c-.361-.695-.711-1.284-1.023-1.772h5.427c.041,0,.083,0,.124.005l-4.528,1.767" fill="#6f98dd"/>
      <path id="path356" d="M648.166-277.822h-3.72c-.229-.513-.459-.985-.684-1.417l4.528-1.767a1.594,1.594,0,0,1,1.471,1.591,1.594,1.594,0,0,1-1.595,1.593" fill="#466fc0"/>
      <path id="path358" d="M621.468-278.731a1.587,1.587,0,0,1-.155-.684,1.6,1.6,0,0,1,1.595-1.6h9.825l-11.265,2.28" fill="#6f98dd"/>
      <path id="path360" d="M644.446-277.822H622.908a1.6,1.6,0,0,1-1.44-.909l11.265-2.28H642.74c.312.488.661,1.077,1.023,1.772.225.432.455.9.684,1.417" fill="#5981cc"/>
      <path id="path362" d="M606.643-243.489H590.36v-19.5h16.283v5.528a27.221,27.221,0,0,0-2.147,1.852v-5.233H592.507v15.208H604.5v-6.831a22.523,22.523,0,0,1,2.147-2.187v11.164" fill="#476ab1"/>
      <path id="path364" d="M602.545-249.537l-4.844-5.4,1.6-1.433,2.936,3.277a21.758,21.758,0,0,1,2.26-2.517,27.2,27.2,0,0,1,2.147-1.852,32.633,32.633,0,0,1,7.643-4.372l.817,1.983a29.524,29.524,0,0,0-8.46,5.2,22.521,22.521,0,0,0-2.147,2.187,12.42,12.42,0,0,0-1.212,1.635l-.739,1.295" fill="#876a8a"/>
      <path id="path366" d="M648.166-255.686h-1.488c.169-1.1.3-2.16.395-3.188h1.093a1.594,1.594,0,0,1,1.595,1.593,1.6,1.6,0,0,1-1.595,1.595" fill="#6f98dd"/>
      <path id="path368" d="M646.678-255.686H622.908a1.6,1.6,0,0,1-1.595-1.595,1.594,1.594,0,0,1,1.595-1.593h24.165c-.1,1.028-.225,2.091-.395,3.188" fill="#5981cc"/>
      <path id="path370" d="M648.166-247.943H634.92c2.1-1.16,3.98-2.243,5.583-3.189h7.664a1.6,1.6,0,0,1,1.595,1.6,1.594,1.594,0,0,1-1.595,1.593" fill="#6f98dd"/>
      <path id="path372" d="M634.92-247.943H622.908a1.594,1.594,0,0,1-1.595-1.593,1.6,1.6,0,0,1,1.595-1.6H640.5c-1.6.947-3.481,2.029-5.583,3.189" fill="#5981cc"/>
      <path id="path374" d="M606.643-213.609H594.173q-.586-1.074-1.192-2.147H604.5v-6.831a22.517,22.517,0,0,1,2.147-2.188v11.165m-14.136-2.981q-1.044-1.822-2.147-3.639v-10.735a83.317,83.317,0,0,0,9.867-2.147h6.416v5.527a26.95,26.95,0,0,0-2.147,1.853v-5.233H592.507v14.373" fill="#335498"/>
      <path id="path376" d="M590.36-230.963v-2.147h9.867a83.317,83.317,0,0,1-9.867,2.147" fill="#476ab1"/>
      <g id="g378">
        <g id="g380" clip-path="url(#clip-path-12)">
          <path id="path392" d="M594.173-213.609H590.36v-6.62q1.1,1.814,2.147,3.639v.835h.475q.606,1.072,1.192,2.147" fill="url(#linear-gradient-12)"/>
        </g>
      </g>
      <path id="path394" d="M602.545-219.658l-4.844-5.4,1.6-1.435,2.936,3.277a21.655,21.655,0,0,1,2.26-2.516,26.929,26.929,0,0,1,2.147-1.853,32.727,32.727,0,0,1,7.643-4.372l.817,1.984a29.5,29.5,0,0,0-8.46,5.2,22.517,22.517,0,0,0-2.147,2.188,12.422,12.422,0,0,0-1.212,1.635l-.739,1.293" fill="#6a5c7e"/>
      <path id="path396" d="M648.166-225.806H633.732l15.864-2.3a1.576,1.576,0,0,1,.165.708,1.6,1.6,0,0,1-1.595,1.595m-21.6,0h-3.66a1.6,1.6,0,0,1-1.595-1.595A1.6,1.6,0,0,1,622.908-229h2.665l.249,1.715a2.58,2.58,0,0,0,.745,1.475" fill="#456fba"/>
      <path id="path398" d="M633.732-225.806h-7.164a2.58,2.58,0,0,1-.745-1.475L625.573-229h22.593a1.6,1.6,0,0,1,1.429.887l-15.864,2.3" fill="#6f98dd"/>
      <path id="path400" d="M648.166-218.063H629.5c4.963-.7,12.347-1.747,19.692-2.819a1.59,1.59,0,0,1,.573,1.224,1.6,1.6,0,0,1-1.595,1.595" fill="#557dcc"/>
      <path id="path402" d="M629.5-218.063h-6.588a1.6,1.6,0,0,1-1.595-1.595,1.594,1.594,0,0,1,1.595-1.593h25.259a1.589,1.589,0,0,1,1.021.369c-7.345,1.072-14.729,2.12-19.692,2.819" fill="#456fba"/>
      <path id="path404" d="M913.583-345.058H840.317a5.1,5.1,0,0,1-5.1-5.1v-.673c1.18-2.784,1.789-4.405,1.789-4.405a20.363,20.363,0,0,0-1.789-4.3v-1.3l2.512-5.677A42.712,42.712,0,0,0,848.6-373.3a3.758,3.758,0,0,0,1.067.155,3.757,3.757,0,0,0,3.757-3.759,3.759,3.759,0,0,0-.161-1.095c2.865-2.252,5.02-4.7,3.963-5.675a3.258,3.258,0,0,0-2.151-1.053,1.8,1.8,0,0,0-1.4.667s2.685-4.523,0-5.967a3.585,3.585,0,0,0-1.7-.477l-.1,0a3.751,3.751,0,0,0,1.551-3.041,3.757,3.757,0,0,0-3.757-3.757,3.757,3.757,0,0,0-3.747,3.489c-.193.051-.376.105-.545.16q-.544-.352-1.067-.623c.033-.947-.141-2.177-1.28-2.177a4.536,4.536,0,0,0-2.312.965,9.425,9.425,0,0,0-1.412-.111,5.79,5.79,0,0,0-1.217.107s12.819-8.644,14.623-13.177a12.842,12.842,0,0,0,5.368,1.168,12.881,12.881,0,0,0,12.881-12.881c0-.243-.007-.484-.02-.723l7,.723c3.759-7.6,0-15.029-7.872-17l-3.909,6.963a12.824,12.824,0,0,0-8.077-2.848,12.884,12.884,0,0,0-12.884,12.883,12.852,12.852,0,0,0,4.253,9.564c-3.585.852-9.315,4.052-14.229,7.619v-39.548a5.1,5.1,0,0,1,5.1-5.1h73.267a5.1,5.1,0,0,1,5.1,5.1v92.59a5.1,5.1,0,0,1-5.1,5.1m-41.193-18.7A3.757,3.757,0,0,0,868.634-360a3.756,3.756,0,0,0,3.756,3.756h30.059A3.756,3.756,0,0,0,906.206-360a3.757,3.757,0,0,0-3.757-3.759H872.39m-22.723,0A3.758,3.758,0,0,0,845.91-360a3.757,3.757,0,0,0,3.757,3.756A3.756,3.756,0,0,0,853.425-360a3.757,3.757,0,0,0-3.757-3.759m22.723-16.908a3.757,3.757,0,0,0-3.756,3.757,3.757,3.757,0,0,0,3.756,3.759h30.059a3.757,3.757,0,0,0,3.757-3.759,3.757,3.757,0,0,0-3.757-3.757H872.39m0-16.639a3.757,3.757,0,0,0-3.756,3.757,3.757,3.757,0,0,0,3.756,3.757h30.059a3.757,3.757,0,0,0,3.757-3.757,3.757,3.757,0,0,0-3.757-3.757H872.39m-22.571,7.811c-.027-.035-.055-.068-.081-.1.031-.063.061-.129.092-.2.113,0,.225-.015.336-.029a3.781,3.781,0,0,0-.347.329" fill="#c2d7f4"/>
      <path id="path406" d="M835.218-360.83V-382.4a14.782,14.782,0,0,0,3.541-2.139s-4.173,6.352-.939,7.989a2.92,2.92,0,0,0,1.333.3c3.116,0,6.909-4.155,6.909-4.155s-4.173,5.775-1.773,6.835a1.221,1.221,0,0,0,.485.085,6.435,6.435,0,0,0,2.333-.669,3.75,3.75,0,0,0,1.492.852,42.713,42.713,0,0,1-10.871,6.795l-2.512,5.677M849.4-388.955c.083-.144.2-.365.335-.639.027.035.055.068.081.1a4.058,4.058,0,0,0-.416.536m-14.185-.452V-403.2c4.915-3.567,10.644-6.767,14.229-7.619a12.913,12.913,0,0,0,3.263,2.149c-1.8,4.533-14.623,13.177-14.623,13.177a5.791,5.791,0,0,1,1.217-.107,9.421,9.421,0,0,1,1.412.111c-.163.109-.331.228-.507.359a71.979,71.979,0,0,0-4.992,5.721m8.968-3.8a7.015,7.015,0,0,0,.123-1.071q.522.272,1.067.623a11.336,11.336,0,0,0-1.189.448" fill="#5c83b7"/>
      <path id="path408" d="M844.775-373.484a1.222,1.222,0,0,1-.485-.085c-2.4-1.06,1.773-6.835,1.773-6.835s-3.793,4.155-6.909,4.155a2.92,2.92,0,0,1-1.333-.3c-3.235-1.637.939-7.989.939-7.989a14.784,14.784,0,0,1-3.541,2.139v-7a71.985,71.985,0,0,1,4.992-5.721c.176-.131.344-.249.507-.359a4.536,4.536,0,0,1,2.312-.965c1.139,0,1.313,1.231,1.28,2.177a7.006,7.006,0,0,1-.123,1.071,11.336,11.336,0,0,1,1.189-.448c.169-.055.352-.109.545-.16-.007.088-.011.177-.011.268a3.758,3.758,0,0,0,3.757,3.757c.055,0,.108,0,.163,0-.031.068-.061.135-.092.2-.131.273-.252.495-.335.639a4.062,4.062,0,0,1,.416-.536,3.769,3.769,0,0,1,.347-.329,3.745,3.745,0,0,0,1.708-.683l.1,0a3.585,3.585,0,0,1,1.7.477c2.685,1.444,0,5.967,0,5.967a1.8,1.8,0,0,1,1.4-.667,3.258,3.258,0,0,1,2.151,1.053c1.057.976-1.1,3.423-3.963,5.675a3.76,3.76,0,0,0-3.6-2.663,3.758,3.758,0,0,0-3.757,3.757,3.749,3.749,0,0,0,1.2,2.752,6.436,6.436,0,0,1-2.333.669" fill="#7496cf"/>
      <path id="path410" d="M835.218-350.83v-8.7a20.357,20.357,0,0,1,1.789,4.3s-.609,1.621-1.789,4.405" fill="#8caadb"/>
      <path id="path412" d="M846.759-452.628a4.03,4.03,0,0,0-4.025,4.025v92.59a4.03,4.03,0,0,0,4.025,4.025h73.266a4.029,4.029,0,0,0,4.025-4.025V-448.6a4.029,4.029,0,0,0-4.025-4.025ZM920.026-349.84H846.759a6.181,6.181,0,0,1-6.173-6.172V-448.6a6.181,6.181,0,0,1,6.173-6.173h73.266A6.18,6.18,0,0,1,926.2-448.6v92.59a6.18,6.18,0,0,1-6.172,6.172" fill="#4f7eb7"/>
      <path id="path414" d="M858.078-407.5a12.842,12.842,0,0,1-5.368-1.168,1.875,1.875,0,0,0,.048-1.621,1.761,1.761,0,0,0-1.688-.748,7.181,7.181,0,0,0-1.623.22,12.852,12.852,0,0,1-4.253-9.564,12.884,12.884,0,0,1,12.884-12.883,12.824,12.824,0,0,1,8.077,2.848l-4.68,8.335,9.464.977c.013.239.02.48.02.723A12.881,12.881,0,0,1,858.078-407.5" fill="#90b1e1"/>
      <path id="path416" d="M852.71-408.668a12.911,12.911,0,0,1-3.263-2.149,7.181,7.181,0,0,1,1.623-.22,1.762,1.762,0,0,1,1.688.748,1.876,1.876,0,0,1-.048,1.621" fill="#446ca9"/>
      <path id="path418" d="M877.937-420.382l-7-.723a12.857,12.857,0,0,0-4.784-9.312l3.909-6.963c7.872,1.968,11.631,9.393,7.872,17" fill="#a482a0"/>
      <path id="path420" d="M870.939-421.1l-9.464-.977,4.68-8.335a12.857,12.857,0,0,1,4.784,9.312" fill="#8c7d9c"/>
      <path id="path422" d="M849.83-389.791c.509-1.131,1.045-2.917-.115-3.8a2.992,2.992,0,0,0-1.831-.513,7.814,7.814,0,0,0-1.964.291,3.757,3.757,0,0,1,3.747-3.489,3.757,3.757,0,0,1,3.757,3.757,3.751,3.751,0,0,1-1.551,3.041,2.815,2.815,0,0,0-1.708.683c-.111.015-.223.025-.336.029" fill="#9bbbeb"/>
      <path id="path424" d="M849.667-389.787a3.758,3.758,0,0,1-3.757-3.757c0-.091,0-.18.011-.268a7.815,7.815,0,0,1,1.964-.291,2.993,2.993,0,0,1,1.831.513c1.16.881.624,2.668.115,3.8-.055,0-.108,0-.163,0m.5-.033a2.815,2.815,0,0,1,1.708-.683,3.745,3.745,0,0,1-1.708.683" fill="#5d82c7"/>
      <path id="path426" d="M849.667-373.147a3.758,3.758,0,0,1-1.067-.155,18.229,18.229,0,0,0,3.033-3.493c.556-.388,1.105-.793,1.629-1.205a3.761,3.761,0,0,1,.161,1.095,3.757,3.757,0,0,1-3.757,3.759" fill="#9bbbeb"/>
      <path id="path428" d="M848.6-373.3a3.75,3.75,0,0,1-1.492-.852,28.862,28.862,0,0,0,4.525-2.641A18.229,18.229,0,0,1,848.6-373.3" fill="#4a72b0"/>
      <path id="path430" d="M847.109-374.154a3.749,3.749,0,0,1-1.2-2.752,3.758,3.758,0,0,1,3.757-3.757,3.76,3.76,0,0,1,3.6,2.663c-.524.412-1.073.817-1.629,1.205a28.87,28.87,0,0,1-4.525,2.641" fill="#5d82c7"/>
      <path id="path432" d="M902.448-389.787H872.39a3.757,3.757,0,0,1-3.756-3.757,3.757,3.757,0,0,1,3.756-3.757h30.059a3.757,3.757,0,0,1,3.757,3.757,3.757,3.757,0,0,1-3.757,3.757" fill="#9bbbeb"/>
      <path id="path434" d="M902.448-373.147H872.39a3.757,3.757,0,0,1-3.756-3.759,3.757,3.757,0,0,1,3.756-3.757h30.059a3.757,3.757,0,0,1,3.757,3.757,3.757,3.757,0,0,1-3.757,3.759" fill="#9bbbeb"/>
      <path id="path436" d="M849.667-356.24A3.757,3.757,0,0,1,845.91-360a3.758,3.758,0,0,1,3.757-3.759A3.757,3.757,0,0,1,853.425-360a3.756,3.756,0,0,1-3.757,3.756" fill="#9bbbeb"/>
      <path id="path438" d="M902.448-356.24H872.39A3.756,3.756,0,0,1,868.634-360a3.757,3.757,0,0,1,3.756-3.759h30.059A3.757,3.757,0,0,1,906.206-360a3.756,3.756,0,0,1-3.757,3.756" fill="#9bbbeb"/>
      <path id="path440" d="M286.941-375.22H213.673a5.1,5.1,0,0,1-5.1-5.1V-490.085a5.1,5.1,0,0,1,5.1-5.1h73.268a5.1,5.1,0,0,1,5.1,5.1V-380.32a5.1,5.1,0,0,1-5.1,5.1" fill="#c2d7f4"/>
      <path id="path442" d="M209.022-498.763A4.03,4.03,0,0,0,205-494.737v109.766a4.029,4.029,0,0,0,4.025,4.025h73.266a4.03,4.03,0,0,0,4.025-4.025V-494.737a4.031,4.031,0,0,0-4.025-4.025ZM282.289-378.8H209.022a6.179,6.179,0,0,1-6.173-6.172V-494.737a6.179,6.179,0,0,1,6.173-6.172h73.266a6.178,6.178,0,0,1,6.172,6.172v109.766a6.178,6.178,0,0,1-6.172,6.172" fill="#4f7eb7"/>
      <path id="path444" d="M246.377-445.808l-1.048.931a1.61,1.61,0,0,1-2.273-.135l-10.749-12.1,3.456-3.069,10.748,12.1a1.61,1.61,0,0,1-.133,2.273" fill="#7ca6d8"/>
      <path id="path446" d="M228.563-458.592a8.417,8.417,0,0,1-8.415-8.413,8.417,8.417,0,0,1,8.415-8.413,8.4,8.4,0,0,1,8.413,8.413A8.4,8.4,0,0,1,228.563-458.592Zm0-20.759a12.347,12.347,0,0,0-12.345,12.345,12.346,12.346,0,0,0,12.345,12.345,12.334,12.334,0,0,0,12.345-12.345,12.334,12.334,0,0,0-12.345-12.345" fill="#7ca6d8"/>
      <path id="path448" d="M278.578-472.552h-19.5a2.236,2.236,0,0,1-2.236-2.236,2.237,2.237,0,0,1,2.236-2.237h19.5a2.237,2.237,0,0,1,2.236,2.237,2.236,2.236,0,0,1-2.236,2.236" fill="#9abced"/>
      <path id="path450" d="M278.578-460.922h-19.5a2.237,2.237,0,0,1-2.236-2.237,2.236,2.236,0,0,1,2.236-2.236h19.5a2.236,2.236,0,0,1,2.236,2.236,2.237,2.237,0,0,1-2.236,2.237" fill="#9abced"/>
      <path id="path452" d="M278.578-450.187h-19.5a2.236,2.236,0,0,1-2.236-2.236,2.237,2.237,0,0,1,2.236-2.237h19.5a2.237,2.237,0,0,1,2.236,2.237,2.236,2.236,0,0,1-2.236,2.236" fill="#9abced"/>
      <path id="path454" d="M254.29-420.308H224.231a2.549,2.549,0,0,1-2.549-2.549,2.549,2.549,0,0,1,2.549-2.549H254.29a2.55,2.55,0,0,1,2.549,2.549,2.55,2.55,0,0,1-2.549,2.549" fill="#9abced"/>
      <path id="path456" d="M254.29-404.339H224.231a2.549,2.549,0,0,1-2.549-2.549,2.55,2.55,0,0,1,2.549-2.551H254.29a2.55,2.55,0,0,1,2.549,2.551,2.55,2.55,0,0,1-2.549,2.549" fill="#9abced"/>
      <path id="path458" d="M254.29-388.371H224.231a2.549,2.549,0,0,1-2.549-2.549,2.55,2.55,0,0,1,2.549-2.551H254.29a2.551,2.551,0,0,1,2.549,2.551,2.55,2.55,0,0,1-2.549,2.549" fill="#9abced"/>
      <path id="path460" d="M277.839-422.858a4.093,4.093,0,0,1-4.092,4.093,4.093,4.093,0,0,1-4.093-4.093,4.092,4.092,0,0,1,4.093-4.092,4.092,4.092,0,0,1,4.092,4.092" fill="#9abced"/>
      <path id="path462" d="M277.839-406.888a4.092,4.092,0,0,1-4.092,4.092,4.092,4.092,0,0,1-4.093-4.092,4.093,4.093,0,0,1,4.093-4.093,4.092,4.092,0,0,1,4.092,4.093" fill="#9abced"/>
      <path id="path464" d="M277.839-390.92a4.092,4.092,0,0,1-4.092,4.092,4.092,4.092,0,0,1-4.093-4.092,4.092,4.092,0,0,1,4.093-4.093,4.092,4.092,0,0,1,4.092,4.093" fill="#9abced"/>
      <path id="path466" d="M502.759-378.562a8.809,8.809,0,0,1-.873-3.837v-89.1a8.844,8.844,0,0,1,3.873-7.323,9.914,9.914,0,0,0-.293,2.4v25.707q-.238,4.676,0,9.611v53.784a9.867,9.867,0,0,0,1.459,5.176,24.711,24.711,0,0,1-4.165,3.581" fill="#c2d7f4"/>
      <path id="path468" d="M644.93-373.543H590.945q.182-1.906.345-3.847h58.292a9.9,9.9,0,0,0,2.937-.443,8.853,8.853,0,0,1-7.589,4.289m-58.315,0H543.339q.522-1.9.989-3.847h42.64c-.111,1.295-.228,2.573-.352,3.847m-47.751,0H510.743a8.855,8.855,0,0,1-7.984-5.019,24.709,24.709,0,0,0,4.165-3.581,9.931,9.931,0,0,0,8.471,4.753h24.5c-.323,1.293-.667,2.58-1.025,3.847m-33.4-67.56q-.24-4.932,0-9.611v9.611" fill="#aec6ed"/>
      <path id="path470" d="M590.945-373.543h-4.329c.124-1.273.241-2.552.352-3.847h4.323q-.164,1.94-.345,3.847" fill="#c2d7f4"/>
      <path id="path472" d="M543.339-373.543h-4.473c.359-1.267.7-2.553,1.025-3.847h4.437q-.468,1.942-.989,3.847" fill="#c2d7f4"/>
      <path id="path474" d="M508.395-383.918a7.723,7.723,0,0,1-.784-3.4v-36.772q1.146,5.754,2.9,11.795c3.717,12.8,2.672,21.927-2.112,28.379m-.784-82.021V-476.42a7.739,7.739,0,0,1,.913-3.657,8.88,8.88,0,0,1,2.219-.279h1.923a73.25,73.25,0,0,0-5.055,14.417" fill="#c2d7f4"/>
      <path id="path476" d="M649.582-379.536H591.465q.19-2.434.355-4.921h28.688a3.221,3.221,0,0,0,3.221-3.22,3.221,3.221,0,0,0-3.221-3.22H592.193q.262-5.162.413-10.557h3.815a2.75,2.75,0,0,0,2.751-2.751V-442.18a2.75,2.75,0,0,0-2.751-2.751h-4.037q-.03-7.044.316-13.688h2.581a3.892,3.892,0,0,0,3.891-3.891,3.892,3.892,0,0,0-3.891-3.892h-2.035q.646-7.236,1.771-13.955H644.93a8.856,8.856,0,0,1,8.856,8.856v36.86c-1.071,3.723-2.379,8.281-6.133,11.631-6.347,5.663-9.719,12.064-.76,28.381,3.7,6.745,5.193,11.051,5.932,14.384a7.734,7.734,0,0,1-3.243.708m-36.5-30.507a2.415,2.415,0,0,0-2.415,2.416,2.415,2.415,0,0,0,2.415,2.415h23.125a2.416,2.416,0,0,0,2.416-2.415,2.416,2.416,0,0,0-2.416-2.416H613.083m0-10.913a2.415,2.415,0,0,0-2.415,2.415,2.415,2.415,0,0,0,2.415,2.416h23.125a2.416,2.416,0,0,0,2.416-2.416,2.416,2.416,0,0,0-2.416-2.415H613.083m0-10.915a2.415,2.415,0,0,0-2.415,2.416,2.415,2.415,0,0,0,2.415,2.415h23.125a2.416,2.416,0,0,0,2.416-2.415,2.416,2.416,0,0,0-2.416-2.416H613.083m0-10.913a2.415,2.415,0,0,0-2.415,2.416,2.415,2.415,0,0,0,2.415,2.415h23.125a2.416,2.416,0,0,0,2.416-2.415,2.416,2.416,0,0,0-2.416-2.416H613.083m-.357-23.617a3.892,3.892,0,0,0-3.892,3.892,3.892,3.892,0,0,0,3.892,3.891h22.007a3.892,3.892,0,0,0,3.892-3.891,3.892,3.892,0,0,0-3.892-3.892H612.725m-25.579,86.865H544.825q.542-2.432,1-4.921h41.684c-.112,1.66-.232,3.295-.361,4.921m-46.74,0H515.395a7.791,7.791,0,0,1-7-4.381c4.784-6.452,5.829-15.58,2.112-28.379q-1.752-6.036-2.9-11.795v-41.848a73.254,73.254,0,0,1,5.055-14.417H539.5q.01,6.786.263,13.955H520.94a3.892,3.892,0,0,0-3.891,3.892,3.892,3.892,0,0,0,3.891,3.891h19.172q.362,6.682.949,13.688H519.8a2.75,2.75,0,0,0-2.751,2.751v37.975a2.75,2.75,0,0,0,2.751,2.751h23.745q-.328,5.4-1.047,10.557h-7.6a3.22,3.22,0,0,0-3.22,3.22,3.22,3.22,0,0,0,3.22,3.22h6.545c-.316,1.664-.66,3.3-1.035,4.921M587.888-390.9H546.845q.692-5.164,1.012-10.557h40.449q-.154,5.386-.419,10.557m.2-54.033h-42.7q-.588-7.008-.94-13.688h43.947q-.34,6.65-.308,13.688m.843-21.471H544.107q-.246-7.17-.236-13.955h46.785q-1.1,6.728-1.728,13.955" fill="#aec6ed"/>
      <path id="path478" d="M591.465-379.536h-4.319c.129-1.627.249-3.261.361-4.921h4.312q-.164,2.488-.355,4.921m.728-11.361h-4.305q.266-5.172.419-10.557h4.3q-.152,5.394-.413,10.557m.191-54.033h-4.3q-.032-7.036.308-13.688H592.7q-.346,6.642-.316,13.688m.863-21.471h-4.319q.63-7.224,1.728-13.955h4.361q-1.126,6.714-1.771,13.955" fill="#c2d7f4"/>
      <path id="path480" d="M544.825-379.536h-4.419c.375-1.623.719-3.257,1.035-4.921h4.383q-.456,2.49-1,4.921m2.02-11.361H542.5q.714-5.16,1.047-10.557h4.312q-.316,5.394-1.012,10.557m-1.459-54.033h-4.325q-.59-7-.949-13.688h4.335q.354,6.682.94,13.688m-1.28-21.471h-4.345q-.256-7.172-.263-13.955h4.372q-.006,6.782.236,13.955" fill="#c2d7f4"/>
      <path id="path482" d="M652.825-380.244c-.739-3.333-2.229-7.639-5.932-14.384-8.959-16.317-5.587-22.719.76-28.381,3.755-3.349,5.063-7.908,6.133-11.631V-382.4a8.934,8.934,0,0,1-.169,1.733,7.882,7.882,0,0,1-.792.421" fill="#476899"/>
      <path id="path484" d="M515.395-484.2a7.792,7.792,0,0,0-7.784,7.783v89.1a7.793,7.793,0,0,0,7.784,7.783H649.582a7.792,7.792,0,0,0,7.783-7.783v-89.1a7.791,7.791,0,0,0-7.783-7.783H515.395M649.582-377.39H515.395a9.94,9.94,0,0,1-9.929-9.929v-89.1a9.94,9.94,0,0,1,9.929-9.931H649.582a9.942,9.942,0,0,1,9.931,9.931v89.1a9.942,9.942,0,0,1-9.931,9.929" fill="#4f7eb7"/>
      <path id="path486" d="M595.281-458.619H592.7q.206-3.964.547-7.783h2.035a3.892,3.892,0,0,1,3.891,3.892,3.892,3.892,0,0,1-3.891,3.891m-6.888,0H544.447q-.208-3.95-.34-7.783h44.821q-.332,3.822-.535,7.783m-48.281,0H520.94a3.892,3.892,0,0,1-3.891-3.891,3.892,3.892,0,0,1,3.891-3.892h18.821q.138,3.836.351,7.783" fill="#8bace4"/>
      <path id="path488" d="M592.7-458.619h-4.307q.2-3.96.535-7.783h4.319q-.34,3.82-.547,7.783" fill="#9bbbeb"/>
      <path id="path490" d="M544.447-458.619h-4.335q-.212-3.948-.351-7.783h4.345q.132,3.838.34,7.783" fill="#9bbbeb"/>
      <path id="path492" d="M596.421-401.455h-3.815c.321-11.376.283-23.54-.105-36.563q-.1-3.5-.117-6.913h4.037a2.75,2.75,0,0,1,2.751,2.751v37.975a2.75,2.75,0,0,1-2.751,2.751m-8.115,0H547.857a158.1,158.1,0,0,0-.873-27.673q-.952-8.1-1.6-15.8h42.7q.016,3.474.121,7.043.574,19.356.1,36.433m-44.761,0H519.8a2.75,2.75,0,0,1-2.751-2.751V-442.18a2.75,2.75,0,0,1,2.751-2.751h21.261q.67,7.938,1.649,16.3a153.434,153.434,0,0,1,.835,27.179" fill="#6f95d3"/>
      <path id="path494" d="M592.607-401.455h-4.3q.49-17.1-.1-36.433-.106-3.57-.121-7.043h4.3q.014,3.41.117,6.913c.388,13.023.427,25.187.105,36.563" fill="#7ba2da"/>
      <path id="path496" d="M547.857-401.455h-4.312a153.434,153.434,0,0,0-.835-27.179q-.984-8.362-1.649-16.3h4.325q.648,7.7,1.6,15.8a158.091,158.091,0,0,1,.873,27.673" fill="#7ba2da"/>
      <path id="path498" d="M634.732-458.619H612.725a3.892,3.892,0,0,1-3.892-3.891,3.892,3.892,0,0,1,3.892-3.892h22.007a3.892,3.892,0,0,1,3.892,3.892,3.892,3.892,0,0,1-3.892,3.891" fill="#8bace4"/>
      <path id="path500" d="M636.208-437.954H613.082a2.415,2.415,0,0,1-2.415-2.415,2.415,2.415,0,0,1,2.415-2.416h23.125a2.416,2.416,0,0,1,2.416,2.416,2.416,2.416,0,0,1-2.416,2.415" fill="#8bace4"/>
      <path id="path502" d="M636.208-427.04H613.082a2.415,2.415,0,0,1-2.415-2.415,2.415,2.415,0,0,1,2.415-2.416h23.125a2.416,2.416,0,0,1,2.416,2.416,2.416,2.416,0,0,1-2.416,2.415" fill="#8bace4"/>
      <path id="path504" d="M636.208-416.126H613.082a2.415,2.415,0,0,1-2.415-2.416,2.415,2.415,0,0,1,2.415-2.415h23.125a2.416,2.416,0,0,1,2.416,2.415,2.416,2.416,0,0,1-2.416,2.416" fill="#8bace4"/>
      <path id="path506" d="M636.208-405.212H613.082a2.415,2.415,0,0,1-2.415-2.415,2.415,2.415,0,0,1,2.415-2.416h23.125a2.416,2.416,0,0,1,2.416,2.416,2.416,2.416,0,0,1-2.416,2.415" fill="#8bace4"/>
      <path id="path508" d="M620.508-384.458H591.82q.208-3.174.373-6.44h28.315a3.221,3.221,0,0,1,3.221,3.22,3.221,3.221,0,0,1-3.221,3.22m-33,0H545.824q.582-3.174,1.021-6.44h41.043c-.112,2.171-.239,4.325-.38,6.44m-46.067,0H534.9a3.22,3.22,0,0,1-3.22-3.22,3.22,3.22,0,0,1,3.22-3.22h7.6q-.454,3.268-1.057,6.44" fill="#8bace4"/>
      <path id="path510" d="M591.82-384.458h-4.312c.141-2.115.268-4.269.38-6.44h4.305q-.164,3.266-.373,6.44" fill="#9bbbeb"/>
      <path id="path512" d="M545.824-384.458h-4.383q.6-3.17,1.057-6.44h4.347q-.438,3.266-1.021,6.44" fill="#9bbbeb"/>
      <path id="path514" d="M195.429-264.231H87.239a7.156,7.156,0,0,1-7.156-7.157v-76.934a7.156,7.156,0,0,1,7.156-7.156H214.271a7.156,7.156,0,0,1,7.156,7.156v25.055a156.231,156.231,0,0,0-14.995,24.689,24.977,24.977,0,0,0-7.511-6.072c-3.483-1.629-5.905-2.22-7.525-2.22-2.245,0-2.951,1.135-2.8,2.22.223,1.632,7.076,5.059,10.407,10.361H175.445a1.879,1.879,0,0,0-1.88,1.879,1.879,1.879,0,0,0,1.88,1.879h19.3a8.815,8.815,0,0,0,.387,3.064l-.076.071a4.492,4.492,0,0,0-2.013-.58c-3.373,0-2.887,6.369-2.869,6.58l0,.007c-5.264,1.039-.456,9.771,5.091,13.388q.342.42.693.835-.28,1.474-.52,2.937m-41.9-16.639a1.878,1.878,0,0,0-1.879,1.877,1.879,1.879,0,0,0,1.879,1.879h25.228a1.879,1.879,0,0,0,1.879-1.879,1.878,1.878,0,0,0-1.879-1.877H153.53m-36.142,0a1.878,1.878,0,0,0-1.879,1.877,1.879,1.879,0,0,0,1.879,1.879h25.227a1.879,1.879,0,0,0,1.88-1.879,1.878,1.878,0,0,0-1.88-1.877H117.389M139.3-294.29a1.879,1.879,0,0,0-1.879,1.879,1.879,1.879,0,0,0,1.879,1.879h25.227a1.879,1.879,0,0,0,1.88-1.879,1.879,1.879,0,0,0-1.88-1.879H139.3m-38.463,0a1.879,1.879,0,0,0-1.879,1.879,1.879,1.879,0,0,0,1.879,1.879h25.228a1.879,1.879,0,0,0,1.878-1.879,1.879,1.879,0,0,0-1.878-1.879H100.839m58.591-49.065a1.074,1.074,0,0,0-1.073,1.075v35.345h41.867a1.073,1.073,0,0,0,1.073-1.073,1.074,1.074,0,0,0-1.073-1.075H194.5v-12.105h-5.367v12.105h-5.547v-24.211h-5.368v24.211h-5.725v-16.061h-5.367v16.061H160.5v-33.2a1.074,1.074,0,0,0-1.073-1.075m-41.365-1.088a18.22,18.22,0,0,0-18.207,18.228,18.216,18.216,0,0,0,18.207,18.205,18.082,18.082,0,0,0,12.882-5.345l-12.882-12.86,5.84-17.263a18.1,18.1,0,0,0-5.84-.965m10.1,2.163-4.959,14.659,10.94,10.923a15.347,15.347,0,0,0,4.54-10.923,15.474,15.474,0,0,0-10.521-14.659" fill="#c2d7f4"/>
      <path id="path516" d="M198.661-264.231h-3.232q.24-1.464.52-2.937c.873,1.032,1.784,2.027,2.712,2.937m15.828-22.707a65.924,65.924,0,0,0-8.056-11.641,156.233,156.233,0,0,1,14.995-24.689V-295.6c-3.647-5.915-7.637-7.8-9.669-7.8a1.625,1.625,0,0,0-1.156.352c-1.2,1.224,5.367,12.087,3.887,16.1" fill="#aec6ed"/>
      <path id="path518" d="M214.271-264.231H198.661c-.928-.911-1.839-1.905-2.712-2.937q-.352-.414-.693-.835a9.553,9.553,0,0,0,3.4,1.467,6.607,6.607,0,0,0,1.175.121c4.528,0-1.175-7.1-1.175-7.1s3.84,3.092,5.965,3.092a1.258,1.258,0,0,0,1.012-.407c1.476-1.745-3.085-7.019-3.085-7.019s2.424,2.511,4.248,2.511c.785,0,1.459-.467,1.78-1.8.776-3.233-4.273-10.121-7.053-13.6a1.88,1.88,0,0,0,1.024-1.673,1.879,1.879,0,0,0-1.879-1.879H199c-3.331-5.3-10.184-8.729-10.407-10.361-.149-1.085.556-2.22,2.8-2.22,1.62,0,4.043.591,7.525,2.22a24.977,24.977,0,0,1,7.511,6.072,65.924,65.924,0,0,1,8.056,11.641c1.48-4.016-5.089-14.879-3.887-16.1a1.625,1.625,0,0,1,1.156-.352c2.032,0,6.023,1.881,9.669,7.8v24.208a7.156,7.156,0,0,1-7.156,7.157m-24.107-17.16,0-.007v.005h0m5.005-5.944-.119-.063.076-.071c.027.087.043.133.043.133" fill="#7496cf"/>
      <path id="path520" d="M199.834-266.415a6.608,6.608,0,0,1-1.175-.121,9.553,9.553,0,0,1-3.4-1.467c-5.547-3.617-10.355-12.349-5.091-13.388h0v-.005c-.017-.211-.5-6.58,2.869-6.58a4.492,4.492,0,0,1,2.013.58l.119.063s-.016-.047-.043-.133a8.815,8.815,0,0,1-.387-3.064h5.931a1.876,1.876,0,0,0,.855-.205c2.78,3.479,7.829,10.367,7.053,13.6-.321,1.333-.995,1.8-1.78,1.8-1.824,0-4.248-2.511-4.248-2.511s4.561,5.273,3.085,7.019a1.258,1.258,0,0,1-1.012.407c-2.125,0-5.965-3.092-5.965-3.092s5.7,7.1,1.175,7.1" fill="#87a4de"/>
      <path id="path522" d="M82.029-359.686a6.09,6.09,0,0,0-6.083,6.083v76.936a6.09,6.09,0,0,0,6.083,6.083H209.061a6.089,6.089,0,0,0,6.083-6.083V-353.6a6.09,6.09,0,0,0-6.083-6.083Zm127.032,91.248H82.029a8.241,8.241,0,0,1-8.23-8.229V-353.6a8.24,8.24,0,0,1,8.23-8.229H209.061a8.24,8.24,0,0,1,8.231,8.229v76.936a8.241,8.241,0,0,1-8.231,8.229" fill="#4f7eb7"/>
      <path id="path524" d="M118.065-308.01a18.216,18.216,0,0,1-18.207-18.205,18.22,18.22,0,0,1,18.207-18.228,18.1,18.1,0,0,1,5.84.965l-5.84,17.263,12.882,12.86a18.082,18.082,0,0,1-12.882,5.345" fill="#90b1e1"/>
      <path id="path526" d="M134.148-316.7l-10.94-10.923,4.959-14.659a15.474,15.474,0,0,1,10.521,14.659,15.347,15.347,0,0,1-4.54,10.923" fill="#a482a0"/>
      <path id="path528" d="M200.224-306.935H158.357v-35.345a1.074,1.074,0,0,1,1.073-1.075,1.074,1.074,0,0,1,1.073,1.075v33.2h39.72a1.074,1.074,0,0,1,1.073,1.075,1.073,1.073,0,0,1-1.073,1.073" fill="#9bbbeb"/>
      <path id="path530" d="M167.125-309.083h5.367v-16.061h-5.367Z" fill="#9bbbeb"/>
      <path id="path532" d="M178.217-309.083h5.368v-24.211h-5.368Z" fill="#a482a0"/>
      <path id="path534" d="M189.132-309.083H194.5v-12.106h-5.367Z" fill="#9bbbeb"/>
      <path id="path536" d="M126.067-290.533H100.839a1.879,1.879,0,0,1-1.879-1.879,1.879,1.879,0,0,1,1.879-1.879h25.228a1.879,1.879,0,0,1,1.878,1.879,1.879,1.879,0,0,1-1.878,1.879" fill="#9bbbeb"/>
      <path id="path538" d="M164.529-290.533H139.3a1.879,1.879,0,0,1-1.879-1.879,1.879,1.879,0,0,1,1.879-1.879h25.227a1.879,1.879,0,0,1,1.88,1.879,1.879,1.879,0,0,1-1.88,1.879" fill="#9bbbeb"/>
      <path id="path540" d="M194.741-290.533h-19.3a1.879,1.879,0,0,1-1.88-1.879,1.879,1.879,0,0,1,1.88-1.879H199a13.264,13.264,0,0,1,.8,1.473l-.024-.027a8.109,8.109,0,0,0-2.163-.344,2.609,2.609,0,0,0-2.879,2.655" fill="#9bbbeb"/>
      <path id="path542" d="M201.526-290.738c-.917-1.149-1.588-1.927-1.72-2.079a13.261,13.261,0,0,0-.8-1.473h1.669a1.879,1.879,0,0,1,1.879,1.879,1.88,1.88,0,0,1-1.024,1.673" fill="#5d82c7"/>
      <path id="path544" d="M200.672-290.533h-5.931a2.609,2.609,0,0,1,2.879-2.655,8.109,8.109,0,0,1,2.163.344l.024.027c.132.152.8.929,1.72,2.079a1.875,1.875,0,0,1-.855.205" fill="#6c8ed6"/>
      <path id="path546" d="M142.616-277.114H117.389a1.879,1.879,0,0,1-1.879-1.879,1.878,1.878,0,0,1,1.879-1.877h25.227a1.878,1.878,0,0,1,1.88,1.877,1.879,1.879,0,0,1-1.88,1.879" fill="#9bbbeb"/>
      <path id="path548" d="M178.758-277.114H153.53a1.879,1.879,0,0,1-1.879-1.879,1.878,1.878,0,0,1,1.879-1.877h25.228a1.878,1.878,0,0,1,1.879,1.877,1.879,1.879,0,0,1-1.879,1.879" fill="#9bbbeb"/>
    </g>
  </g>
</svg>
